M48
; DRILL file {KiCad (5.1.12)-1} date 01/08/22 21:52:57
; FORMAT={-:-/ absolute / metric / decimal}
; #@! TF.CreationDate,2022-01-08T21:52:57+01:00
; #@! TF.GenerationSoftware,Kicad,Pcbnew,(5.1.12)-1
; #@! TF.FileFunction,NonPlated,1,2,NPTH
FMAT,2
METRIC
T1C0.650
T2C1.700
T3C2.950
T4C3.000
T5C3.050
T6C4.000
%
G90
G05
T1
X317.15Y27.88
X322.93Y27.88
T2
X-30.48Y15.24
X-30.48Y-3.81
X-30.48Y-22.86
X-30.48Y-41.91
X-30.48Y-60.96
X-30.48Y-80.01
X-20.32Y15.24
X-20.32Y-3.81
X-20.32Y-22.86
X-20.32Y-41.91
X-20.32Y-60.96
X-20.32Y-80.01
X-11.43Y15.24
X-11.43Y-80.01
X-11.404Y-60.943
X-6.61Y-22.86
X-1.936Y-3.802
X-1.936Y-3.802
X-1.27Y15.24
X-1.27Y-80.01
X-1.244Y-60.943
X0.58Y-41.917
X0.58Y-41.917
X3.55Y-22.86
X7.62Y15.24
X7.62Y-80.01
X8.224Y-3.802
X8.224Y-3.802
X10.74Y-41.917
X10.74Y-41.917
X14.803Y-60.98
X17.139Y-22.86
X17.78Y15.24
X17.78Y-80.01
X24.963Y-60.98
X26.67Y15.24
X26.67Y-3.81
X26.67Y-80.01
X27.299Y-22.86
X31.52Y-41.902
X36.183Y-22.843
X36.83Y15.24
X36.83Y-3.81
X36.83Y-80.01
X41.03Y-60.917
X41.68Y-41.902
X45.72Y15.24
X45.72Y-3.81
X45.72Y-80.01
X46.343Y-22.843
X50.57Y-41.875
X51.19Y-60.917
X55.233Y-22.843
X55.88Y15.24
X55.88Y-3.81
X55.88Y-80.01
X60.092Y-60.871
X60.73Y-41.875
X64.77Y15.24
X64.77Y-3.81
X64.77Y-80.01
X65.393Y-22.843
X69.62Y-41.875
X70.252Y-60.871
X74.283Y-22.843
X74.93Y15.24
X74.93Y-3.81
X74.93Y-80.01
X79.142Y-60.871
X79.78Y-41.875
X83.82Y15.24
X83.82Y-3.81
X84.443Y-22.843
X88.67Y-41.875
X89.302Y-60.871
X93.333Y-22.843
X93.98Y15.24
X93.98Y-3.81
X98.192Y-60.871
X98.83Y-41.875
X102.87Y15.24
X102.87Y-3.81
X103.493Y-22.843
X107.741Y-41.867
X108.352Y-60.871
X112.383Y-22.843
X113.03Y15.24
X113.03Y-3.81
X117.188Y-60.854
X117.901Y-41.867
X121.92Y15.24
X121.92Y-3.81
X122.543Y-22.843
X126.791Y-41.84
X127.348Y-60.854
X131.433Y-22.843
X132.08Y15.24
X132.08Y-3.81
X133.801Y-80.066
X133.801Y-80.066
X136.278Y-60.92
X136.951Y-41.84
X140.97Y15.24
X140.97Y-3.81
X141.593Y-22.843
X143.961Y-80.066
X143.961Y-80.066
X146.05Y-41.91
X146.438Y-60.92
X150.472Y-22.889
X151.13Y15.24
X151.13Y-3.81
X155.332Y-60.915
X156.21Y-41.91
X160.02Y15.24
X160.02Y-3.81
X160.632Y-22.889
X164.855Y-41.843
X165.492Y-60.915
X169.419Y-22.854
X170.18Y15.24
X170.18Y-3.81
X174.371Y-60.96
X175.015Y-41.843
X179.07Y15.24
X179.07Y-3.81
X179.579Y-22.854
X183.871Y-41.881
X184.531Y-60.96
X188.469Y-22.854
X189.23Y15.24
X189.23Y-3.81
X193.421Y-60.96
X194.031Y-41.881
X198.12Y15.24
X198.12Y-3.81
X198.629Y-22.854
X202.94Y-41.91
X203.581Y-60.96
X205.226Y-80.01
X207.52Y-22.854
X208.28Y15.24
X208.28Y-3.81
X212.471Y-60.96
X213.1Y-41.91
X215.386Y-80.01
X217.17Y15.24
X217.17Y-3.81
X217.68Y-22.854
X222.008Y-41.992
X222.631Y-60.96
X226.57Y-22.854
X227.33Y15.24
X227.33Y-3.81
X229.108Y-80.01
X232.168Y-41.992
X236.22Y15.24
X236.22Y-3.81
X236.73Y-22.854
X239.268Y-80.01
X243.431Y-60.997
X243.431Y-60.997
X246.38Y15.24
X246.38Y-3.81
X248.172Y-41.958
X250.444Y-22.86
X252.94Y-80.036
X253.591Y-60.997
X253.591Y-60.997
X255.27Y15.24
X255.27Y-3.81
X258.332Y-41.958
X260.604Y-22.86
X263.1Y-80.036
X265.43Y15.24
X265.43Y-3.81
T3
X-29.21Y12.7
X-29.21Y-6.35
X-29.21Y-25.4
X-29.21Y-44.45
X-29.21Y-63.5
X-29.21Y-82.55
X-22.86Y10.16
X-22.86Y-8.89
X-22.86Y-27.94
X-22.86Y-46.99
X-22.86Y-66.04
X-22.86Y-85.09
X-10.16Y12.7
X-10.16Y-82.55
X-10.134Y-63.483
X-5.34Y-25.4
X-3.81Y10.16
X-3.81Y-85.09
X-3.784Y-66.023
X-0.666Y-6.342
X1.01Y-27.94
X1.85Y-44.457
X5.684Y-8.882
X8.2Y-46.997
X8.89Y12.7
X8.89Y-82.55
X15.24Y10.16
X15.24Y-85.09
X16.073Y-63.52
X18.409Y-25.4
X22.423Y-66.06
X24.759Y-27.94
X27.94Y12.7
X27.94Y-6.35
X27.94Y-82.55
X32.79Y-44.442
X34.29Y10.16
X34.29Y-8.89
X34.29Y-85.09
X37.453Y-25.383
X39.14Y-46.982
X42.3Y-63.457
X43.803Y-27.923
X46.99Y12.7
X46.99Y-6.35
X46.99Y-82.55
X48.65Y-65.997
X51.84Y-44.415
X53.34Y10.16
X53.34Y-8.89
X53.34Y-85.09
X56.503Y-25.383
X58.19Y-46.955
X61.362Y-63.411
X62.853Y-27.923
X66.04Y12.7
X66.04Y-6.35
X66.04Y-82.55
X67.712Y-65.951
X70.89Y-44.415
X72.39Y10.16
X72.39Y-8.89
X72.39Y-85.09
X75.553Y-25.383
X77.24Y-46.955
X80.412Y-63.411
X81.903Y-27.923
X85.09Y12.7
X85.09Y-6.35
X86.762Y-65.951
X89.94Y-44.415
X91.44Y10.16
X91.44Y-8.89
X94.603Y-25.383
X96.29Y-46.955
X99.462Y-63.411
X100.953Y-27.923
X104.14Y12.7
X104.14Y-6.35
X105.812Y-65.951
X109.011Y-44.407
X110.49Y10.16
X110.49Y-8.89
X113.653Y-25.383
X115.361Y-46.947
X118.458Y-63.394
X120.003Y-27.923
X123.19Y12.7
X123.19Y-6.35
X124.808Y-65.934
X128.061Y-44.38
X129.54Y10.16
X129.54Y-8.89
X132.703Y-25.383
X134.411Y-46.92
X135.071Y-82.606
X137.548Y-63.46
X139.053Y-27.923
X141.421Y-85.146
X142.24Y12.7
X142.24Y-6.35
X143.898Y-66.0
X147.32Y-44.45
X148.59Y10.16
X148.59Y-8.89
X151.742Y-25.429
X153.67Y-46.99
X156.602Y-63.455
X158.092Y-27.969
X161.29Y12.7
X161.29Y-6.35
X162.952Y-65.995
X166.125Y-44.383
X167.64Y10.16
X167.64Y-8.89
X170.689Y-25.394
X172.475Y-46.923
X175.641Y-63.5
X177.039Y-27.934
X180.34Y12.7
X180.34Y-6.35
X181.991Y-66.04
X185.141Y-44.421
X186.69Y10.16
X186.69Y-8.89
X189.739Y-25.394
X191.491Y-46.961
X194.691Y-63.5
X196.089Y-27.934
X199.39Y12.7
X199.39Y-6.35
X201.041Y-66.04
X204.21Y-44.45
X205.74Y10.16
X205.74Y-8.89
X206.496Y-82.55
X208.79Y-25.394
X210.56Y-46.99
X212.846Y-85.09
X213.741Y-63.5
X215.14Y-27.934
X218.44Y12.7
X218.44Y-6.35
X220.091Y-66.04
X223.278Y-44.532
X224.79Y10.16
X224.79Y-8.89
X227.84Y-25.394
X229.628Y-47.072
X230.378Y-82.55
X234.19Y-27.934
X236.728Y-85.09
X237.49Y12.7
X237.49Y-6.35
X243.84Y10.16
X243.84Y-8.89
X244.701Y-63.537
X249.442Y-44.498
X251.051Y-66.077
X251.714Y-25.4
X254.21Y-82.576
X255.792Y-47.038
X256.54Y12.7
X256.54Y-6.35
X258.064Y-27.94
X260.56Y-85.116
X262.89Y10.16
X262.89Y-8.89
T4
X285.562Y-16.18
X285.567Y22.606
X353.563Y22.616
X353.573Y-16.18
T5
X-8.756Y-10.802
X-6.24Y-48.917
X15.044Y-10.802
X17.56Y-48.917
X88.881Y-87.066
X188.881Y-87.066
X236.611Y-67.997
X260.411Y-67.997
T6
X-25.4Y15.24
X-25.4Y-3.81
X-25.4Y-22.86
X-25.4Y-41.91
X-25.4Y-60.96
X-25.4Y-80.01
X-8.756Y4.438
X-6.35Y15.24
X-6.35Y-80.01
X-6.324Y-60.943
X-6.24Y-33.677
X-1.53Y-22.86
X3.144Y-3.802
X3.144Y-3.802
X5.66Y-41.917
X5.66Y-41.917
X12.7Y15.24
X12.7Y-80.01
X15.044Y4.438
X17.56Y-33.677
X19.883Y-60.98
X22.219Y-22.86
X31.75Y15.24
X31.75Y-3.81
X31.75Y-80.01
X36.6Y-41.902
X41.263Y-22.843
X46.11Y-60.917
X50.8Y15.24
X50.8Y-3.81
X50.8Y-80.01
X55.65Y-41.875
X60.313Y-22.843
X65.172Y-60.871
X69.85Y15.24
X69.85Y-3.81
X69.85Y-80.01
X74.7Y-41.875
X79.363Y-22.843
X84.222Y-60.871
X88.881Y-71.826
X88.9Y15.24
X88.9Y-3.81
X93.75Y-41.875
X98.413Y-22.843
X103.272Y-60.871
X107.95Y15.24
X107.95Y-3.81
X112.821Y-41.867
X117.463Y-22.843
X122.268Y-60.854
X127.0Y15.24
X127.0Y-3.81
X131.871Y-41.84
X136.513Y-22.843
X138.881Y-80.066
X138.881Y-80.066
X141.358Y-60.92
X146.05Y15.24
X146.05Y-3.81
X151.13Y-41.91
X155.552Y-22.889
X160.412Y-60.915
X165.1Y15.24
X165.1Y-3.81
X169.935Y-41.843
X174.499Y-22.854
X179.451Y-60.96
X184.15Y15.24
X184.15Y-3.81
X188.881Y-71.826
X188.951Y-41.881
X193.549Y-22.854
X198.501Y-60.96
X203.2Y15.24
X203.2Y-3.81
X208.02Y-41.91
X210.306Y-80.01
X212.6Y-22.854
X217.551Y-60.96
X222.25Y15.24
X222.25Y-3.81
X227.088Y-41.992
X231.65Y-22.854
X234.188Y-80.01
X236.611Y-52.757
X241.3Y15.24
X241.3Y-3.81
X248.511Y-60.997
X248.511Y-60.997
X253.252Y-41.958
X255.524Y-22.86
X258.02Y-80.036
X260.35Y15.24
X260.35Y-3.81
X260.411Y-52.757
T0
M30
