%FSLAX45Y45*%
G04 Gerber Fmt 4.5, Leading zero omitted, Abs format (unit mm)*
G04 Created by KiCad (PCBNEW (5.1.12)-1) date 2022-01-08 21:53:54*
%MOMM*%
%LPD*%
G01*
G04 APERTURE LIST*
%TA.AperFunction,Profile*%
%ADD10C,0.050000*%
%TD*%
%ADD11C,0.200000*%
%ADD12C,0.300000*%
G04 APERTURE END LIST*
D10*
X-4064000Y-9652000D02*
X36322000Y-9652000D01*
X-4064000Y3556000D02*
X-4064000Y-9652000D01*
X36322000Y3556000D02*
X-4064000Y3556000D01*
X36322000Y-9652000D02*
X36322000Y3556000D01*
X-1315770Y2489200D02*
G75*
G03*
X-1315770Y2489200I-259030J0D01*
G01*
X32771030Y-7518400D02*
G75*
G03*
X32771030Y-7518400I-259030J0D01*
G01*
X24389030Y-3657600D02*
G75*
G03*
X24389030Y-3657600I-259030J0D01*
G01*
X3510230Y-6756400D02*
G75*
G03*
X3510230Y-6756400I-259030J0D01*
G01*
D11*
X31682500Y2820500D02*
X31747500Y2755500D01*
X31747500Y2820500D02*
X31682500Y2755500D01*
X32260500Y2820500D02*
X32325500Y2755500D01*
X32325500Y2820500D02*
X32260500Y2755500D01*
X-2963000Y1524000D02*
G75*
G03*
X-2963000Y1524000I-85000J0D01*
G01*
X-2963000Y-381000D02*
G75*
G03*
X-2963000Y-381000I-85000J0D01*
G01*
X-2963000Y-2286000D02*
G75*
G03*
X-2963000Y-2286000I-85000J0D01*
G01*
X-2963000Y-4191000D02*
G75*
G03*
X-2963000Y-4191000I-85000J0D01*
G01*
X-2963000Y-6096000D02*
G75*
G03*
X-2963000Y-6096000I-85000J0D01*
G01*
X-2963000Y-8001000D02*
G75*
G03*
X-2963000Y-8001000I-85000J0D01*
G01*
X-1947000Y1524000D02*
G75*
G03*
X-1947000Y1524000I-85000J0D01*
G01*
X-1947000Y-381000D02*
G75*
G03*
X-1947000Y-381000I-85000J0D01*
G01*
X-1947000Y-2286000D02*
G75*
G03*
X-1947000Y-2286000I-85000J0D01*
G01*
X-1947000Y-4191000D02*
G75*
G03*
X-1947000Y-4191000I-85000J0D01*
G01*
X-1947000Y-6096000D02*
G75*
G03*
X-1947000Y-6096000I-85000J0D01*
G01*
X-1947000Y-8001000D02*
G75*
G03*
X-1947000Y-8001000I-85000J0D01*
G01*
X-1058000Y1524000D02*
G75*
G03*
X-1058000Y1524000I-85000J0D01*
G01*
X-1058000Y-8001000D02*
G75*
G03*
X-1058000Y-8001000I-85000J0D01*
G01*
X-1055400Y-6094270D02*
G75*
G03*
X-1055400Y-6094270I-85000J0D01*
G01*
X-576000Y-2286000D02*
G75*
G03*
X-576000Y-2286000I-85000J0D01*
G01*
X-108594Y-380220D02*
G75*
G03*
X-108594Y-380220I-85000J0D01*
G01*
X-108594Y-380220D02*
G75*
G03*
X-108594Y-380220I-85000J0D01*
G01*
X-42000Y1524000D02*
G75*
G03*
X-42000Y1524000I-85000J0D01*
G01*
X-42000Y-8001000D02*
G75*
G03*
X-42000Y-8001000I-85000J0D01*
G01*
X-39400Y-6094270D02*
G75*
G03*
X-39400Y-6094270I-85000J0D01*
G01*
X142993Y-4191663D02*
G75*
G03*
X142993Y-4191663I-85000J0D01*
G01*
X142993Y-4191663D02*
G75*
G03*
X142993Y-4191663I-85000J0D01*
G01*
X440000Y-2286000D02*
G75*
G03*
X440000Y-2286000I-85000J0D01*
G01*
X847000Y1524000D02*
G75*
G03*
X847000Y1524000I-85000J0D01*
G01*
X847000Y-8001000D02*
G75*
G03*
X847000Y-8001000I-85000J0D01*
G01*
X907406Y-380220D02*
G75*
G03*
X907406Y-380220I-85000J0D01*
G01*
X907406Y-380220D02*
G75*
G03*
X907406Y-380220I-85000J0D01*
G01*
X1158993Y-4191663D02*
G75*
G03*
X1158993Y-4191663I-85000J0D01*
G01*
X1158993Y-4191663D02*
G75*
G03*
X1158993Y-4191663I-85000J0D01*
G01*
X1565308Y-6097966D02*
G75*
G03*
X1565308Y-6097966I-85000J0D01*
G01*
X1798900Y-2286000D02*
G75*
G03*
X1798900Y-2286000I-85000J0D01*
G01*
X1863000Y1524000D02*
G75*
G03*
X1863000Y1524000I-85000J0D01*
G01*
X1863000Y-8001000D02*
G75*
G03*
X1863000Y-8001000I-85000J0D01*
G01*
X2581308Y-6097966D02*
G75*
G03*
X2581308Y-6097966I-85000J0D01*
G01*
X2752000Y1524000D02*
G75*
G03*
X2752000Y1524000I-85000J0D01*
G01*
X2752000Y-381000D02*
G75*
G03*
X2752000Y-381000I-85000J0D01*
G01*
X2752000Y-8001000D02*
G75*
G03*
X2752000Y-8001000I-85000J0D01*
G01*
X2814900Y-2286000D02*
G75*
G03*
X2814900Y-2286000I-85000J0D01*
G01*
X3236978Y-4190209D02*
G75*
G03*
X3236978Y-4190209I-85000J0D01*
G01*
X3703266Y-2284270D02*
G75*
G03*
X3703266Y-2284270I-85000J0D01*
G01*
X3768000Y1524000D02*
G75*
G03*
X3768000Y1524000I-85000J0D01*
G01*
X3768000Y-381000D02*
G75*
G03*
X3768000Y-381000I-85000J0D01*
G01*
X3768000Y-8001000D02*
G75*
G03*
X3768000Y-8001000I-85000J0D01*
G01*
X4187977Y-6091719D02*
G75*
G03*
X4187977Y-6091719I-85000J0D01*
G01*
X4252978Y-4190209D02*
G75*
G03*
X4252978Y-4190209I-85000J0D01*
G01*
X4657000Y1524000D02*
G75*
G03*
X4657000Y1524000I-85000J0D01*
G01*
X4657000Y-381000D02*
G75*
G03*
X4657000Y-381000I-85000J0D01*
G01*
X4657000Y-8001000D02*
G75*
G03*
X4657000Y-8001000I-85000J0D01*
G01*
X4719266Y-2284270D02*
G75*
G03*
X4719266Y-2284270I-85000J0D01*
G01*
X5141978Y-4187501D02*
G75*
G03*
X5141978Y-4187501I-85000J0D01*
G01*
X5203977Y-6091719D02*
G75*
G03*
X5203977Y-6091719I-85000J0D01*
G01*
X5608266Y-2284270D02*
G75*
G03*
X5608266Y-2284270I-85000J0D01*
G01*
X5673000Y1524000D02*
G75*
G03*
X5673000Y1524000I-85000J0D01*
G01*
X5673000Y-381000D02*
G75*
G03*
X5673000Y-381000I-85000J0D01*
G01*
X5673000Y-8001000D02*
G75*
G03*
X5673000Y-8001000I-85000J0D01*
G01*
X6094198Y-6087115D02*
G75*
G03*
X6094198Y-6087115I-85000J0D01*
G01*
X6157978Y-4187501D02*
G75*
G03*
X6157978Y-4187501I-85000J0D01*
G01*
X6562000Y1524000D02*
G75*
G03*
X6562000Y1524000I-85000J0D01*
G01*
X6562000Y-381000D02*
G75*
G03*
X6562000Y-381000I-85000J0D01*
G01*
X6562000Y-8001000D02*
G75*
G03*
X6562000Y-8001000I-85000J0D01*
G01*
X6624266Y-2284270D02*
G75*
G03*
X6624266Y-2284270I-85000J0D01*
G01*
X7046978Y-4187501D02*
G75*
G03*
X7046978Y-4187501I-85000J0D01*
G01*
X7110198Y-6087115D02*
G75*
G03*
X7110198Y-6087115I-85000J0D01*
G01*
X7513266Y-2284270D02*
G75*
G03*
X7513266Y-2284270I-85000J0D01*
G01*
X7578000Y1524000D02*
G75*
G03*
X7578000Y1524000I-85000J0D01*
G01*
X7578000Y-381000D02*
G75*
G03*
X7578000Y-381000I-85000J0D01*
G01*
X7578000Y-8001000D02*
G75*
G03*
X7578000Y-8001000I-85000J0D01*
G01*
X7999198Y-6087115D02*
G75*
G03*
X7999198Y-6087115I-85000J0D01*
G01*
X8062978Y-4187501D02*
G75*
G03*
X8062978Y-4187501I-85000J0D01*
G01*
X8467000Y1524000D02*
G75*
G03*
X8467000Y1524000I-85000J0D01*
G01*
X8467000Y-381000D02*
G75*
G03*
X8467000Y-381000I-85000J0D01*
G01*
X8529266Y-2284270D02*
G75*
G03*
X8529266Y-2284270I-85000J0D01*
G01*
X8951978Y-4187501D02*
G75*
G03*
X8951978Y-4187501I-85000J0D01*
G01*
X9015198Y-6087115D02*
G75*
G03*
X9015198Y-6087115I-85000J0D01*
G01*
X9418266Y-2284270D02*
G75*
G03*
X9418266Y-2284270I-85000J0D01*
G01*
X9483000Y1524000D02*
G75*
G03*
X9483000Y1524000I-85000J0D01*
G01*
X9483000Y-381000D02*
G75*
G03*
X9483000Y-381000I-85000J0D01*
G01*
X9904198Y-6087115D02*
G75*
G03*
X9904198Y-6087115I-85000J0D01*
G01*
X9967978Y-4187501D02*
G75*
G03*
X9967978Y-4187501I-85000J0D01*
G01*
X10372000Y1524000D02*
G75*
G03*
X10372000Y1524000I-85000J0D01*
G01*
X10372000Y-381000D02*
G75*
G03*
X10372000Y-381000I-85000J0D01*
G01*
X10434266Y-2284270D02*
G75*
G03*
X10434266Y-2284270I-85000J0D01*
G01*
X10859145Y-4186711D02*
G75*
G03*
X10859145Y-4186711I-85000J0D01*
G01*
X10920198Y-6087115D02*
G75*
G03*
X10920198Y-6087115I-85000J0D01*
G01*
X11323266Y-2284270D02*
G75*
G03*
X11323266Y-2284270I-85000J0D01*
G01*
X11388000Y1524000D02*
G75*
G03*
X11388000Y1524000I-85000J0D01*
G01*
X11388000Y-381000D02*
G75*
G03*
X11388000Y-381000I-85000J0D01*
G01*
X11803828Y-6085386D02*
G75*
G03*
X11803828Y-6085386I-85000J0D01*
G01*
X11875145Y-4186711D02*
G75*
G03*
X11875145Y-4186711I-85000J0D01*
G01*
X12277000Y1524000D02*
G75*
G03*
X12277000Y1524000I-85000J0D01*
G01*
X12277000Y-381000D02*
G75*
G03*
X12277000Y-381000I-85000J0D01*
G01*
X12339266Y-2284270D02*
G75*
G03*
X12339266Y-2284270I-85000J0D01*
G01*
X12764145Y-4184003D02*
G75*
G03*
X12764145Y-4184003I-85000J0D01*
G01*
X12819828Y-6085386D02*
G75*
G03*
X12819828Y-6085386I-85000J0D01*
G01*
X13228266Y-2284270D02*
G75*
G03*
X13228266Y-2284270I-85000J0D01*
G01*
X13293000Y1524000D02*
G75*
G03*
X13293000Y1524000I-85000J0D01*
G01*
X13293000Y-381000D02*
G75*
G03*
X13293000Y-381000I-85000J0D01*
G01*
X13465068Y-8006571D02*
G75*
G03*
X13465068Y-8006571I-85000J0D01*
G01*
X13465068Y-8006571D02*
G75*
G03*
X13465068Y-8006571I-85000J0D01*
G01*
X13712809Y-6092030D02*
G75*
G03*
X13712809Y-6092030I-85000J0D01*
G01*
X13780145Y-4184003D02*
G75*
G03*
X13780145Y-4184003I-85000J0D01*
G01*
X14182000Y1524000D02*
G75*
G03*
X14182000Y1524000I-85000J0D01*
G01*
X14182000Y-381000D02*
G75*
G03*
X14182000Y-381000I-85000J0D01*
G01*
X14244266Y-2284270D02*
G75*
G03*
X14244266Y-2284270I-85000J0D01*
G01*
X14481068Y-8006571D02*
G75*
G03*
X14481068Y-8006571I-85000J0D01*
G01*
X14481068Y-8006571D02*
G75*
G03*
X14481068Y-8006571I-85000J0D01*
G01*
X14690000Y-4191000D02*
G75*
G03*
X14690000Y-4191000I-85000J0D01*
G01*
X14728809Y-6092030D02*
G75*
G03*
X14728809Y-6092030I-85000J0D01*
G01*
X15132189Y-2288949D02*
G75*
G03*
X15132189Y-2288949I-85000J0D01*
G01*
X15198000Y1524000D02*
G75*
G03*
X15198000Y1524000I-85000J0D01*
G01*
X15198000Y-381000D02*
G75*
G03*
X15198000Y-381000I-85000J0D01*
G01*
X15618202Y-6091452D02*
G75*
G03*
X15618202Y-6091452I-85000J0D01*
G01*
X15706000Y-4191000D02*
G75*
G03*
X15706000Y-4191000I-85000J0D01*
G01*
X16087000Y1524000D02*
G75*
G03*
X16087000Y1524000I-85000J0D01*
G01*
X16087000Y-381000D02*
G75*
G03*
X16087000Y-381000I-85000J0D01*
G01*
X16148189Y-2288949D02*
G75*
G03*
X16148189Y-2288949I-85000J0D01*
G01*
X16570480Y-4184297D02*
G75*
G03*
X16570480Y-4184297I-85000J0D01*
G01*
X16634202Y-6091452D02*
G75*
G03*
X16634202Y-6091452I-85000J0D01*
G01*
X17026885Y-2285387D02*
G75*
G03*
X17026885Y-2285387I-85000J0D01*
G01*
X17103000Y1524000D02*
G75*
G03*
X17103000Y1524000I-85000J0D01*
G01*
X17103000Y-381000D02*
G75*
G03*
X17103000Y-381000I-85000J0D01*
G01*
X17522100Y-6096000D02*
G75*
G03*
X17522100Y-6096000I-85000J0D01*
G01*
X17586480Y-4184297D02*
G75*
G03*
X17586480Y-4184297I-85000J0D01*
G01*
X17992000Y1524000D02*
G75*
G03*
X17992000Y1524000I-85000J0D01*
G01*
X17992000Y-381000D02*
G75*
G03*
X17992000Y-381000I-85000J0D01*
G01*
X18042885Y-2285387D02*
G75*
G03*
X18042885Y-2285387I-85000J0D01*
G01*
X18472095Y-4188108D02*
G75*
G03*
X18472095Y-4188108I-85000J0D01*
G01*
X18538100Y-6096000D02*
G75*
G03*
X18538100Y-6096000I-85000J0D01*
G01*
X18931924Y-2285387D02*
G75*
G03*
X18931924Y-2285387I-85000J0D01*
G01*
X19008000Y1524000D02*
G75*
G03*
X19008000Y1524000I-85000J0D01*
G01*
X19008000Y-381000D02*
G75*
G03*
X19008000Y-381000I-85000J0D01*
G01*
X19427100Y-6096000D02*
G75*
G03*
X19427100Y-6096000I-85000J0D01*
G01*
X19488095Y-4188108D02*
G75*
G03*
X19488095Y-4188108I-85000J0D01*
G01*
X19897000Y1524000D02*
G75*
G03*
X19897000Y1524000I-85000J0D01*
G01*
X19897000Y-381000D02*
G75*
G03*
X19897000Y-381000I-85000J0D01*
G01*
X19947924Y-2285387D02*
G75*
G03*
X19947924Y-2285387I-85000J0D01*
G01*
X20379000Y-4191000D02*
G75*
G03*
X20379000Y-4191000I-85000J0D01*
G01*
X20443100Y-6096000D02*
G75*
G03*
X20443100Y-6096000I-85000J0D01*
G01*
X20607600Y-8001000D02*
G75*
G03*
X20607600Y-8001000I-85000J0D01*
G01*
X20836962Y-2285387D02*
G75*
G03*
X20836962Y-2285387I-85000J0D01*
G01*
X20913000Y1524000D02*
G75*
G03*
X20913000Y1524000I-85000J0D01*
G01*
X20913000Y-381000D02*
G75*
G03*
X20913000Y-381000I-85000J0D01*
G01*
X21332100Y-6096000D02*
G75*
G03*
X21332100Y-6096000I-85000J0D01*
G01*
X21395000Y-4191000D02*
G75*
G03*
X21395000Y-4191000I-85000J0D01*
G01*
X21623600Y-8001000D02*
G75*
G03*
X21623600Y-8001000I-85000J0D01*
G01*
X21802000Y1524000D02*
G75*
G03*
X21802000Y1524000I-85000J0D01*
G01*
X21802000Y-381000D02*
G75*
G03*
X21802000Y-381000I-85000J0D01*
G01*
X21852962Y-2285387D02*
G75*
G03*
X21852962Y-2285387I-85000J0D01*
G01*
X22285777Y-4199231D02*
G75*
G03*
X22285777Y-4199231I-85000J0D01*
G01*
X22348100Y-6096000D02*
G75*
G03*
X22348100Y-6096000I-85000J0D01*
G01*
X22742000Y-2285387D02*
G75*
G03*
X22742000Y-2285387I-85000J0D01*
G01*
X22818000Y1524000D02*
G75*
G03*
X22818000Y1524000I-85000J0D01*
G01*
X22818000Y-381000D02*
G75*
G03*
X22818000Y-381000I-85000J0D01*
G01*
X22995800Y-8001000D02*
G75*
G03*
X22995800Y-8001000I-85000J0D01*
G01*
X23301777Y-4199231D02*
G75*
G03*
X23301777Y-4199231I-85000J0D01*
G01*
X23707000Y1524000D02*
G75*
G03*
X23707000Y1524000I-85000J0D01*
G01*
X23707000Y-381000D02*
G75*
G03*
X23707000Y-381000I-85000J0D01*
G01*
X23758000Y-2285387D02*
G75*
G03*
X23758000Y-2285387I-85000J0D01*
G01*
X24011800Y-8001000D02*
G75*
G03*
X24011800Y-8001000I-85000J0D01*
G01*
X24428071Y-6099743D02*
G75*
G03*
X24428071Y-6099743I-85000J0D01*
G01*
X24428071Y-6099743D02*
G75*
G03*
X24428071Y-6099743I-85000J0D01*
G01*
X24723000Y1524000D02*
G75*
G03*
X24723000Y1524000I-85000J0D01*
G01*
X24723000Y-381000D02*
G75*
G03*
X24723000Y-381000I-85000J0D01*
G01*
X24902249Y-4195792D02*
G75*
G03*
X24902249Y-4195792I-85000J0D01*
G01*
X25129400Y-2286000D02*
G75*
G03*
X25129400Y-2286000I-85000J0D01*
G01*
X25378966Y-8003567D02*
G75*
G03*
X25378966Y-8003567I-85000J0D01*
G01*
X25444071Y-6099743D02*
G75*
G03*
X25444071Y-6099743I-85000J0D01*
G01*
X25444071Y-6099743D02*
G75*
G03*
X25444071Y-6099743I-85000J0D01*
G01*
X25612000Y1524000D02*
G75*
G03*
X25612000Y1524000I-85000J0D01*
G01*
X25612000Y-381000D02*
G75*
G03*
X25612000Y-381000I-85000J0D01*
G01*
X25918249Y-4195792D02*
G75*
G03*
X25918249Y-4195792I-85000J0D01*
G01*
X26145400Y-2286000D02*
G75*
G03*
X26145400Y-2286000I-85000J0D01*
G01*
X26394966Y-8003567D02*
G75*
G03*
X26394966Y-8003567I-85000J0D01*
G01*
X26628000Y1524000D02*
G75*
G03*
X26628000Y1524000I-85000J0D01*
G01*
X26628000Y-381000D02*
G75*
G03*
X26628000Y-381000I-85000J0D01*
G01*
X-2921000Y1417500D02*
X-2921000Y1122500D01*
X-3068500Y1270000D02*
X-2773500Y1270000D01*
X-2921000Y-487500D02*
X-2921000Y-782500D01*
X-3068500Y-635000D02*
X-2773500Y-635000D01*
X-2921000Y-2392500D02*
X-2921000Y-2687500D01*
X-3068500Y-2540000D02*
X-2773500Y-2540000D01*
X-2921000Y-4297500D02*
X-2921000Y-4592500D01*
X-3068500Y-4445000D02*
X-2773500Y-4445000D01*
X-2921000Y-6202500D02*
X-2921000Y-6497500D01*
X-3068500Y-6350000D02*
X-2773500Y-6350000D01*
X-2921000Y-8107500D02*
X-2921000Y-8402500D01*
X-3068500Y-8255000D02*
X-2773500Y-8255000D01*
X-2286000Y1163500D02*
X-2286000Y868500D01*
X-2433500Y1016000D02*
X-2138500Y1016000D01*
X-2286000Y-741500D02*
X-2286000Y-1036500D01*
X-2433500Y-889000D02*
X-2138500Y-889000D01*
X-2286000Y-2646500D02*
X-2286000Y-2941500D01*
X-2433500Y-2794000D02*
X-2138500Y-2794000D01*
X-2286000Y-4551500D02*
X-2286000Y-4846500D01*
X-2433500Y-4699000D02*
X-2138500Y-4699000D01*
X-2286000Y-6456500D02*
X-2286000Y-6751500D01*
X-2433500Y-6604000D02*
X-2138500Y-6604000D01*
X-2286000Y-8361500D02*
X-2286000Y-8656500D01*
X-2433500Y-8509000D02*
X-2138500Y-8509000D01*
X-1016000Y1417500D02*
X-1016000Y1122500D01*
X-1163500Y1270000D02*
X-868500Y1270000D01*
X-1016000Y-8107500D02*
X-1016000Y-8402500D01*
X-1163500Y-8255000D02*
X-868500Y-8255000D01*
X-1013400Y-6200770D02*
X-1013400Y-6495770D01*
X-1160900Y-6348270D02*
X-865900Y-6348270D01*
X-534000Y-2392500D02*
X-534000Y-2687500D01*
X-681500Y-2540000D02*
X-386500Y-2540000D01*
X-381000Y1163500D02*
X-381000Y868500D01*
X-528500Y1016000D02*
X-233500Y1016000D01*
X-381000Y-8361500D02*
X-381000Y-8656500D01*
X-528500Y-8509000D02*
X-233500Y-8509000D01*
X-378400Y-6454770D02*
X-378400Y-6749770D01*
X-525900Y-6602270D02*
X-230900Y-6602270D01*
X-66594Y-486720D02*
X-66594Y-781720D01*
X-214094Y-634220D02*
X80906Y-634220D01*
X101000Y-2646500D02*
X101000Y-2941500D01*
X-46500Y-2794000D02*
X248500Y-2794000D01*
X184993Y-4298164D02*
X184993Y-4593164D01*
X37493Y-4445664D02*
X332493Y-4445664D01*
X568406Y-740720D02*
X568406Y-1035720D01*
X420906Y-888220D02*
X715906Y-888220D01*
X819993Y-4552164D02*
X819993Y-4847164D01*
X672493Y-4699664D02*
X967493Y-4699664D01*
X889000Y1417500D02*
X889000Y1122500D01*
X741500Y1270000D02*
X1036500Y1270000D01*
X889000Y-8107500D02*
X889000Y-8402500D01*
X741500Y-8255000D02*
X1036500Y-8255000D01*
X1524000Y1163500D02*
X1524000Y868500D01*
X1376500Y1016000D02*
X1671500Y1016000D01*
X1524000Y-8361500D02*
X1524000Y-8656500D01*
X1376500Y-8509000D02*
X1671500Y-8509000D01*
X1607308Y-6204466D02*
X1607308Y-6499466D01*
X1459808Y-6351966D02*
X1754808Y-6351966D01*
X1840900Y-2392500D02*
X1840900Y-2687500D01*
X1693400Y-2540000D02*
X1988400Y-2540000D01*
X2242308Y-6458466D02*
X2242308Y-6753466D01*
X2094808Y-6605966D02*
X2389808Y-6605966D01*
X2475900Y-2646500D02*
X2475900Y-2941500D01*
X2328400Y-2794000D02*
X2623400Y-2794000D01*
X2794000Y1417500D02*
X2794000Y1122500D01*
X2646500Y1270000D02*
X2941500Y1270000D01*
X2794000Y-487500D02*
X2794000Y-782500D01*
X2646500Y-635000D02*
X2941500Y-635000D01*
X2794000Y-8107500D02*
X2794000Y-8402500D01*
X2646500Y-8255000D02*
X2941500Y-8255000D01*
X3278978Y-4296710D02*
X3278978Y-4591710D01*
X3131478Y-4444210D02*
X3426478Y-4444210D01*
X3429000Y1163500D02*
X3429000Y868500D01*
X3281500Y1016000D02*
X3576500Y1016000D01*
X3429000Y-741500D02*
X3429000Y-1036500D01*
X3281500Y-889000D02*
X3576500Y-889000D01*
X3429000Y-8361500D02*
X3429000Y-8656500D01*
X3281500Y-8509000D02*
X3576500Y-8509000D01*
X3745266Y-2390770D02*
X3745266Y-2685770D01*
X3597766Y-2538270D02*
X3892766Y-2538270D01*
X3913978Y-4550710D02*
X3913978Y-4845710D01*
X3766478Y-4698210D02*
X4061478Y-4698210D01*
X4229977Y-6198219D02*
X4229977Y-6493219D01*
X4082477Y-6345719D02*
X4377477Y-6345719D01*
X4380266Y-2644770D02*
X4380266Y-2939770D01*
X4232766Y-2792270D02*
X4527766Y-2792270D01*
X4699000Y1417500D02*
X4699000Y1122500D01*
X4551500Y1270000D02*
X4846500Y1270000D01*
X4699000Y-487500D02*
X4699000Y-782500D01*
X4551500Y-635000D02*
X4846500Y-635000D01*
X4699000Y-8107500D02*
X4699000Y-8402500D01*
X4551500Y-8255000D02*
X4846500Y-8255000D01*
X4864977Y-6452219D02*
X4864977Y-6747219D01*
X4717477Y-6599719D02*
X5012477Y-6599719D01*
X5183978Y-4294001D02*
X5183978Y-4589001D01*
X5036478Y-4441501D02*
X5331478Y-4441501D01*
X5334000Y1163500D02*
X5334000Y868500D01*
X5186500Y1016000D02*
X5481500Y1016000D01*
X5334000Y-741500D02*
X5334000Y-1036500D01*
X5186500Y-889000D02*
X5481500Y-889000D01*
X5334000Y-8361500D02*
X5334000Y-8656500D01*
X5186500Y-8509000D02*
X5481500Y-8509000D01*
X5650266Y-2390770D02*
X5650266Y-2685770D01*
X5502766Y-2538270D02*
X5797766Y-2538270D01*
X5818978Y-4548001D02*
X5818978Y-4843001D01*
X5671478Y-4695501D02*
X5966478Y-4695501D01*
X6136198Y-6193615D02*
X6136198Y-6488615D01*
X5988698Y-6341115D02*
X6283698Y-6341115D01*
X6285266Y-2644770D02*
X6285266Y-2939770D01*
X6137766Y-2792270D02*
X6432766Y-2792270D01*
X6604000Y1417500D02*
X6604000Y1122500D01*
X6456500Y1270000D02*
X6751500Y1270000D01*
X6604000Y-487500D02*
X6604000Y-782500D01*
X6456500Y-635000D02*
X6751500Y-635000D01*
X6604000Y-8107500D02*
X6604000Y-8402500D01*
X6456500Y-8255000D02*
X6751500Y-8255000D01*
X6771198Y-6447615D02*
X6771198Y-6742615D01*
X6623698Y-6595115D02*
X6918698Y-6595115D01*
X7088978Y-4294001D02*
X7088978Y-4589001D01*
X6941478Y-4441501D02*
X7236478Y-4441501D01*
X7239000Y1163500D02*
X7239000Y868500D01*
X7091500Y1016000D02*
X7386500Y1016000D01*
X7239000Y-741500D02*
X7239000Y-1036500D01*
X7091500Y-889000D02*
X7386500Y-889000D01*
X7239000Y-8361500D02*
X7239000Y-8656500D01*
X7091500Y-8509000D02*
X7386500Y-8509000D01*
X7555266Y-2390770D02*
X7555266Y-2685770D01*
X7407766Y-2538270D02*
X7702766Y-2538270D01*
X7723978Y-4548001D02*
X7723978Y-4843001D01*
X7576478Y-4695501D02*
X7871478Y-4695501D01*
X8041198Y-6193615D02*
X8041198Y-6488615D01*
X7893698Y-6341115D02*
X8188698Y-6341115D01*
X8190266Y-2644770D02*
X8190266Y-2939770D01*
X8042766Y-2792270D02*
X8337766Y-2792270D01*
X8509000Y1417500D02*
X8509000Y1122500D01*
X8361500Y1270000D02*
X8656500Y1270000D01*
X8509000Y-487500D02*
X8509000Y-782500D01*
X8361500Y-635000D02*
X8656500Y-635000D01*
X8676198Y-6447615D02*
X8676198Y-6742615D01*
X8528698Y-6595115D02*
X8823698Y-6595115D01*
X8993978Y-4294001D02*
X8993978Y-4589001D01*
X8846478Y-4441501D02*
X9141478Y-4441501D01*
X9144000Y1163500D02*
X9144000Y868500D01*
X8996500Y1016000D02*
X9291500Y1016000D01*
X9144000Y-741500D02*
X9144000Y-1036500D01*
X8996500Y-889000D02*
X9291500Y-889000D01*
X9460266Y-2390770D02*
X9460266Y-2685770D01*
X9312766Y-2538270D02*
X9607766Y-2538270D01*
X9628978Y-4548001D02*
X9628978Y-4843001D01*
X9481478Y-4695501D02*
X9776478Y-4695501D01*
X9946198Y-6193615D02*
X9946198Y-6488615D01*
X9798698Y-6341115D02*
X10093698Y-6341115D01*
X10095266Y-2644770D02*
X10095266Y-2939770D01*
X9947766Y-2792270D02*
X10242766Y-2792270D01*
X10414000Y1417500D02*
X10414000Y1122500D01*
X10266500Y1270000D02*
X10561500Y1270000D01*
X10414000Y-487500D02*
X10414000Y-782500D01*
X10266500Y-635000D02*
X10561500Y-635000D01*
X10581198Y-6447615D02*
X10581198Y-6742615D01*
X10433698Y-6595115D02*
X10728698Y-6595115D01*
X10901145Y-4293211D02*
X10901145Y-4588211D01*
X10753645Y-4440711D02*
X11048645Y-4440711D01*
X11049000Y1163500D02*
X11049000Y868500D01*
X10901500Y1016000D02*
X11196500Y1016000D01*
X11049000Y-741500D02*
X11049000Y-1036500D01*
X10901500Y-889000D02*
X11196500Y-889000D01*
X11365266Y-2390770D02*
X11365266Y-2685770D01*
X11217766Y-2538270D02*
X11512766Y-2538270D01*
X11536145Y-4547211D02*
X11536145Y-4842211D01*
X11388645Y-4694711D02*
X11683645Y-4694711D01*
X11845828Y-6191886D02*
X11845828Y-6486886D01*
X11698328Y-6339386D02*
X11993328Y-6339386D01*
X12000266Y-2644770D02*
X12000266Y-2939770D01*
X11852766Y-2792270D02*
X12147766Y-2792270D01*
X12319000Y1417500D02*
X12319000Y1122500D01*
X12171500Y1270000D02*
X12466500Y1270000D01*
X12319000Y-487500D02*
X12319000Y-782500D01*
X12171500Y-635000D02*
X12466500Y-635000D01*
X12480828Y-6445886D02*
X12480828Y-6740886D01*
X12333328Y-6593386D02*
X12628328Y-6593386D01*
X12806145Y-4290503D02*
X12806145Y-4585503D01*
X12658645Y-4438003D02*
X12953645Y-4438003D01*
X12954000Y1163500D02*
X12954000Y868500D01*
X12806500Y1016000D02*
X13101500Y1016000D01*
X12954000Y-741500D02*
X12954000Y-1036500D01*
X12806500Y-889000D02*
X13101500Y-889000D01*
X13270266Y-2390770D02*
X13270266Y-2685770D01*
X13122766Y-2538270D02*
X13417766Y-2538270D01*
X13441145Y-4544503D02*
X13441145Y-4839503D01*
X13293645Y-4692003D02*
X13588645Y-4692003D01*
X13507068Y-8113071D02*
X13507068Y-8408071D01*
X13359568Y-8260571D02*
X13654568Y-8260571D01*
X13754809Y-6198530D02*
X13754809Y-6493530D01*
X13607309Y-6346030D02*
X13902309Y-6346030D01*
X13905266Y-2644770D02*
X13905266Y-2939770D01*
X13757766Y-2792270D02*
X14052766Y-2792270D01*
X14142068Y-8367071D02*
X14142068Y-8662071D01*
X13994568Y-8514571D02*
X14289568Y-8514571D01*
X14224000Y1417500D02*
X14224000Y1122500D01*
X14076500Y1270000D02*
X14371500Y1270000D01*
X14224000Y-487500D02*
X14224000Y-782500D01*
X14076500Y-635000D02*
X14371500Y-635000D01*
X14389809Y-6452530D02*
X14389809Y-6747530D01*
X14242309Y-6600030D02*
X14537309Y-6600030D01*
X14732000Y-4297500D02*
X14732000Y-4592500D01*
X14584500Y-4445000D02*
X14879500Y-4445000D01*
X14859000Y1163500D02*
X14859000Y868500D01*
X14711500Y1016000D02*
X15006500Y1016000D01*
X14859000Y-741500D02*
X14859000Y-1036500D01*
X14711500Y-889000D02*
X15006500Y-889000D01*
X15174189Y-2395449D02*
X15174189Y-2690449D01*
X15026689Y-2542949D02*
X15321689Y-2542949D01*
X15367000Y-4551500D02*
X15367000Y-4846500D01*
X15219500Y-4699000D02*
X15514500Y-4699000D01*
X15660202Y-6197952D02*
X15660202Y-6492952D01*
X15512702Y-6345452D02*
X15807702Y-6345452D01*
X15809189Y-2649449D02*
X15809189Y-2944449D01*
X15661689Y-2796949D02*
X15956689Y-2796949D01*
X16129000Y1417500D02*
X16129000Y1122500D01*
X15981500Y1270000D02*
X16276500Y1270000D01*
X16129000Y-487500D02*
X16129000Y-782500D01*
X15981500Y-635000D02*
X16276500Y-635000D01*
X16295202Y-6451952D02*
X16295202Y-6746952D01*
X16147702Y-6599452D02*
X16442702Y-6599452D01*
X16612480Y-4290797D02*
X16612480Y-4585797D01*
X16464980Y-4438297D02*
X16759980Y-4438297D01*
X16764000Y1163500D02*
X16764000Y868500D01*
X16616500Y1016000D02*
X16911500Y1016000D01*
X16764000Y-741500D02*
X16764000Y-1036500D01*
X16616500Y-889000D02*
X16911500Y-889000D01*
X17068885Y-2391887D02*
X17068885Y-2686887D01*
X16921385Y-2539387D02*
X17216385Y-2539387D01*
X17247480Y-4544797D02*
X17247480Y-4839797D01*
X17099980Y-4692297D02*
X17394980Y-4692297D01*
X17564100Y-6202500D02*
X17564100Y-6497500D01*
X17416600Y-6350000D02*
X17711600Y-6350000D01*
X17703885Y-2645887D02*
X17703885Y-2940887D01*
X17556385Y-2793387D02*
X17851385Y-2793387D01*
X18034000Y1417500D02*
X18034000Y1122500D01*
X17886500Y1270000D02*
X18181500Y1270000D01*
X18034000Y-487500D02*
X18034000Y-782500D01*
X17886500Y-635000D02*
X18181500Y-635000D01*
X18199100Y-6456500D02*
X18199100Y-6751500D01*
X18051600Y-6604000D02*
X18346600Y-6604000D01*
X18514095Y-4294608D02*
X18514095Y-4589608D01*
X18366595Y-4442108D02*
X18661595Y-4442108D01*
X18669000Y1163500D02*
X18669000Y868500D01*
X18521500Y1016000D02*
X18816500Y1016000D01*
X18669000Y-741500D02*
X18669000Y-1036500D01*
X18521500Y-889000D02*
X18816500Y-889000D01*
X18973924Y-2391887D02*
X18973924Y-2686887D01*
X18826424Y-2539387D02*
X19121424Y-2539387D01*
X19149095Y-4548608D02*
X19149095Y-4843608D01*
X19001595Y-4696108D02*
X19296595Y-4696108D01*
X19469100Y-6202500D02*
X19469100Y-6497500D01*
X19321600Y-6350000D02*
X19616600Y-6350000D01*
X19608924Y-2645887D02*
X19608924Y-2940887D01*
X19461424Y-2793387D02*
X19756424Y-2793387D01*
X19939000Y1417500D02*
X19939000Y1122500D01*
X19791500Y1270000D02*
X20086500Y1270000D01*
X19939000Y-487500D02*
X19939000Y-782500D01*
X19791500Y-635000D02*
X20086500Y-635000D01*
X20104100Y-6456500D02*
X20104100Y-6751500D01*
X19956600Y-6604000D02*
X20251600Y-6604000D01*
X20421000Y-4297500D02*
X20421000Y-4592500D01*
X20273500Y-4445000D02*
X20568500Y-4445000D01*
X20574000Y1163500D02*
X20574000Y868500D01*
X20426500Y1016000D02*
X20721500Y1016000D01*
X20574000Y-741500D02*
X20574000Y-1036500D01*
X20426500Y-889000D02*
X20721500Y-889000D01*
X20649600Y-8107500D02*
X20649600Y-8402500D01*
X20502100Y-8255000D02*
X20797100Y-8255000D01*
X20878962Y-2391887D02*
X20878962Y-2686887D01*
X20731462Y-2539387D02*
X21026462Y-2539387D01*
X21056000Y-4551500D02*
X21056000Y-4846500D01*
X20908500Y-4699000D02*
X21203500Y-4699000D01*
X21284600Y-8361500D02*
X21284600Y-8656500D01*
X21137100Y-8509000D02*
X21432100Y-8509000D01*
X21374100Y-6202500D02*
X21374100Y-6497500D01*
X21226600Y-6350000D02*
X21521600Y-6350000D01*
X21513962Y-2645887D02*
X21513962Y-2940887D01*
X21366462Y-2793387D02*
X21661462Y-2793387D01*
X21844000Y1417500D02*
X21844000Y1122500D01*
X21696500Y1270000D02*
X21991500Y1270000D01*
X21844000Y-487500D02*
X21844000Y-782500D01*
X21696500Y-635000D02*
X21991500Y-635000D01*
X22009100Y-6456500D02*
X22009100Y-6751500D01*
X21861600Y-6604000D02*
X22156600Y-6604000D01*
X22327777Y-4305731D02*
X22327777Y-4600731D01*
X22180277Y-4453231D02*
X22475277Y-4453231D01*
X22479000Y1163500D02*
X22479000Y868500D01*
X22331500Y1016000D02*
X22626500Y1016000D01*
X22479000Y-741500D02*
X22479000Y-1036500D01*
X22331500Y-889000D02*
X22626500Y-889000D01*
X22784000Y-2391887D02*
X22784000Y-2686887D01*
X22636500Y-2539387D02*
X22931500Y-2539387D01*
X22962777Y-4559731D02*
X22962777Y-4854731D01*
X22815277Y-4707231D02*
X23110277Y-4707231D01*
X23037800Y-8107500D02*
X23037800Y-8402500D01*
X22890300Y-8255000D02*
X23185300Y-8255000D01*
X23419000Y-2645887D02*
X23419000Y-2940887D01*
X23271500Y-2793387D02*
X23566500Y-2793387D01*
X23672800Y-8361500D02*
X23672800Y-8656500D01*
X23525300Y-8509000D02*
X23820300Y-8509000D01*
X23749000Y1417500D02*
X23749000Y1122500D01*
X23601500Y1270000D02*
X23896500Y1270000D01*
X23749000Y-487500D02*
X23749000Y-782500D01*
X23601500Y-635000D02*
X23896500Y-635000D01*
X24384000Y1163500D02*
X24384000Y868500D01*
X24236500Y1016000D02*
X24531500Y1016000D01*
X24384000Y-741500D02*
X24384000Y-1036500D01*
X24236500Y-889000D02*
X24531500Y-889000D01*
X24470071Y-6206243D02*
X24470071Y-6501243D01*
X24322571Y-6353743D02*
X24617571Y-6353743D01*
X24944249Y-4302292D02*
X24944249Y-4597292D01*
X24796749Y-4449792D02*
X25091749Y-4449792D01*
X25105071Y-6460243D02*
X25105071Y-6755243D01*
X24957571Y-6607743D02*
X25252571Y-6607743D01*
X25171400Y-2392500D02*
X25171400Y-2687500D01*
X25023900Y-2540000D02*
X25318900Y-2540000D01*
X25420966Y-8110067D02*
X25420966Y-8405067D01*
X25273466Y-8257567D02*
X25568466Y-8257567D01*
X25579249Y-4556292D02*
X25579249Y-4851292D01*
X25431749Y-4703792D02*
X25726749Y-4703792D01*
X25654000Y1417500D02*
X25654000Y1122500D01*
X25506500Y1270000D02*
X25801500Y1270000D01*
X25654000Y-487500D02*
X25654000Y-782500D01*
X25506500Y-635000D02*
X25801500Y-635000D01*
X25806400Y-2646500D02*
X25806400Y-2941500D01*
X25658900Y-2794000D02*
X25953900Y-2794000D01*
X26055966Y-8364067D02*
X26055966Y-8659067D01*
X25908466Y-8511567D02*
X26203466Y-8511567D01*
X26289000Y1163500D02*
X26289000Y868500D01*
X26141500Y1016000D02*
X26436500Y1016000D01*
X26289000Y-741500D02*
X26289000Y-1036500D01*
X26141500Y-889000D02*
X26436500Y-889000D01*
X28662271Y-1724047D02*
X28662271Y-1511913D01*
X28450137Y-1511913D01*
X28450137Y-1724047D01*
X28662271Y-1724047D01*
X28662779Y2154533D02*
X28662779Y2366667D01*
X28450645Y2366667D01*
X28450645Y2154533D01*
X28662779Y2154533D01*
X35462359Y2155549D02*
X35462359Y2367683D01*
X35250225Y2367683D01*
X35250225Y2155549D01*
X35462359Y2155549D01*
X35463375Y-1724047D02*
X35463375Y-1511913D01*
X35251241Y-1511913D01*
X35251241Y-1724047D01*
X35463375Y-1724047D01*
X-875594Y-1232720D02*
X-723094Y-1080220D01*
X-875594Y-927720D01*
X-1028094Y-1080220D01*
X-875594Y-1232720D01*
X-624007Y-5044164D02*
X-471507Y-4891664D01*
X-624007Y-4739164D01*
X-776507Y-4891664D01*
X-624007Y-5044164D01*
X1504406Y-1232720D02*
X1656906Y-1080220D01*
X1504406Y-927720D01*
X1351906Y-1080220D01*
X1504406Y-1232720D01*
X1755993Y-5044164D02*
X1908493Y-4891664D01*
X1755993Y-4739164D01*
X1603493Y-4891664D01*
X1755993Y-5044164D01*
X8888068Y-8859071D02*
X9040568Y-8706571D01*
X8888068Y-8554071D01*
X8735568Y-8706571D01*
X8888068Y-8859071D01*
X18888068Y-8859071D02*
X19040568Y-8706571D01*
X18888068Y-8554071D01*
X18735568Y-8706571D01*
X18888068Y-8859071D01*
X23661071Y-6952243D02*
X23813571Y-6799743D01*
X23661071Y-6647243D01*
X23508571Y-6799743D01*
X23661071Y-6952243D01*
X26041071Y-6952243D02*
X26193571Y-6799743D01*
X26041071Y-6647243D01*
X25888571Y-6799743D01*
X26041071Y-6952243D01*
X-2740000Y1724000D02*
X-2340000Y1324000D01*
X-2340000Y1724000D02*
X-2740000Y1324000D01*
X-2340000Y1524000D02*
G75*
G03*
X-2340000Y1524000I-200000J0D01*
G01*
X-2740000Y-181000D02*
X-2340000Y-581000D01*
X-2340000Y-181000D02*
X-2740000Y-581000D01*
X-2340000Y-381000D02*
G75*
G03*
X-2340000Y-381000I-200000J0D01*
G01*
X-2740000Y-2086000D02*
X-2340000Y-2486000D01*
X-2340000Y-2086000D02*
X-2740000Y-2486000D01*
X-2340000Y-2286000D02*
G75*
G03*
X-2340000Y-2286000I-200000J0D01*
G01*
X-2740000Y-3991000D02*
X-2340000Y-4391000D01*
X-2340000Y-3991000D02*
X-2740000Y-4391000D01*
X-2340000Y-4191000D02*
G75*
G03*
X-2340000Y-4191000I-200000J0D01*
G01*
X-2740000Y-5896000D02*
X-2340000Y-6296000D01*
X-2340000Y-5896000D02*
X-2740000Y-6296000D01*
X-2340000Y-6096000D02*
G75*
G03*
X-2340000Y-6096000I-200000J0D01*
G01*
X-2740000Y-7801000D02*
X-2340000Y-8201000D01*
X-2340000Y-7801000D02*
X-2740000Y-8201000D01*
X-2340000Y-8001000D02*
G75*
G03*
X-2340000Y-8001000I-200000J0D01*
G01*
X-1075594Y643780D02*
X-675594Y243780D01*
X-675594Y643780D02*
X-1075594Y243780D01*
X-675594Y443780D02*
G75*
G03*
X-675594Y443780I-200000J0D01*
G01*
X-835000Y1724000D02*
X-435000Y1324000D01*
X-435000Y1724000D02*
X-835000Y1324000D01*
X-435000Y1524000D02*
G75*
G03*
X-435000Y1524000I-200000J0D01*
G01*
X-835000Y-7801000D02*
X-435000Y-8201000D01*
X-435000Y-7801000D02*
X-835000Y-8201000D01*
X-435000Y-8001000D02*
G75*
G03*
X-435000Y-8001000I-200000J0D01*
G01*
X-832400Y-5894270D02*
X-432400Y-6294270D01*
X-432400Y-5894270D02*
X-832400Y-6294270D01*
X-432400Y-6094270D02*
G75*
G03*
X-432400Y-6094270I-200000J0D01*
G01*
X-824007Y-3167663D02*
X-424007Y-3567663D01*
X-424007Y-3167663D02*
X-824007Y-3567663D01*
X-424007Y-3367663D02*
G75*
G03*
X-424007Y-3367663I-200000J0D01*
G01*
X-353000Y-2086000D02*
X47000Y-2486000D01*
X47000Y-2086000D02*
X-353000Y-2486000D01*
X47000Y-2286000D02*
G75*
G03*
X47000Y-2286000I-200000J0D01*
G01*
X114406Y-180220D02*
X514406Y-580220D01*
X514406Y-180220D02*
X114406Y-580220D01*
X514406Y-380220D02*
G75*
G03*
X514406Y-380220I-200000J0D01*
G01*
X114406Y-180220D02*
X514406Y-580220D01*
X514406Y-180220D02*
X114406Y-580220D01*
X514406Y-380220D02*
G75*
G03*
X514406Y-380220I-200000J0D01*
G01*
X365993Y-3991663D02*
X765993Y-4391664D01*
X765993Y-3991663D02*
X365993Y-4391664D01*
X765993Y-4191663D02*
G75*
G03*
X765993Y-4191663I-200000J0D01*
G01*
X365993Y-3991663D02*
X765993Y-4391664D01*
X765993Y-3991663D02*
X365993Y-4391664D01*
X765993Y-4191663D02*
G75*
G03*
X765993Y-4191663I-200000J0D01*
G01*
X1070000Y1724000D02*
X1470000Y1324000D01*
X1470000Y1724000D02*
X1070000Y1324000D01*
X1470000Y1524000D02*
G75*
G03*
X1470000Y1524000I-200000J0D01*
G01*
X1070000Y-7801000D02*
X1470000Y-8201000D01*
X1470000Y-7801000D02*
X1070000Y-8201000D01*
X1470000Y-8001000D02*
G75*
G03*
X1470000Y-8001000I-200000J0D01*
G01*
X1304406Y643780D02*
X1704406Y243780D01*
X1704406Y643780D02*
X1304406Y243780D01*
X1704406Y443780D02*
G75*
G03*
X1704406Y443780I-200000J0D01*
G01*
X1555993Y-3167663D02*
X1955993Y-3567663D01*
X1955993Y-3167663D02*
X1555993Y-3567663D01*
X1955993Y-3367663D02*
G75*
G03*
X1955993Y-3367663I-200000J0D01*
G01*
X1788308Y-5897966D02*
X2188308Y-6297966D01*
X2188308Y-5897966D02*
X1788308Y-6297966D01*
X2188308Y-6097966D02*
G75*
G03*
X2188308Y-6097966I-200000J0D01*
G01*
X2021900Y-2086000D02*
X2421900Y-2486000D01*
X2421900Y-2086000D02*
X2021900Y-2486000D01*
X2421900Y-2286000D02*
G75*
G03*
X2421900Y-2286000I-200000J0D01*
G01*
X2975000Y1724000D02*
X3375000Y1324000D01*
X3375000Y1724000D02*
X2975000Y1324000D01*
X3375000Y1524000D02*
G75*
G03*
X3375000Y1524000I-200000J0D01*
G01*
X2975000Y-181000D02*
X3375000Y-581000D01*
X3375000Y-181000D02*
X2975000Y-581000D01*
X3375000Y-381000D02*
G75*
G03*
X3375000Y-381000I-200000J0D01*
G01*
X2975000Y-7801000D02*
X3375000Y-8201000D01*
X3375000Y-7801000D02*
X2975000Y-8201000D01*
X3375000Y-8001000D02*
G75*
G03*
X3375000Y-8001000I-200000J0D01*
G01*
X3459978Y-3990209D02*
X3859978Y-4390210D01*
X3859978Y-3990209D02*
X3459978Y-4390210D01*
X3859978Y-4190209D02*
G75*
G03*
X3859978Y-4190209I-200000J0D01*
G01*
X3926266Y-2084270D02*
X4326266Y-2484270D01*
X4326266Y-2084270D02*
X3926266Y-2484270D01*
X4326266Y-2284270D02*
G75*
G03*
X4326266Y-2284270I-200000J0D01*
G01*
X4410977Y-5891719D02*
X4810977Y-6291719D01*
X4810977Y-5891719D02*
X4410977Y-6291719D01*
X4810977Y-6091719D02*
G75*
G03*
X4810977Y-6091719I-200000J0D01*
G01*
X4880000Y1724000D02*
X5280000Y1324000D01*
X5280000Y1724000D02*
X4880000Y1324000D01*
X5280000Y1524000D02*
G75*
G03*
X5280000Y1524000I-200000J0D01*
G01*
X4880000Y-181000D02*
X5280000Y-581000D01*
X5280000Y-181000D02*
X4880000Y-581000D01*
X5280000Y-381000D02*
G75*
G03*
X5280000Y-381000I-200000J0D01*
G01*
X4880000Y-7801000D02*
X5280000Y-8201000D01*
X5280000Y-7801000D02*
X4880000Y-8201000D01*
X5280000Y-8001000D02*
G75*
G03*
X5280000Y-8001000I-200000J0D01*
G01*
X5364978Y-3987501D02*
X5764978Y-4387501D01*
X5764978Y-3987501D02*
X5364978Y-4387501D01*
X5764978Y-4187501D02*
G75*
G03*
X5764978Y-4187501I-200000J0D01*
G01*
X5831266Y-2084270D02*
X6231266Y-2484270D01*
X6231266Y-2084270D02*
X5831266Y-2484270D01*
X6231266Y-2284270D02*
G75*
G03*
X6231266Y-2284270I-200000J0D01*
G01*
X6317198Y-5887115D02*
X6717198Y-6287115D01*
X6717198Y-5887115D02*
X6317198Y-6287115D01*
X6717198Y-6087115D02*
G75*
G03*
X6717198Y-6087115I-200000J0D01*
G01*
X6785000Y1724000D02*
X7185000Y1324000D01*
X7185000Y1724000D02*
X6785000Y1324000D01*
X7185000Y1524000D02*
G75*
G03*
X7185000Y1524000I-200000J0D01*
G01*
X6785000Y-181000D02*
X7185000Y-581000D01*
X7185000Y-181000D02*
X6785000Y-581000D01*
X7185000Y-381000D02*
G75*
G03*
X7185000Y-381000I-200000J0D01*
G01*
X6785000Y-7801000D02*
X7185000Y-8201000D01*
X7185000Y-7801000D02*
X6785000Y-8201000D01*
X7185000Y-8001000D02*
G75*
G03*
X7185000Y-8001000I-200000J0D01*
G01*
X7269978Y-3987501D02*
X7669978Y-4387501D01*
X7669978Y-3987501D02*
X7269978Y-4387501D01*
X7669978Y-4187501D02*
G75*
G03*
X7669978Y-4187501I-200000J0D01*
G01*
X7736266Y-2084270D02*
X8136266Y-2484270D01*
X8136266Y-2084270D02*
X7736266Y-2484270D01*
X8136266Y-2284270D02*
G75*
G03*
X8136266Y-2284270I-200000J0D01*
G01*
X8222198Y-5887115D02*
X8622198Y-6287115D01*
X8622198Y-5887115D02*
X8222198Y-6287115D01*
X8622198Y-6087115D02*
G75*
G03*
X8622198Y-6087115I-200000J0D01*
G01*
X8688068Y-6982571D02*
X9088068Y-7382571D01*
X9088068Y-6982571D02*
X8688068Y-7382571D01*
X9088068Y-7182571D02*
G75*
G03*
X9088068Y-7182571I-200000J0D01*
G01*
X8690000Y1724000D02*
X9090000Y1324000D01*
X9090000Y1724000D02*
X8690000Y1324000D01*
X9090000Y1524000D02*
G75*
G03*
X9090000Y1524000I-200000J0D01*
G01*
X8690000Y-181000D02*
X9090000Y-581000D01*
X9090000Y-181000D02*
X8690000Y-581000D01*
X9090000Y-381000D02*
G75*
G03*
X9090000Y-381000I-200000J0D01*
G01*
X9174978Y-3987501D02*
X9574978Y-4387501D01*
X9574978Y-3987501D02*
X9174978Y-4387501D01*
X9574978Y-4187501D02*
G75*
G03*
X9574978Y-4187501I-200000J0D01*
G01*
X9641266Y-2084270D02*
X10041266Y-2484270D01*
X10041266Y-2084270D02*
X9641266Y-2484270D01*
X10041266Y-2284270D02*
G75*
G03*
X10041266Y-2284270I-200000J0D01*
G01*
X10127198Y-5887115D02*
X10527198Y-6287115D01*
X10527198Y-5887115D02*
X10127198Y-6287115D01*
X10527198Y-6087115D02*
G75*
G03*
X10527198Y-6087115I-200000J0D01*
G01*
X10595000Y1724000D02*
X10995000Y1324000D01*
X10995000Y1724000D02*
X10595000Y1324000D01*
X10995000Y1524000D02*
G75*
G03*
X10995000Y1524000I-200000J0D01*
G01*
X10595000Y-181000D02*
X10995000Y-581000D01*
X10995000Y-181000D02*
X10595000Y-581000D01*
X10995000Y-381000D02*
G75*
G03*
X10995000Y-381000I-200000J0D01*
G01*
X11082145Y-3986711D02*
X11482145Y-4386711D01*
X11482145Y-3986711D02*
X11082145Y-4386711D01*
X11482145Y-4186711D02*
G75*
G03*
X11482145Y-4186711I-200000J0D01*
G01*
X11546266Y-2084270D02*
X11946266Y-2484270D01*
X11946266Y-2084270D02*
X11546266Y-2484270D01*
X11946266Y-2284270D02*
G75*
G03*
X11946266Y-2284270I-200000J0D01*
G01*
X12026828Y-5885386D02*
X12426828Y-6285386D01*
X12426828Y-5885386D02*
X12026828Y-6285386D01*
X12426828Y-6085386D02*
G75*
G03*
X12426828Y-6085386I-200000J0D01*
G01*
X12500000Y1724000D02*
X12900000Y1324000D01*
X12900000Y1724000D02*
X12500000Y1324000D01*
X12900000Y1524000D02*
G75*
G03*
X12900000Y1524000I-200000J0D01*
G01*
X12500000Y-181000D02*
X12900000Y-581000D01*
X12900000Y-181000D02*
X12500000Y-581000D01*
X12900000Y-381000D02*
G75*
G03*
X12900000Y-381000I-200000J0D01*
G01*
X12987145Y-3984003D02*
X13387145Y-4384003D01*
X13387145Y-3984003D02*
X12987145Y-4384003D01*
X13387145Y-4184003D02*
G75*
G03*
X13387145Y-4184003I-200000J0D01*
G01*
X13451266Y-2084270D02*
X13851266Y-2484270D01*
X13851266Y-2084270D02*
X13451266Y-2484270D01*
X13851266Y-2284270D02*
G75*
G03*
X13851266Y-2284270I-200000J0D01*
G01*
X13688068Y-7806571D02*
X14088068Y-8206571D01*
X14088068Y-7806571D02*
X13688068Y-8206571D01*
X14088068Y-8006571D02*
G75*
G03*
X14088068Y-8006571I-200000J0D01*
G01*
X13688068Y-7806571D02*
X14088068Y-8206571D01*
X14088068Y-7806571D02*
X13688068Y-8206571D01*
X14088068Y-8006571D02*
G75*
G03*
X14088068Y-8006571I-200000J0D01*
G01*
X13935809Y-5892030D02*
X14335809Y-6292030D01*
X14335809Y-5892030D02*
X13935809Y-6292030D01*
X14335809Y-6092030D02*
G75*
G03*
X14335809Y-6092030I-200000J0D01*
G01*
X14405000Y1724000D02*
X14805000Y1324000D01*
X14805000Y1724000D02*
X14405000Y1324000D01*
X14805000Y1524000D02*
G75*
G03*
X14805000Y1524000I-200000J0D01*
G01*
X14405000Y-181000D02*
X14805000Y-581000D01*
X14805000Y-181000D02*
X14405000Y-581000D01*
X14805000Y-381000D02*
G75*
G03*
X14805000Y-381000I-200000J0D01*
G01*
X14913000Y-3991000D02*
X15313000Y-4391000D01*
X15313000Y-3991000D02*
X14913000Y-4391000D01*
X15313000Y-4191000D02*
G75*
G03*
X15313000Y-4191000I-200000J0D01*
G01*
X15355189Y-2088949D02*
X15755189Y-2488949D01*
X15755189Y-2088949D02*
X15355189Y-2488949D01*
X15755189Y-2288949D02*
G75*
G03*
X15755189Y-2288949I-200000J0D01*
G01*
X15841202Y-5891452D02*
X16241202Y-6291452D01*
X16241202Y-5891452D02*
X15841202Y-6291452D01*
X16241202Y-6091452D02*
G75*
G03*
X16241202Y-6091452I-200000J0D01*
G01*
X16310000Y1724000D02*
X16710000Y1324000D01*
X16710000Y1724000D02*
X16310000Y1324000D01*
X16710000Y1524000D02*
G75*
G03*
X16710000Y1524000I-200000J0D01*
G01*
X16310000Y-181000D02*
X16710000Y-581000D01*
X16710000Y-181000D02*
X16310000Y-581000D01*
X16710000Y-381000D02*
G75*
G03*
X16710000Y-381000I-200000J0D01*
G01*
X16793480Y-3984297D02*
X17193480Y-4384297D01*
X17193480Y-3984297D02*
X16793480Y-4384297D01*
X17193480Y-4184297D02*
G75*
G03*
X17193480Y-4184297I-200000J0D01*
G01*
X17249885Y-2085387D02*
X17649885Y-2485387D01*
X17649885Y-2085387D02*
X17249885Y-2485387D01*
X17649885Y-2285387D02*
G75*
G03*
X17649885Y-2285387I-200000J0D01*
G01*
X17745100Y-5896000D02*
X18145100Y-6296000D01*
X18145100Y-5896000D02*
X17745100Y-6296000D01*
X18145100Y-6096000D02*
G75*
G03*
X18145100Y-6096000I-200000J0D01*
G01*
X18215000Y1724000D02*
X18615000Y1324000D01*
X18615000Y1724000D02*
X18215000Y1324000D01*
X18615000Y1524000D02*
G75*
G03*
X18615000Y1524000I-200000J0D01*
G01*
X18215000Y-181000D02*
X18615000Y-581000D01*
X18615000Y-181000D02*
X18215000Y-581000D01*
X18615000Y-381000D02*
G75*
G03*
X18615000Y-381000I-200000J0D01*
G01*
X18688068Y-6982571D02*
X19088068Y-7382571D01*
X19088068Y-6982571D02*
X18688068Y-7382571D01*
X19088068Y-7182571D02*
G75*
G03*
X19088068Y-7182571I-200000J0D01*
G01*
X18695095Y-3988108D02*
X19095095Y-4388108D01*
X19095095Y-3988108D02*
X18695095Y-4388108D01*
X19095095Y-4188108D02*
G75*
G03*
X19095095Y-4188108I-200000J0D01*
G01*
X19154924Y-2085387D02*
X19554924Y-2485387D01*
X19554924Y-2085387D02*
X19154924Y-2485387D01*
X19554924Y-2285387D02*
G75*
G03*
X19554924Y-2285387I-200000J0D01*
G01*
X19650100Y-5896000D02*
X20050100Y-6296000D01*
X20050100Y-5896000D02*
X19650100Y-6296000D01*
X20050100Y-6096000D02*
G75*
G03*
X20050100Y-6096000I-200000J0D01*
G01*
X20120000Y1724000D02*
X20520000Y1324000D01*
X20520000Y1724000D02*
X20120000Y1324000D01*
X20520000Y1524000D02*
G75*
G03*
X20520000Y1524000I-200000J0D01*
G01*
X20120000Y-181000D02*
X20520000Y-581000D01*
X20520000Y-181000D02*
X20120000Y-581000D01*
X20520000Y-381000D02*
G75*
G03*
X20520000Y-381000I-200000J0D01*
G01*
X20602000Y-3991000D02*
X21002000Y-4391000D01*
X21002000Y-3991000D02*
X20602000Y-4391000D01*
X21002000Y-4191000D02*
G75*
G03*
X21002000Y-4191000I-200000J0D01*
G01*
X20830600Y-7801000D02*
X21230600Y-8201000D01*
X21230600Y-7801000D02*
X20830600Y-8201000D01*
X21230600Y-8001000D02*
G75*
G03*
X21230600Y-8001000I-200000J0D01*
G01*
X21059962Y-2085387D02*
X21459962Y-2485387D01*
X21459962Y-2085387D02*
X21059962Y-2485387D01*
X21459962Y-2285387D02*
G75*
G03*
X21459962Y-2285387I-200000J0D01*
G01*
X21555100Y-5896000D02*
X21955100Y-6296000D01*
X21955100Y-5896000D02*
X21555100Y-6296000D01*
X21955100Y-6096000D02*
G75*
G03*
X21955100Y-6096000I-200000J0D01*
G01*
X22025000Y1724000D02*
X22425000Y1324000D01*
X22425000Y1724000D02*
X22025000Y1324000D01*
X22425000Y1524000D02*
G75*
G03*
X22425000Y1524000I-200000J0D01*
G01*
X22025000Y-181000D02*
X22425000Y-581000D01*
X22425000Y-181000D02*
X22025000Y-581000D01*
X22425000Y-381000D02*
G75*
G03*
X22425000Y-381000I-200000J0D01*
G01*
X22508777Y-3999231D02*
X22908777Y-4399231D01*
X22908777Y-3999231D02*
X22508777Y-4399231D01*
X22908777Y-4199231D02*
G75*
G03*
X22908777Y-4199231I-200000J0D01*
G01*
X22965000Y-2085387D02*
X23365000Y-2485387D01*
X23365000Y-2085387D02*
X22965000Y-2485387D01*
X23365000Y-2285387D02*
G75*
G03*
X23365000Y-2285387I-200000J0D01*
G01*
X23218800Y-7801000D02*
X23618800Y-8201000D01*
X23618800Y-7801000D02*
X23218800Y-8201000D01*
X23618800Y-8001000D02*
G75*
G03*
X23618800Y-8001000I-200000J0D01*
G01*
X23461071Y-5075743D02*
X23861071Y-5475743D01*
X23861071Y-5075743D02*
X23461071Y-5475743D01*
X23861071Y-5275743D02*
G75*
G03*
X23861071Y-5275743I-200000J0D01*
G01*
X23930000Y1724000D02*
X24330000Y1324000D01*
X24330000Y1724000D02*
X23930000Y1324000D01*
X24330000Y1524000D02*
G75*
G03*
X24330000Y1524000I-200000J0D01*
G01*
X23930000Y-181000D02*
X24330000Y-581000D01*
X24330000Y-181000D02*
X23930000Y-581000D01*
X24330000Y-381000D02*
G75*
G03*
X24330000Y-381000I-200000J0D01*
G01*
X24651071Y-5899743D02*
X25051071Y-6299743D01*
X25051071Y-5899743D02*
X24651071Y-6299743D01*
X25051071Y-6099743D02*
G75*
G03*
X25051071Y-6099743I-200000J0D01*
G01*
X24651071Y-5899743D02*
X25051071Y-6299743D01*
X25051071Y-5899743D02*
X24651071Y-6299743D01*
X25051071Y-6099743D02*
G75*
G03*
X25051071Y-6099743I-200000J0D01*
G01*
X25125249Y-3995792D02*
X25525249Y-4395792D01*
X25525249Y-3995792D02*
X25125249Y-4395792D01*
X25525249Y-4195792D02*
G75*
G03*
X25525249Y-4195792I-200000J0D01*
G01*
X25352400Y-2086000D02*
X25752400Y-2486000D01*
X25752400Y-2086000D02*
X25352400Y-2486000D01*
X25752400Y-2286000D02*
G75*
G03*
X25752400Y-2286000I-200000J0D01*
G01*
X25601966Y-7803567D02*
X26001966Y-8203567D01*
X26001966Y-7803567D02*
X25601966Y-8203567D01*
X26001966Y-8003567D02*
G75*
G03*
X26001966Y-8003567I-200000J0D01*
G01*
X25835000Y1724000D02*
X26235000Y1324000D01*
X26235000Y1724000D02*
X25835000Y1324000D01*
X26235000Y1524000D02*
G75*
G03*
X26235000Y1524000I-200000J0D01*
G01*
X25835000Y-181000D02*
X26235000Y-581000D01*
X26235000Y-181000D02*
X25835000Y-581000D01*
X26235000Y-381000D02*
G75*
G03*
X26235000Y-381000I-200000J0D01*
G01*
X25841071Y-5075743D02*
X26241071Y-5475743D01*
X26241071Y-5075743D02*
X25841071Y-5475743D01*
X26241071Y-5275743D02*
G75*
G03*
X26241071Y-5275743I-200000J0D01*
G01*
D12*
X-3780071Y-10120214D02*
X-3780071Y-9820214D01*
X-3708643Y-9820214D01*
X-3665786Y-9834500D01*
X-3637214Y-9863072D01*
X-3622929Y-9891643D01*
X-3608643Y-9948786D01*
X-3608643Y-9991643D01*
X-3622929Y-10048786D01*
X-3637214Y-10077357D01*
X-3665786Y-10105929D01*
X-3708643Y-10120214D01*
X-3780071Y-10120214D01*
X-3480071Y-10120214D02*
X-3480071Y-9920214D01*
X-3480071Y-9977357D02*
X-3465786Y-9948786D01*
X-3451500Y-9934500D01*
X-3422929Y-9920214D01*
X-3394357Y-9920214D01*
X-3294357Y-10120214D02*
X-3294357Y-9920214D01*
X-3294357Y-9820214D02*
X-3308643Y-9834500D01*
X-3294357Y-9848786D01*
X-3280071Y-9834500D01*
X-3294357Y-9820214D01*
X-3294357Y-9848786D01*
X-3108643Y-10120214D02*
X-3137214Y-10105929D01*
X-3151500Y-10077357D01*
X-3151500Y-9820214D01*
X-2951500Y-10120214D02*
X-2980071Y-10105929D01*
X-2994357Y-10077357D01*
X-2994357Y-9820214D01*
X-2608643Y-10120214D02*
X-2608643Y-9820214D01*
X-2508643Y-10034500D01*
X-2408643Y-9820214D01*
X-2408643Y-10120214D01*
X-2137214Y-10120214D02*
X-2137214Y-9963072D01*
X-2151500Y-9934500D01*
X-2180072Y-9920214D01*
X-2237214Y-9920214D01*
X-2265786Y-9934500D01*
X-2137214Y-10105929D02*
X-2165786Y-10120214D01*
X-2237214Y-10120214D01*
X-2265786Y-10105929D01*
X-2280072Y-10077357D01*
X-2280072Y-10048786D01*
X-2265786Y-10020214D01*
X-2237214Y-10005929D01*
X-2165786Y-10005929D01*
X-2137214Y-9991643D01*
X-1994357Y-9920214D02*
X-1994357Y-10220214D01*
X-1994357Y-9934500D02*
X-1965786Y-9920214D01*
X-1908643Y-9920214D01*
X-1880071Y-9934500D01*
X-1865786Y-9948786D01*
X-1851500Y-9977357D01*
X-1851500Y-10063072D01*
X-1865786Y-10091643D01*
X-1880071Y-10105929D01*
X-1908643Y-10120214D01*
X-1965786Y-10120214D01*
X-1994357Y-10105929D01*
X-1722929Y-10091643D02*
X-1708643Y-10105929D01*
X-1722929Y-10120214D01*
X-1737214Y-10105929D01*
X-1722929Y-10091643D01*
X-1722929Y-10120214D01*
X-1722929Y-9934500D02*
X-1708643Y-9948786D01*
X-1722929Y-9963072D01*
X-1737214Y-9948786D01*
X-1722929Y-9934500D01*
X-1722929Y-9963072D01*
X-4131500Y-10582000D02*
X-4066500Y-10647000D01*
X-4066500Y-10582000D02*
X-4131500Y-10647000D01*
X-3722929Y-10450214D02*
X-3694357Y-10450214D01*
X-3665786Y-10464500D01*
X-3651500Y-10478786D01*
X-3637214Y-10507357D01*
X-3622929Y-10564500D01*
X-3622929Y-10635929D01*
X-3637214Y-10693072D01*
X-3651500Y-10721643D01*
X-3665786Y-10735929D01*
X-3694357Y-10750214D01*
X-3722929Y-10750214D01*
X-3751500Y-10735929D01*
X-3765786Y-10721643D01*
X-3780071Y-10693072D01*
X-3794357Y-10635929D01*
X-3794357Y-10564500D01*
X-3780071Y-10507357D01*
X-3765786Y-10478786D01*
X-3751500Y-10464500D01*
X-3722929Y-10450214D01*
X-3494357Y-10721643D02*
X-3480071Y-10735929D01*
X-3494357Y-10750214D01*
X-3508643Y-10735929D01*
X-3494357Y-10721643D01*
X-3494357Y-10750214D01*
X-3222929Y-10450214D02*
X-3280071Y-10450214D01*
X-3308643Y-10464500D01*
X-3322929Y-10478786D01*
X-3351500Y-10521643D01*
X-3365786Y-10578786D01*
X-3365786Y-10693072D01*
X-3351500Y-10721643D01*
X-3337214Y-10735929D01*
X-3308643Y-10750214D01*
X-3251500Y-10750214D01*
X-3222929Y-10735929D01*
X-3208643Y-10721643D01*
X-3194357Y-10693072D01*
X-3194357Y-10621643D01*
X-3208643Y-10593072D01*
X-3222929Y-10578786D01*
X-3251500Y-10564500D01*
X-3308643Y-10564500D01*
X-3337214Y-10578786D01*
X-3351500Y-10593072D01*
X-3365786Y-10621643D01*
X-2922929Y-10450214D02*
X-3065786Y-10450214D01*
X-3080071Y-10593072D01*
X-3065786Y-10578786D01*
X-3037214Y-10564500D01*
X-2965786Y-10564500D01*
X-2937214Y-10578786D01*
X-2922929Y-10593072D01*
X-2908643Y-10621643D01*
X-2908643Y-10693072D01*
X-2922929Y-10721643D01*
X-2937214Y-10735929D01*
X-2965786Y-10750214D01*
X-3037214Y-10750214D01*
X-3065786Y-10735929D01*
X-3080071Y-10721643D01*
X-2722929Y-10450214D02*
X-2694357Y-10450214D01*
X-2665786Y-10464500D01*
X-2651500Y-10478786D01*
X-2637214Y-10507357D01*
X-2622929Y-10564500D01*
X-2622929Y-10635929D01*
X-2637214Y-10693072D01*
X-2651500Y-10721643D01*
X-2665786Y-10735929D01*
X-2694357Y-10750214D01*
X-2722929Y-10750214D01*
X-2751500Y-10735929D01*
X-2765786Y-10721643D01*
X-2780072Y-10693072D01*
X-2794357Y-10635929D01*
X-2794357Y-10564500D01*
X-2780072Y-10507357D01*
X-2765786Y-10478786D01*
X-2751500Y-10464500D01*
X-2722929Y-10450214D01*
X-2494357Y-10750214D02*
X-2494357Y-10550214D01*
X-2494357Y-10578786D02*
X-2480072Y-10564500D01*
X-2451500Y-10550214D01*
X-2408643Y-10550214D01*
X-2380072Y-10564500D01*
X-2365786Y-10593072D01*
X-2365786Y-10750214D01*
X-2365786Y-10593072D02*
X-2351500Y-10564500D01*
X-2322929Y-10550214D01*
X-2280072Y-10550214D01*
X-2251500Y-10564500D01*
X-2237214Y-10593072D01*
X-2237214Y-10750214D01*
X-2094357Y-10750214D02*
X-2094357Y-10550214D01*
X-2094357Y-10578786D02*
X-2080071Y-10564500D01*
X-2051500Y-10550214D01*
X-2008643Y-10550214D01*
X-1980071Y-10564500D01*
X-1965786Y-10593072D01*
X-1965786Y-10750214D01*
X-1965786Y-10593072D02*
X-1951500Y-10564500D01*
X-1922929Y-10550214D01*
X-1880071Y-10550214D01*
X-1851500Y-10564500D01*
X-1837214Y-10593072D01*
X-1837214Y-10750214D01*
X-1251500Y-10435929D02*
X-1508643Y-10821643D01*
X-865786Y-10450214D02*
X-837214Y-10450214D01*
X-808643Y-10464500D01*
X-794357Y-10478786D01*
X-780071Y-10507357D01*
X-765786Y-10564500D01*
X-765786Y-10635929D01*
X-780071Y-10693072D01*
X-794357Y-10721643D01*
X-808643Y-10735929D01*
X-837214Y-10750214D01*
X-865786Y-10750214D01*
X-894357Y-10735929D01*
X-908643Y-10721643D01*
X-922929Y-10693072D01*
X-937214Y-10635929D01*
X-937214Y-10564500D01*
X-922929Y-10507357D01*
X-908643Y-10478786D01*
X-894357Y-10464500D01*
X-865786Y-10450214D01*
X-637214Y-10721643D02*
X-622929Y-10735929D01*
X-637214Y-10750214D01*
X-651500Y-10735929D01*
X-637214Y-10721643D01*
X-637214Y-10750214D01*
X-437214Y-10450214D02*
X-408643Y-10450214D01*
X-380071Y-10464500D01*
X-365786Y-10478786D01*
X-351500Y-10507357D01*
X-337214Y-10564500D01*
X-337214Y-10635929D01*
X-351500Y-10693072D01*
X-365786Y-10721643D01*
X-380071Y-10735929D01*
X-408643Y-10750214D01*
X-437214Y-10750214D01*
X-465786Y-10735929D01*
X-480071Y-10721643D01*
X-494357Y-10693072D01*
X-508643Y-10635929D01*
X-508643Y-10564500D01*
X-494357Y-10507357D01*
X-480071Y-10478786D01*
X-465786Y-10464500D01*
X-437214Y-10450214D01*
X-222929Y-10478786D02*
X-208643Y-10464500D01*
X-180071Y-10450214D01*
X-108643Y-10450214D01*
X-80072Y-10464500D01*
X-65786Y-10478786D01*
X-51500Y-10507357D01*
X-51500Y-10535929D01*
X-65786Y-10578786D01*
X-237214Y-10750214D01*
X-51500Y-10750214D01*
X219928Y-10450214D02*
X77071Y-10450214D01*
X62786Y-10593072D01*
X77071Y-10578786D01*
X105643Y-10564500D01*
X177071Y-10564500D01*
X205643Y-10578786D01*
X219928Y-10593072D01*
X234214Y-10621643D01*
X234214Y-10693072D01*
X219928Y-10721643D01*
X205643Y-10735929D01*
X177071Y-10750214D01*
X105643Y-10750214D01*
X77071Y-10735929D01*
X62786Y-10721643D01*
X491357Y-10450214D02*
X434214Y-10450214D01*
X405643Y-10464500D01*
X391357Y-10478786D01*
X362786Y-10521643D01*
X348500Y-10578786D01*
X348500Y-10693072D01*
X362786Y-10721643D01*
X377071Y-10735929D01*
X405643Y-10750214D01*
X462786Y-10750214D01*
X491357Y-10735929D01*
X505643Y-10721643D01*
X519928Y-10693072D01*
X519928Y-10621643D01*
X505643Y-10593072D01*
X491357Y-10578786D01*
X462786Y-10564500D01*
X405643Y-10564500D01*
X377071Y-10578786D01*
X362786Y-10593072D01*
X348500Y-10621643D01*
X634214Y-10450214D02*
X634214Y-10507357D01*
X748500Y-10450214D02*
X748500Y-10507357D01*
X1191357Y-10864500D02*
X1177071Y-10850214D01*
X1148500Y-10807357D01*
X1134214Y-10778786D01*
X1119928Y-10735929D01*
X1105643Y-10664500D01*
X1105643Y-10607357D01*
X1119928Y-10535929D01*
X1134214Y-10493072D01*
X1148500Y-10464500D01*
X1177071Y-10421643D01*
X1191357Y-10407357D01*
X1291357Y-10478786D02*
X1305643Y-10464500D01*
X1334214Y-10450214D01*
X1405643Y-10450214D01*
X1434214Y-10464500D01*
X1448500Y-10478786D01*
X1462786Y-10507357D01*
X1462786Y-10535929D01*
X1448500Y-10578786D01*
X1277071Y-10750214D01*
X1462786Y-10750214D01*
X1819928Y-10750214D02*
X1819928Y-10450214D01*
X1948500Y-10750214D02*
X1948500Y-10593072D01*
X1934214Y-10564500D01*
X1905643Y-10550214D01*
X1862786Y-10550214D01*
X1834214Y-10564500D01*
X1819928Y-10578786D01*
X2134214Y-10750214D02*
X2105643Y-10735929D01*
X2091357Y-10721643D01*
X2077071Y-10693072D01*
X2077071Y-10607357D01*
X2091357Y-10578786D01*
X2105643Y-10564500D01*
X2134214Y-10550214D01*
X2177071Y-10550214D01*
X2205643Y-10564500D01*
X2219928Y-10578786D01*
X2234214Y-10607357D01*
X2234214Y-10693072D01*
X2219928Y-10721643D01*
X2205643Y-10735929D01*
X2177071Y-10750214D01*
X2134214Y-10750214D01*
X2405643Y-10750214D02*
X2377071Y-10735929D01*
X2362786Y-10707357D01*
X2362786Y-10450214D01*
X2634214Y-10735929D02*
X2605643Y-10750214D01*
X2548500Y-10750214D01*
X2519928Y-10735929D01*
X2505643Y-10707357D01*
X2505643Y-10593072D01*
X2519928Y-10564500D01*
X2548500Y-10550214D01*
X2605643Y-10550214D01*
X2634214Y-10564500D01*
X2648500Y-10593072D01*
X2648500Y-10621643D01*
X2505643Y-10650214D01*
X2762786Y-10735929D02*
X2791357Y-10750214D01*
X2848500Y-10750214D01*
X2877071Y-10735929D01*
X2891357Y-10707357D01*
X2891357Y-10693072D01*
X2877071Y-10664500D01*
X2848500Y-10650214D01*
X2805643Y-10650214D01*
X2777071Y-10635929D01*
X2762786Y-10607357D01*
X2762786Y-10593072D01*
X2777071Y-10564500D01*
X2805643Y-10550214D01*
X2848500Y-10550214D01*
X2877071Y-10564500D01*
X2991357Y-10864500D02*
X3005643Y-10850214D01*
X3034214Y-10807357D01*
X3048500Y-10778786D01*
X3062786Y-10735929D01*
X3077071Y-10664500D01*
X3077071Y-10607357D01*
X3062786Y-10535929D01*
X3048500Y-10493072D01*
X3034214Y-10464500D01*
X3005643Y-10421643D01*
X2991357Y-10407357D01*
X3534214Y-10864500D02*
X3519928Y-10850214D01*
X3491357Y-10807357D01*
X3477071Y-10778786D01*
X3462786Y-10735929D01*
X3448500Y-10664500D01*
X3448500Y-10607357D01*
X3462786Y-10535929D01*
X3477071Y-10493072D01*
X3491357Y-10464500D01*
X3519928Y-10421643D01*
X3534214Y-10407357D01*
X3648500Y-10550214D02*
X3648500Y-10750214D01*
X3648500Y-10578786D02*
X3662786Y-10564500D01*
X3691357Y-10550214D01*
X3734214Y-10550214D01*
X3762786Y-10564500D01*
X3777071Y-10593072D01*
X3777071Y-10750214D01*
X3962786Y-10750214D02*
X3934214Y-10735929D01*
X3919928Y-10721643D01*
X3905643Y-10693072D01*
X3905643Y-10607357D01*
X3919928Y-10578786D01*
X3934214Y-10564500D01*
X3962786Y-10550214D01*
X4005643Y-10550214D01*
X4034214Y-10564500D01*
X4048500Y-10578786D01*
X4062786Y-10607357D01*
X4062786Y-10693072D01*
X4048500Y-10721643D01*
X4034214Y-10735929D01*
X4005643Y-10750214D01*
X3962786Y-10750214D01*
X4148500Y-10550214D02*
X4262786Y-10550214D01*
X4191357Y-10450214D02*
X4191357Y-10707357D01*
X4205643Y-10735929D01*
X4234214Y-10750214D01*
X4262786Y-10750214D01*
X4591357Y-10550214D02*
X4591357Y-10850214D01*
X4591357Y-10564500D02*
X4619928Y-10550214D01*
X4677071Y-10550214D01*
X4705643Y-10564500D01*
X4719928Y-10578786D01*
X4734214Y-10607357D01*
X4734214Y-10693072D01*
X4719928Y-10721643D01*
X4705643Y-10735929D01*
X4677071Y-10750214D01*
X4619928Y-10750214D01*
X4591357Y-10735929D01*
X4905643Y-10750214D02*
X4877071Y-10735929D01*
X4862786Y-10707357D01*
X4862786Y-10450214D01*
X5148500Y-10750214D02*
X5148500Y-10593072D01*
X5134214Y-10564500D01*
X5105643Y-10550214D01*
X5048500Y-10550214D01*
X5019928Y-10564500D01*
X5148500Y-10735929D02*
X5119928Y-10750214D01*
X5048500Y-10750214D01*
X5019928Y-10735929D01*
X5005643Y-10707357D01*
X5005643Y-10678786D01*
X5019928Y-10650214D01*
X5048500Y-10635929D01*
X5119928Y-10635929D01*
X5148500Y-10621643D01*
X5248500Y-10550214D02*
X5362786Y-10550214D01*
X5291357Y-10450214D02*
X5291357Y-10707357D01*
X5305643Y-10735929D01*
X5334214Y-10750214D01*
X5362786Y-10750214D01*
X5577071Y-10735929D02*
X5548500Y-10750214D01*
X5491357Y-10750214D01*
X5462786Y-10735929D01*
X5448500Y-10707357D01*
X5448500Y-10593072D01*
X5462786Y-10564500D01*
X5491357Y-10550214D01*
X5548500Y-10550214D01*
X5577071Y-10564500D01*
X5591357Y-10593072D01*
X5591357Y-10621643D01*
X5448500Y-10650214D01*
X5848500Y-10750214D02*
X5848500Y-10450214D01*
X5848500Y-10735929D02*
X5819928Y-10750214D01*
X5762786Y-10750214D01*
X5734214Y-10735929D01*
X5719928Y-10721643D01*
X5705643Y-10693072D01*
X5705643Y-10607357D01*
X5719928Y-10578786D01*
X5734214Y-10564500D01*
X5762786Y-10550214D01*
X5819928Y-10550214D01*
X5848500Y-10564500D01*
X5962786Y-10864500D02*
X5977071Y-10850214D01*
X6005643Y-10807357D01*
X6019928Y-10778786D01*
X6034214Y-10735929D01*
X6048500Y-10664500D01*
X6048500Y-10607357D01*
X6034214Y-10535929D01*
X6019928Y-10493072D01*
X6005643Y-10464500D01*
X5977071Y-10421643D01*
X5962786Y-10407357D01*
X-4066500Y-11010500D02*
G75*
G03*
X-4066500Y-11010500I-85000J0D01*
G01*
X-3622929Y-11146214D02*
X-3794357Y-11146214D01*
X-3708643Y-11146214D02*
X-3708643Y-10846214D01*
X-3737214Y-10889072D01*
X-3765786Y-10917643D01*
X-3794357Y-10931929D01*
X-3494357Y-11117643D02*
X-3480071Y-11131929D01*
X-3494357Y-11146214D01*
X-3508643Y-11131929D01*
X-3494357Y-11117643D01*
X-3494357Y-11146214D01*
X-3380071Y-10846214D02*
X-3180071Y-10846214D01*
X-3308643Y-11146214D01*
X-3008643Y-10846214D02*
X-2980071Y-10846214D01*
X-2951500Y-10860500D01*
X-2937214Y-10874786D01*
X-2922929Y-10903357D01*
X-2908643Y-10960500D01*
X-2908643Y-11031929D01*
X-2922929Y-11089072D01*
X-2937214Y-11117643D01*
X-2951500Y-11131929D01*
X-2980071Y-11146214D01*
X-3008643Y-11146214D01*
X-3037214Y-11131929D01*
X-3051500Y-11117643D01*
X-3065786Y-11089072D01*
X-3080071Y-11031929D01*
X-3080071Y-10960500D01*
X-3065786Y-10903357D01*
X-3051500Y-10874786D01*
X-3037214Y-10860500D01*
X-3008643Y-10846214D01*
X-2722929Y-10846214D02*
X-2694357Y-10846214D01*
X-2665786Y-10860500D01*
X-2651500Y-10874786D01*
X-2637214Y-10903357D01*
X-2622929Y-10960500D01*
X-2622929Y-11031929D01*
X-2637214Y-11089072D01*
X-2651500Y-11117643D01*
X-2665786Y-11131929D01*
X-2694357Y-11146214D01*
X-2722929Y-11146214D01*
X-2751500Y-11131929D01*
X-2765786Y-11117643D01*
X-2780072Y-11089072D01*
X-2794357Y-11031929D01*
X-2794357Y-10960500D01*
X-2780072Y-10903357D01*
X-2765786Y-10874786D01*
X-2751500Y-10860500D01*
X-2722929Y-10846214D01*
X-2494357Y-11146214D02*
X-2494357Y-10946214D01*
X-2494357Y-10974786D02*
X-2480072Y-10960500D01*
X-2451500Y-10946214D01*
X-2408643Y-10946214D01*
X-2380072Y-10960500D01*
X-2365786Y-10989072D01*
X-2365786Y-11146214D01*
X-2365786Y-10989072D02*
X-2351500Y-10960500D01*
X-2322929Y-10946214D01*
X-2280072Y-10946214D01*
X-2251500Y-10960500D01*
X-2237214Y-10989072D01*
X-2237214Y-11146214D01*
X-2094357Y-11146214D02*
X-2094357Y-10946214D01*
X-2094357Y-10974786D02*
X-2080071Y-10960500D01*
X-2051500Y-10946214D01*
X-2008643Y-10946214D01*
X-1980071Y-10960500D01*
X-1965786Y-10989072D01*
X-1965786Y-11146214D01*
X-1965786Y-10989072D02*
X-1951500Y-10960500D01*
X-1922929Y-10946214D01*
X-1880071Y-10946214D01*
X-1851500Y-10960500D01*
X-1837214Y-10989072D01*
X-1837214Y-11146214D01*
X-1251500Y-10831929D02*
X-1508643Y-11217643D01*
X-865786Y-10846214D02*
X-837214Y-10846214D01*
X-808643Y-10860500D01*
X-794357Y-10874786D01*
X-780071Y-10903357D01*
X-765786Y-10960500D01*
X-765786Y-11031929D01*
X-780071Y-11089072D01*
X-794357Y-11117643D01*
X-808643Y-11131929D01*
X-837214Y-11146214D01*
X-865786Y-11146214D01*
X-894357Y-11131929D01*
X-908643Y-11117643D01*
X-922929Y-11089072D01*
X-937214Y-11031929D01*
X-937214Y-10960500D01*
X-922929Y-10903357D01*
X-908643Y-10874786D01*
X-894357Y-10860500D01*
X-865786Y-10846214D01*
X-637214Y-11117643D02*
X-622929Y-11131929D01*
X-637214Y-11146214D01*
X-651500Y-11131929D01*
X-637214Y-11117643D01*
X-637214Y-11146214D01*
X-437214Y-10846214D02*
X-408643Y-10846214D01*
X-380071Y-10860500D01*
X-365786Y-10874786D01*
X-351500Y-10903357D01*
X-337214Y-10960500D01*
X-337214Y-11031929D01*
X-351500Y-11089072D01*
X-365786Y-11117643D01*
X-380071Y-11131929D01*
X-408643Y-11146214D01*
X-437214Y-11146214D01*
X-465786Y-11131929D01*
X-480071Y-11117643D01*
X-494357Y-11089072D01*
X-508643Y-11031929D01*
X-508643Y-10960500D01*
X-494357Y-10903357D01*
X-480071Y-10874786D01*
X-465786Y-10860500D01*
X-437214Y-10846214D01*
X-80072Y-10846214D02*
X-137214Y-10846214D01*
X-165786Y-10860500D01*
X-180071Y-10874786D01*
X-208643Y-10917643D01*
X-222929Y-10974786D01*
X-222929Y-11089072D01*
X-208643Y-11117643D01*
X-194357Y-11131929D01*
X-165786Y-11146214D01*
X-108643Y-11146214D01*
X-80072Y-11131929D01*
X-65786Y-11117643D01*
X-51500Y-11089072D01*
X-51500Y-11017643D01*
X-65786Y-10989072D01*
X-80072Y-10974786D01*
X-108643Y-10960500D01*
X-165786Y-10960500D01*
X-194357Y-10974786D01*
X-208643Y-10989072D01*
X-222929Y-11017643D01*
X205643Y-10846214D02*
X148500Y-10846214D01*
X119928Y-10860500D01*
X105643Y-10874786D01*
X77071Y-10917643D01*
X62786Y-10974786D01*
X62786Y-11089072D01*
X77071Y-11117643D01*
X91357Y-11131929D01*
X119928Y-11146214D01*
X177071Y-11146214D01*
X205643Y-11131929D01*
X219928Y-11117643D01*
X234214Y-11089072D01*
X234214Y-11017643D01*
X219928Y-10989072D01*
X205643Y-10974786D01*
X177071Y-10960500D01*
X119928Y-10960500D01*
X91357Y-10974786D01*
X77071Y-10989072D01*
X62786Y-11017643D01*
X377071Y-11146214D02*
X434214Y-11146214D01*
X462786Y-11131929D01*
X477071Y-11117643D01*
X505643Y-11074786D01*
X519928Y-11017643D01*
X519928Y-10903357D01*
X505643Y-10874786D01*
X491357Y-10860500D01*
X462786Y-10846214D01*
X405643Y-10846214D01*
X377071Y-10860500D01*
X362786Y-10874786D01*
X348500Y-10903357D01*
X348500Y-10974786D01*
X362786Y-11003357D01*
X377071Y-11017643D01*
X405643Y-11031929D01*
X462786Y-11031929D01*
X491357Y-11017643D01*
X505643Y-11003357D01*
X519928Y-10974786D01*
X634214Y-10846214D02*
X634214Y-10903357D01*
X748500Y-10846214D02*
X748500Y-10903357D01*
X1191357Y-11260500D02*
X1177071Y-11246214D01*
X1148500Y-11203357D01*
X1134214Y-11174786D01*
X1119928Y-11131929D01*
X1105643Y-11060500D01*
X1105643Y-11003357D01*
X1119928Y-10931929D01*
X1134214Y-10889072D01*
X1148500Y-10860500D01*
X1177071Y-10817643D01*
X1191357Y-10803357D01*
X1462786Y-11146214D02*
X1291357Y-11146214D01*
X1377071Y-11146214D02*
X1377071Y-10846214D01*
X1348500Y-10889072D01*
X1319928Y-10917643D01*
X1291357Y-10931929D01*
X1562786Y-10846214D02*
X1762786Y-10846214D01*
X1634214Y-11146214D01*
X2005643Y-10846214D02*
X1948500Y-10846214D01*
X1919928Y-10860500D01*
X1905643Y-10874786D01*
X1877071Y-10917643D01*
X1862786Y-10974786D01*
X1862786Y-11089072D01*
X1877071Y-11117643D01*
X1891357Y-11131929D01*
X1919928Y-11146214D01*
X1977071Y-11146214D01*
X2005643Y-11131929D01*
X2019928Y-11117643D01*
X2034214Y-11089072D01*
X2034214Y-11017643D01*
X2019928Y-10989072D01*
X2005643Y-10974786D01*
X1977071Y-10960500D01*
X1919928Y-10960500D01*
X1891357Y-10974786D01*
X1877071Y-10989072D01*
X1862786Y-11017643D01*
X2391357Y-11146214D02*
X2391357Y-10846214D01*
X2519928Y-11146214D02*
X2519928Y-10989072D01*
X2505643Y-10960500D01*
X2477071Y-10946214D01*
X2434214Y-10946214D01*
X2405643Y-10960500D01*
X2391357Y-10974786D01*
X2705643Y-11146214D02*
X2677071Y-11131929D01*
X2662786Y-11117643D01*
X2648500Y-11089072D01*
X2648500Y-11003357D01*
X2662786Y-10974786D01*
X2677071Y-10960500D01*
X2705643Y-10946214D01*
X2748500Y-10946214D01*
X2777071Y-10960500D01*
X2791357Y-10974786D01*
X2805643Y-11003357D01*
X2805643Y-11089072D01*
X2791357Y-11117643D01*
X2777071Y-11131929D01*
X2748500Y-11146214D01*
X2705643Y-11146214D01*
X2977071Y-11146214D02*
X2948500Y-11131929D01*
X2934214Y-11103357D01*
X2934214Y-10846214D01*
X3205643Y-11131929D02*
X3177071Y-11146214D01*
X3119928Y-11146214D01*
X3091357Y-11131929D01*
X3077071Y-11103357D01*
X3077071Y-10989072D01*
X3091357Y-10960500D01*
X3119928Y-10946214D01*
X3177071Y-10946214D01*
X3205643Y-10960500D01*
X3219928Y-10989072D01*
X3219928Y-11017643D01*
X3077071Y-11046214D01*
X3334214Y-11131929D02*
X3362786Y-11146214D01*
X3419928Y-11146214D01*
X3448500Y-11131929D01*
X3462786Y-11103357D01*
X3462786Y-11089072D01*
X3448500Y-11060500D01*
X3419928Y-11046214D01*
X3377071Y-11046214D01*
X3348500Y-11031929D01*
X3334214Y-11003357D01*
X3334214Y-10989072D01*
X3348500Y-10960500D01*
X3377071Y-10946214D01*
X3419928Y-10946214D01*
X3448500Y-10960500D01*
X3562786Y-11260500D02*
X3577071Y-11246214D01*
X3605643Y-11203357D01*
X3619928Y-11174786D01*
X3634214Y-11131929D01*
X3648500Y-11060500D01*
X3648500Y-11003357D01*
X3634214Y-10931929D01*
X3619928Y-10889072D01*
X3605643Y-10860500D01*
X3577071Y-10817643D01*
X3562786Y-10803357D01*
X4105643Y-11260500D02*
X4091357Y-11246214D01*
X4062786Y-11203357D01*
X4048500Y-11174786D01*
X4034214Y-11131929D01*
X4019928Y-11060500D01*
X4019928Y-11003357D01*
X4034214Y-10931929D01*
X4048500Y-10889072D01*
X4062786Y-10860500D01*
X4091357Y-10817643D01*
X4105643Y-10803357D01*
X4219928Y-10946214D02*
X4219928Y-11146214D01*
X4219928Y-10974786D02*
X4234214Y-10960500D01*
X4262786Y-10946214D01*
X4305643Y-10946214D01*
X4334214Y-10960500D01*
X4348500Y-10989072D01*
X4348500Y-11146214D01*
X4534214Y-11146214D02*
X4505643Y-11131929D01*
X4491357Y-11117643D01*
X4477071Y-11089072D01*
X4477071Y-11003357D01*
X4491357Y-10974786D01*
X4505643Y-10960500D01*
X4534214Y-10946214D01*
X4577071Y-10946214D01*
X4605643Y-10960500D01*
X4619928Y-10974786D01*
X4634214Y-11003357D01*
X4634214Y-11089072D01*
X4619928Y-11117643D01*
X4605643Y-11131929D01*
X4577071Y-11146214D01*
X4534214Y-11146214D01*
X4719928Y-10946214D02*
X4834214Y-10946214D01*
X4762786Y-10846214D02*
X4762786Y-11103357D01*
X4777071Y-11131929D01*
X4805643Y-11146214D01*
X4834214Y-11146214D01*
X5162786Y-10946214D02*
X5162786Y-11246214D01*
X5162786Y-10960500D02*
X5191357Y-10946214D01*
X5248500Y-10946214D01*
X5277071Y-10960500D01*
X5291357Y-10974786D01*
X5305643Y-11003357D01*
X5305643Y-11089072D01*
X5291357Y-11117643D01*
X5277071Y-11131929D01*
X5248500Y-11146214D01*
X5191357Y-11146214D01*
X5162786Y-11131929D01*
X5477071Y-11146214D02*
X5448500Y-11131929D01*
X5434214Y-11103357D01*
X5434214Y-10846214D01*
X5719928Y-11146214D02*
X5719928Y-10989072D01*
X5705643Y-10960500D01*
X5677071Y-10946214D01*
X5619928Y-10946214D01*
X5591357Y-10960500D01*
X5719928Y-11131929D02*
X5691357Y-11146214D01*
X5619928Y-11146214D01*
X5591357Y-11131929D01*
X5577071Y-11103357D01*
X5577071Y-11074786D01*
X5591357Y-11046214D01*
X5619928Y-11031929D01*
X5691357Y-11031929D01*
X5719928Y-11017643D01*
X5819928Y-10946214D02*
X5934214Y-10946214D01*
X5862786Y-10846214D02*
X5862786Y-11103357D01*
X5877071Y-11131929D01*
X5905643Y-11146214D01*
X5934214Y-11146214D01*
X6148500Y-11131929D02*
X6119928Y-11146214D01*
X6062786Y-11146214D01*
X6034214Y-11131929D01*
X6019928Y-11103357D01*
X6019928Y-10989072D01*
X6034214Y-10960500D01*
X6062786Y-10946214D01*
X6119928Y-10946214D01*
X6148500Y-10960500D01*
X6162786Y-10989072D01*
X6162786Y-11017643D01*
X6019928Y-11046214D01*
X6419928Y-11146214D02*
X6419928Y-10846214D01*
X6419928Y-11131929D02*
X6391357Y-11146214D01*
X6334214Y-11146214D01*
X6305643Y-11131929D01*
X6291357Y-11117643D01*
X6277071Y-11089072D01*
X6277071Y-11003357D01*
X6291357Y-10974786D01*
X6305643Y-10960500D01*
X6334214Y-10946214D01*
X6391357Y-10946214D01*
X6419928Y-10960500D01*
X6534214Y-11260500D02*
X6548500Y-11246214D01*
X6577071Y-11203357D01*
X6591357Y-11174786D01*
X6605643Y-11131929D01*
X6619928Y-11060500D01*
X6619928Y-11003357D01*
X6605643Y-10931929D01*
X6591357Y-10889072D01*
X6577071Y-10860500D01*
X6548500Y-10817643D01*
X6534214Y-10803357D01*
X-4214000Y-11259000D02*
X-4214000Y-11554000D01*
X-4361500Y-11406500D02*
X-4066500Y-11406500D01*
X-3794357Y-11270786D02*
X-3780071Y-11256500D01*
X-3751500Y-11242214D01*
X-3680071Y-11242214D01*
X-3651500Y-11256500D01*
X-3637214Y-11270786D01*
X-3622929Y-11299357D01*
X-3622929Y-11327929D01*
X-3637214Y-11370786D01*
X-3808643Y-11542214D01*
X-3622929Y-11542214D01*
X-3494357Y-11513643D02*
X-3480071Y-11527929D01*
X-3494357Y-11542214D01*
X-3508643Y-11527929D01*
X-3494357Y-11513643D01*
X-3494357Y-11542214D01*
X-3337214Y-11542214D02*
X-3280071Y-11542214D01*
X-3251500Y-11527929D01*
X-3237214Y-11513643D01*
X-3208643Y-11470786D01*
X-3194357Y-11413643D01*
X-3194357Y-11299357D01*
X-3208643Y-11270786D01*
X-3222929Y-11256500D01*
X-3251500Y-11242214D01*
X-3308643Y-11242214D01*
X-3337214Y-11256500D01*
X-3351500Y-11270786D01*
X-3365786Y-11299357D01*
X-3365786Y-11370786D01*
X-3351500Y-11399357D01*
X-3337214Y-11413643D01*
X-3308643Y-11427929D01*
X-3251500Y-11427929D01*
X-3222929Y-11413643D01*
X-3208643Y-11399357D01*
X-3194357Y-11370786D01*
X-2922929Y-11242214D02*
X-3065786Y-11242214D01*
X-3080071Y-11385071D01*
X-3065786Y-11370786D01*
X-3037214Y-11356500D01*
X-2965786Y-11356500D01*
X-2937214Y-11370786D01*
X-2922929Y-11385071D01*
X-2908643Y-11413643D01*
X-2908643Y-11485071D01*
X-2922929Y-11513643D01*
X-2937214Y-11527929D01*
X-2965786Y-11542214D01*
X-3037214Y-11542214D01*
X-3065786Y-11527929D01*
X-3080071Y-11513643D01*
X-2722929Y-11242214D02*
X-2694357Y-11242214D01*
X-2665786Y-11256500D01*
X-2651500Y-11270786D01*
X-2637214Y-11299357D01*
X-2622929Y-11356500D01*
X-2622929Y-11427929D01*
X-2637214Y-11485071D01*
X-2651500Y-11513643D01*
X-2665786Y-11527929D01*
X-2694357Y-11542214D01*
X-2722929Y-11542214D01*
X-2751500Y-11527929D01*
X-2765786Y-11513643D01*
X-2780072Y-11485071D01*
X-2794357Y-11427929D01*
X-2794357Y-11356500D01*
X-2780072Y-11299357D01*
X-2765786Y-11270786D01*
X-2751500Y-11256500D01*
X-2722929Y-11242214D01*
X-2494357Y-11542214D02*
X-2494357Y-11342214D01*
X-2494357Y-11370786D02*
X-2480072Y-11356500D01*
X-2451500Y-11342214D01*
X-2408643Y-11342214D01*
X-2380072Y-11356500D01*
X-2365786Y-11385071D01*
X-2365786Y-11542214D01*
X-2365786Y-11385071D02*
X-2351500Y-11356500D01*
X-2322929Y-11342214D01*
X-2280072Y-11342214D01*
X-2251500Y-11356500D01*
X-2237214Y-11385071D01*
X-2237214Y-11542214D01*
X-2094357Y-11542214D02*
X-2094357Y-11342214D01*
X-2094357Y-11370786D02*
X-2080071Y-11356500D01*
X-2051500Y-11342214D01*
X-2008643Y-11342214D01*
X-1980071Y-11356500D01*
X-1965786Y-11385071D01*
X-1965786Y-11542214D01*
X-1965786Y-11385071D02*
X-1951500Y-11356500D01*
X-1922929Y-11342214D01*
X-1880071Y-11342214D01*
X-1851500Y-11356500D01*
X-1837214Y-11385071D01*
X-1837214Y-11542214D01*
X-1251500Y-11227929D02*
X-1508643Y-11613643D01*
X-865786Y-11242214D02*
X-837214Y-11242214D01*
X-808643Y-11256500D01*
X-794357Y-11270786D01*
X-780071Y-11299357D01*
X-765786Y-11356500D01*
X-765786Y-11427929D01*
X-780071Y-11485071D01*
X-794357Y-11513643D01*
X-808643Y-11527929D01*
X-837214Y-11542214D01*
X-865786Y-11542214D01*
X-894357Y-11527929D01*
X-908643Y-11513643D01*
X-922929Y-11485071D01*
X-937214Y-11427929D01*
X-937214Y-11356500D01*
X-922929Y-11299357D01*
X-908643Y-11270786D01*
X-894357Y-11256500D01*
X-865786Y-11242214D01*
X-637214Y-11513643D02*
X-622929Y-11527929D01*
X-637214Y-11542214D01*
X-651500Y-11527929D01*
X-637214Y-11513643D01*
X-637214Y-11542214D01*
X-337214Y-11542214D02*
X-508643Y-11542214D01*
X-422929Y-11542214D02*
X-422929Y-11242214D01*
X-451500Y-11285071D01*
X-480071Y-11313643D01*
X-508643Y-11327929D01*
X-51500Y-11542214D02*
X-222929Y-11542214D01*
X-137214Y-11542214D02*
X-137214Y-11242214D01*
X-165786Y-11285071D01*
X-194357Y-11313643D01*
X-222929Y-11327929D01*
X205643Y-11242214D02*
X148500Y-11242214D01*
X119928Y-11256500D01*
X105643Y-11270786D01*
X77071Y-11313643D01*
X62786Y-11370786D01*
X62786Y-11485071D01*
X77071Y-11513643D01*
X91357Y-11527929D01*
X119928Y-11542214D01*
X177071Y-11542214D01*
X205643Y-11527929D01*
X219928Y-11513643D01*
X234214Y-11485071D01*
X234214Y-11413643D01*
X219928Y-11385071D01*
X205643Y-11370786D01*
X177071Y-11356500D01*
X119928Y-11356500D01*
X91357Y-11370786D01*
X77071Y-11385071D01*
X62786Y-11413643D01*
X519928Y-11542214D02*
X348500Y-11542214D01*
X434214Y-11542214D02*
X434214Y-11242214D01*
X405643Y-11285071D01*
X377071Y-11313643D01*
X348500Y-11327929D01*
X634214Y-11242214D02*
X634214Y-11299357D01*
X748500Y-11242214D02*
X748500Y-11299357D01*
X1191357Y-11656500D02*
X1177071Y-11642214D01*
X1148500Y-11599357D01*
X1134214Y-11570786D01*
X1119928Y-11527929D01*
X1105643Y-11456500D01*
X1105643Y-11399357D01*
X1119928Y-11327929D01*
X1134214Y-11285071D01*
X1148500Y-11256500D01*
X1177071Y-11213643D01*
X1191357Y-11199357D01*
X1462786Y-11542214D02*
X1291357Y-11542214D01*
X1377071Y-11542214D02*
X1377071Y-11242214D01*
X1348500Y-11285071D01*
X1319928Y-11313643D01*
X1291357Y-11327929D01*
X1719928Y-11242214D02*
X1662786Y-11242214D01*
X1634214Y-11256500D01*
X1619928Y-11270786D01*
X1591357Y-11313643D01*
X1577071Y-11370786D01*
X1577071Y-11485071D01*
X1591357Y-11513643D01*
X1605643Y-11527929D01*
X1634214Y-11542214D01*
X1691357Y-11542214D01*
X1719928Y-11527929D01*
X1734214Y-11513643D01*
X1748500Y-11485071D01*
X1748500Y-11413643D01*
X1734214Y-11385071D01*
X1719928Y-11370786D01*
X1691357Y-11356500D01*
X1634214Y-11356500D01*
X1605643Y-11370786D01*
X1591357Y-11385071D01*
X1577071Y-11413643D01*
X1919928Y-11370786D02*
X1891357Y-11356500D01*
X1877071Y-11342214D01*
X1862786Y-11313643D01*
X1862786Y-11299357D01*
X1877071Y-11270786D01*
X1891357Y-11256500D01*
X1919928Y-11242214D01*
X1977071Y-11242214D01*
X2005643Y-11256500D01*
X2019928Y-11270786D01*
X2034214Y-11299357D01*
X2034214Y-11313643D01*
X2019928Y-11342214D01*
X2005643Y-11356500D01*
X1977071Y-11370786D01*
X1919928Y-11370786D01*
X1891357Y-11385071D01*
X1877071Y-11399357D01*
X1862786Y-11427929D01*
X1862786Y-11485071D01*
X1877071Y-11513643D01*
X1891357Y-11527929D01*
X1919928Y-11542214D01*
X1977071Y-11542214D01*
X2005643Y-11527929D01*
X2019928Y-11513643D01*
X2034214Y-11485071D01*
X2034214Y-11427929D01*
X2019928Y-11399357D01*
X2005643Y-11385071D01*
X1977071Y-11370786D01*
X2391357Y-11542214D02*
X2391357Y-11242214D01*
X2519928Y-11542214D02*
X2519928Y-11385071D01*
X2505643Y-11356500D01*
X2477071Y-11342214D01*
X2434214Y-11342214D01*
X2405643Y-11356500D01*
X2391357Y-11370786D01*
X2705643Y-11542214D02*
X2677071Y-11527929D01*
X2662786Y-11513643D01*
X2648500Y-11485071D01*
X2648500Y-11399357D01*
X2662786Y-11370786D01*
X2677071Y-11356500D01*
X2705643Y-11342214D01*
X2748500Y-11342214D01*
X2777071Y-11356500D01*
X2791357Y-11370786D01*
X2805643Y-11399357D01*
X2805643Y-11485071D01*
X2791357Y-11513643D01*
X2777071Y-11527929D01*
X2748500Y-11542214D01*
X2705643Y-11542214D01*
X2977071Y-11542214D02*
X2948500Y-11527929D01*
X2934214Y-11499357D01*
X2934214Y-11242214D01*
X3205643Y-11527929D02*
X3177071Y-11542214D01*
X3119928Y-11542214D01*
X3091357Y-11527929D01*
X3077071Y-11499357D01*
X3077071Y-11385071D01*
X3091357Y-11356500D01*
X3119928Y-11342214D01*
X3177071Y-11342214D01*
X3205643Y-11356500D01*
X3219928Y-11385071D01*
X3219928Y-11413643D01*
X3077071Y-11442214D01*
X3334214Y-11527929D02*
X3362786Y-11542214D01*
X3419928Y-11542214D01*
X3448500Y-11527929D01*
X3462786Y-11499357D01*
X3462786Y-11485071D01*
X3448500Y-11456500D01*
X3419928Y-11442214D01*
X3377071Y-11442214D01*
X3348500Y-11427929D01*
X3334214Y-11399357D01*
X3334214Y-11385071D01*
X3348500Y-11356500D01*
X3377071Y-11342214D01*
X3419928Y-11342214D01*
X3448500Y-11356500D01*
X3562786Y-11656500D02*
X3577071Y-11642214D01*
X3605643Y-11599357D01*
X3619928Y-11570786D01*
X3634214Y-11527929D01*
X3648500Y-11456500D01*
X3648500Y-11399357D01*
X3634214Y-11327929D01*
X3619928Y-11285071D01*
X3605643Y-11256500D01*
X3577071Y-11213643D01*
X3562786Y-11199357D01*
X4105643Y-11656500D02*
X4091357Y-11642214D01*
X4062786Y-11599357D01*
X4048500Y-11570786D01*
X4034214Y-11527929D01*
X4019928Y-11456500D01*
X4019928Y-11399357D01*
X4034214Y-11327929D01*
X4048500Y-11285071D01*
X4062786Y-11256500D01*
X4091357Y-11213643D01*
X4105643Y-11199357D01*
X4219928Y-11342214D02*
X4219928Y-11542214D01*
X4219928Y-11370786D02*
X4234214Y-11356500D01*
X4262786Y-11342214D01*
X4305643Y-11342214D01*
X4334214Y-11356500D01*
X4348500Y-11385071D01*
X4348500Y-11542214D01*
X4534214Y-11542214D02*
X4505643Y-11527929D01*
X4491357Y-11513643D01*
X4477071Y-11485071D01*
X4477071Y-11399357D01*
X4491357Y-11370786D01*
X4505643Y-11356500D01*
X4534214Y-11342214D01*
X4577071Y-11342214D01*
X4605643Y-11356500D01*
X4619928Y-11370786D01*
X4634214Y-11399357D01*
X4634214Y-11485071D01*
X4619928Y-11513643D01*
X4605643Y-11527929D01*
X4577071Y-11542214D01*
X4534214Y-11542214D01*
X4719928Y-11342214D02*
X4834214Y-11342214D01*
X4762786Y-11242214D02*
X4762786Y-11499357D01*
X4777071Y-11527929D01*
X4805643Y-11542214D01*
X4834214Y-11542214D01*
X5162786Y-11342214D02*
X5162786Y-11642214D01*
X5162786Y-11356500D02*
X5191357Y-11342214D01*
X5248500Y-11342214D01*
X5277071Y-11356500D01*
X5291357Y-11370786D01*
X5305643Y-11399357D01*
X5305643Y-11485071D01*
X5291357Y-11513643D01*
X5277071Y-11527929D01*
X5248500Y-11542214D01*
X5191357Y-11542214D01*
X5162786Y-11527929D01*
X5477071Y-11542214D02*
X5448500Y-11527929D01*
X5434214Y-11499357D01*
X5434214Y-11242214D01*
X5719928Y-11542214D02*
X5719928Y-11385071D01*
X5705643Y-11356500D01*
X5677071Y-11342214D01*
X5619928Y-11342214D01*
X5591357Y-11356500D01*
X5719928Y-11527929D02*
X5691357Y-11542214D01*
X5619928Y-11542214D01*
X5591357Y-11527929D01*
X5577071Y-11499357D01*
X5577071Y-11470786D01*
X5591357Y-11442214D01*
X5619928Y-11427929D01*
X5691357Y-11427929D01*
X5719928Y-11413643D01*
X5819928Y-11342214D02*
X5934214Y-11342214D01*
X5862786Y-11242214D02*
X5862786Y-11499357D01*
X5877071Y-11527929D01*
X5905643Y-11542214D01*
X5934214Y-11542214D01*
X6148500Y-11527929D02*
X6119928Y-11542214D01*
X6062786Y-11542214D01*
X6034214Y-11527929D01*
X6019928Y-11499357D01*
X6019928Y-11385071D01*
X6034214Y-11356500D01*
X6062786Y-11342214D01*
X6119928Y-11342214D01*
X6148500Y-11356500D01*
X6162786Y-11385071D01*
X6162786Y-11413643D01*
X6019928Y-11442214D01*
X6419928Y-11542214D02*
X6419928Y-11242214D01*
X6419928Y-11527929D02*
X6391357Y-11542214D01*
X6334214Y-11542214D01*
X6305643Y-11527929D01*
X6291357Y-11513643D01*
X6277071Y-11485071D01*
X6277071Y-11399357D01*
X6291357Y-11370786D01*
X6305643Y-11356500D01*
X6334214Y-11342214D01*
X6391357Y-11342214D01*
X6419928Y-11356500D01*
X6534214Y-11656500D02*
X6548500Y-11642214D01*
X6577071Y-11599357D01*
X6591357Y-11570786D01*
X6605643Y-11527929D01*
X6619928Y-11456500D01*
X6619928Y-11399357D01*
X6605643Y-11327929D01*
X6591357Y-11285071D01*
X6577071Y-11256500D01*
X6548500Y-11213643D01*
X6534214Y-11199357D01*
X-4110433Y-11937567D02*
X-4110433Y-11725433D01*
X-4322567Y-11725433D01*
X-4322567Y-11937567D01*
X-4110433Y-11937567D01*
X-3808643Y-11667214D02*
X-3622929Y-11667214D01*
X-3722929Y-11781500D01*
X-3680071Y-11781500D01*
X-3651500Y-11795786D01*
X-3637214Y-11810071D01*
X-3622929Y-11838643D01*
X-3622929Y-11910071D01*
X-3637214Y-11938643D01*
X-3651500Y-11952929D01*
X-3680071Y-11967214D01*
X-3765786Y-11967214D01*
X-3794357Y-11952929D01*
X-3808643Y-11938643D01*
X-3494357Y-11938643D02*
X-3480071Y-11952929D01*
X-3494357Y-11967214D01*
X-3508643Y-11952929D01*
X-3494357Y-11938643D01*
X-3494357Y-11967214D01*
X-3294357Y-11667214D02*
X-3265786Y-11667214D01*
X-3237214Y-11681500D01*
X-3222929Y-11695786D01*
X-3208643Y-11724357D01*
X-3194357Y-11781500D01*
X-3194357Y-11852929D01*
X-3208643Y-11910071D01*
X-3222929Y-11938643D01*
X-3237214Y-11952929D01*
X-3265786Y-11967214D01*
X-3294357Y-11967214D01*
X-3322929Y-11952929D01*
X-3337214Y-11938643D01*
X-3351500Y-11910071D01*
X-3365786Y-11852929D01*
X-3365786Y-11781500D01*
X-3351500Y-11724357D01*
X-3337214Y-11695786D01*
X-3322929Y-11681500D01*
X-3294357Y-11667214D01*
X-3008643Y-11667214D02*
X-2980071Y-11667214D01*
X-2951500Y-11681500D01*
X-2937214Y-11695786D01*
X-2922929Y-11724357D01*
X-2908643Y-11781500D01*
X-2908643Y-11852929D01*
X-2922929Y-11910071D01*
X-2937214Y-11938643D01*
X-2951500Y-11952929D01*
X-2980071Y-11967214D01*
X-3008643Y-11967214D01*
X-3037214Y-11952929D01*
X-3051500Y-11938643D01*
X-3065786Y-11910071D01*
X-3080071Y-11852929D01*
X-3080071Y-11781500D01*
X-3065786Y-11724357D01*
X-3051500Y-11695786D01*
X-3037214Y-11681500D01*
X-3008643Y-11667214D01*
X-2722929Y-11667214D02*
X-2694357Y-11667214D01*
X-2665786Y-11681500D01*
X-2651500Y-11695786D01*
X-2637214Y-11724357D01*
X-2622929Y-11781500D01*
X-2622929Y-11852929D01*
X-2637214Y-11910071D01*
X-2651500Y-11938643D01*
X-2665786Y-11952929D01*
X-2694357Y-11967214D01*
X-2722929Y-11967214D01*
X-2751500Y-11952929D01*
X-2765786Y-11938643D01*
X-2780072Y-11910071D01*
X-2794357Y-11852929D01*
X-2794357Y-11781500D01*
X-2780072Y-11724357D01*
X-2765786Y-11695786D01*
X-2751500Y-11681500D01*
X-2722929Y-11667214D01*
X-2494357Y-11967214D02*
X-2494357Y-11767214D01*
X-2494357Y-11795786D02*
X-2480072Y-11781500D01*
X-2451500Y-11767214D01*
X-2408643Y-11767214D01*
X-2380072Y-11781500D01*
X-2365786Y-11810071D01*
X-2365786Y-11967214D01*
X-2365786Y-11810071D02*
X-2351500Y-11781500D01*
X-2322929Y-11767214D01*
X-2280072Y-11767214D01*
X-2251500Y-11781500D01*
X-2237214Y-11810071D01*
X-2237214Y-11967214D01*
X-2094357Y-11967214D02*
X-2094357Y-11767214D01*
X-2094357Y-11795786D02*
X-2080071Y-11781500D01*
X-2051500Y-11767214D01*
X-2008643Y-11767214D01*
X-1980071Y-11781500D01*
X-1965786Y-11810071D01*
X-1965786Y-11967214D01*
X-1965786Y-11810071D02*
X-1951500Y-11781500D01*
X-1922929Y-11767214D01*
X-1880071Y-11767214D01*
X-1851500Y-11781500D01*
X-1837214Y-11810071D01*
X-1837214Y-11967214D01*
X-1251500Y-11652929D02*
X-1508643Y-12038643D01*
X-865786Y-11667214D02*
X-837214Y-11667214D01*
X-808643Y-11681500D01*
X-794357Y-11695786D01*
X-780071Y-11724357D01*
X-765786Y-11781500D01*
X-765786Y-11852929D01*
X-780071Y-11910071D01*
X-794357Y-11938643D01*
X-808643Y-11952929D01*
X-837214Y-11967214D01*
X-865786Y-11967214D01*
X-894357Y-11952929D01*
X-908643Y-11938643D01*
X-922929Y-11910071D01*
X-937214Y-11852929D01*
X-937214Y-11781500D01*
X-922929Y-11724357D01*
X-908643Y-11695786D01*
X-894357Y-11681500D01*
X-865786Y-11667214D01*
X-637214Y-11938643D02*
X-622929Y-11952929D01*
X-637214Y-11967214D01*
X-651500Y-11952929D01*
X-637214Y-11938643D01*
X-637214Y-11967214D01*
X-337214Y-11967214D02*
X-508643Y-11967214D01*
X-422929Y-11967214D02*
X-422929Y-11667214D01*
X-451500Y-11710071D01*
X-480071Y-11738643D01*
X-508643Y-11752929D01*
X-51500Y-11967214D02*
X-222929Y-11967214D01*
X-137214Y-11967214D02*
X-137214Y-11667214D01*
X-165786Y-11710071D01*
X-194357Y-11738643D01*
X-222929Y-11752929D01*
X119928Y-11795786D02*
X91357Y-11781500D01*
X77071Y-11767214D01*
X62786Y-11738643D01*
X62786Y-11724357D01*
X77071Y-11695786D01*
X91357Y-11681500D01*
X119928Y-11667214D01*
X177071Y-11667214D01*
X205643Y-11681500D01*
X219928Y-11695786D01*
X234214Y-11724357D01*
X234214Y-11738643D01*
X219928Y-11767214D01*
X205643Y-11781500D01*
X177071Y-11795786D01*
X119928Y-11795786D01*
X91357Y-11810071D01*
X77071Y-11824357D01*
X62786Y-11852929D01*
X62786Y-11910071D01*
X77071Y-11938643D01*
X91357Y-11952929D01*
X119928Y-11967214D01*
X177071Y-11967214D01*
X205643Y-11952929D01*
X219928Y-11938643D01*
X234214Y-11910071D01*
X234214Y-11852929D01*
X219928Y-11824357D01*
X205643Y-11810071D01*
X177071Y-11795786D01*
X519928Y-11967214D02*
X348500Y-11967214D01*
X434214Y-11967214D02*
X434214Y-11667214D01*
X405643Y-11710071D01*
X377071Y-11738643D01*
X348500Y-11752929D01*
X634214Y-11667214D02*
X634214Y-11724357D01*
X748500Y-11667214D02*
X748500Y-11724357D01*
X1191357Y-12081500D02*
X1177071Y-12067214D01*
X1148500Y-12024357D01*
X1134214Y-11995786D01*
X1119928Y-11952929D01*
X1105643Y-11881500D01*
X1105643Y-11824357D01*
X1119928Y-11752929D01*
X1134214Y-11710071D01*
X1148500Y-11681500D01*
X1177071Y-11638643D01*
X1191357Y-11624357D01*
X1434214Y-11767214D02*
X1434214Y-11967214D01*
X1362786Y-11652929D02*
X1291357Y-11867214D01*
X1477071Y-11867214D01*
X1819928Y-11967214D02*
X1819928Y-11667214D01*
X1948500Y-11967214D02*
X1948500Y-11810071D01*
X1934214Y-11781500D01*
X1905643Y-11767214D01*
X1862786Y-11767214D01*
X1834214Y-11781500D01*
X1819928Y-11795786D01*
X2134214Y-11967214D02*
X2105643Y-11952929D01*
X2091357Y-11938643D01*
X2077071Y-11910071D01*
X2077071Y-11824357D01*
X2091357Y-11795786D01*
X2105643Y-11781500D01*
X2134214Y-11767214D01*
X2177071Y-11767214D01*
X2205643Y-11781500D01*
X2219928Y-11795786D01*
X2234214Y-11824357D01*
X2234214Y-11910071D01*
X2219928Y-11938643D01*
X2205643Y-11952929D01*
X2177071Y-11967214D01*
X2134214Y-11967214D01*
X2405643Y-11967214D02*
X2377071Y-11952929D01*
X2362786Y-11924357D01*
X2362786Y-11667214D01*
X2634214Y-11952929D02*
X2605643Y-11967214D01*
X2548500Y-11967214D01*
X2519928Y-11952929D01*
X2505643Y-11924357D01*
X2505643Y-11810071D01*
X2519928Y-11781500D01*
X2548500Y-11767214D01*
X2605643Y-11767214D01*
X2634214Y-11781500D01*
X2648500Y-11810071D01*
X2648500Y-11838643D01*
X2505643Y-11867214D01*
X2762786Y-11952929D02*
X2791357Y-11967214D01*
X2848500Y-11967214D01*
X2877071Y-11952929D01*
X2891357Y-11924357D01*
X2891357Y-11910071D01*
X2877071Y-11881500D01*
X2848500Y-11867214D01*
X2805643Y-11867214D01*
X2777071Y-11852929D01*
X2762786Y-11824357D01*
X2762786Y-11810071D01*
X2777071Y-11781500D01*
X2805643Y-11767214D01*
X2848500Y-11767214D01*
X2877071Y-11781500D01*
X2991357Y-12081500D02*
X3005643Y-12067214D01*
X3034214Y-12024357D01*
X3048500Y-11995786D01*
X3062786Y-11952929D01*
X3077071Y-11881500D01*
X3077071Y-11824357D01*
X3062786Y-11752929D01*
X3048500Y-11710071D01*
X3034214Y-11681500D01*
X3005643Y-11638643D01*
X2991357Y-11624357D01*
X3534214Y-12081500D02*
X3519928Y-12067214D01*
X3491357Y-12024357D01*
X3477071Y-11995786D01*
X3462786Y-11952929D01*
X3448500Y-11881500D01*
X3448500Y-11824357D01*
X3462786Y-11752929D01*
X3477071Y-11710071D01*
X3491357Y-11681500D01*
X3519928Y-11638643D01*
X3534214Y-11624357D01*
X3648500Y-11767214D02*
X3648500Y-11967214D01*
X3648500Y-11795786D02*
X3662786Y-11781500D01*
X3691357Y-11767214D01*
X3734214Y-11767214D01*
X3762786Y-11781500D01*
X3777071Y-11810071D01*
X3777071Y-11967214D01*
X3962786Y-11967214D02*
X3934214Y-11952929D01*
X3919928Y-11938643D01*
X3905643Y-11910071D01*
X3905643Y-11824357D01*
X3919928Y-11795786D01*
X3934214Y-11781500D01*
X3962786Y-11767214D01*
X4005643Y-11767214D01*
X4034214Y-11781500D01*
X4048500Y-11795786D01*
X4062786Y-11824357D01*
X4062786Y-11910071D01*
X4048500Y-11938643D01*
X4034214Y-11952929D01*
X4005643Y-11967214D01*
X3962786Y-11967214D01*
X4148500Y-11767214D02*
X4262786Y-11767214D01*
X4191357Y-11667214D02*
X4191357Y-11924357D01*
X4205643Y-11952929D01*
X4234214Y-11967214D01*
X4262786Y-11967214D01*
X4591357Y-11767214D02*
X4591357Y-12067214D01*
X4591357Y-11781500D02*
X4619928Y-11767214D01*
X4677071Y-11767214D01*
X4705643Y-11781500D01*
X4719928Y-11795786D01*
X4734214Y-11824357D01*
X4734214Y-11910071D01*
X4719928Y-11938643D01*
X4705643Y-11952929D01*
X4677071Y-11967214D01*
X4619928Y-11967214D01*
X4591357Y-11952929D01*
X4905643Y-11967214D02*
X4877071Y-11952929D01*
X4862786Y-11924357D01*
X4862786Y-11667214D01*
X5148500Y-11967214D02*
X5148500Y-11810071D01*
X5134214Y-11781500D01*
X5105643Y-11767214D01*
X5048500Y-11767214D01*
X5019928Y-11781500D01*
X5148500Y-11952929D02*
X5119928Y-11967214D01*
X5048500Y-11967214D01*
X5019928Y-11952929D01*
X5005643Y-11924357D01*
X5005643Y-11895786D01*
X5019928Y-11867214D01*
X5048500Y-11852929D01*
X5119928Y-11852929D01*
X5148500Y-11838643D01*
X5248500Y-11767214D02*
X5362786Y-11767214D01*
X5291357Y-11667214D02*
X5291357Y-11924357D01*
X5305643Y-11952929D01*
X5334214Y-11967214D01*
X5362786Y-11967214D01*
X5577071Y-11952929D02*
X5548500Y-11967214D01*
X5491357Y-11967214D01*
X5462786Y-11952929D01*
X5448500Y-11924357D01*
X5448500Y-11810071D01*
X5462786Y-11781500D01*
X5491357Y-11767214D01*
X5548500Y-11767214D01*
X5577071Y-11781500D01*
X5591357Y-11810071D01*
X5591357Y-11838643D01*
X5448500Y-11867214D01*
X5848500Y-11967214D02*
X5848500Y-11667214D01*
X5848500Y-11952929D02*
X5819928Y-11967214D01*
X5762786Y-11967214D01*
X5734214Y-11952929D01*
X5719928Y-11938643D01*
X5705643Y-11910071D01*
X5705643Y-11824357D01*
X5719928Y-11795786D01*
X5734214Y-11781500D01*
X5762786Y-11767214D01*
X5819928Y-11767214D01*
X5848500Y-11781500D01*
X5962786Y-12081500D02*
X5977071Y-12067214D01*
X6005643Y-12024357D01*
X6019928Y-11995786D01*
X6034214Y-11952929D01*
X6048500Y-11881500D01*
X6048500Y-11824357D01*
X6034214Y-11752929D01*
X6019928Y-11710071D01*
X6005643Y-11681500D01*
X5977071Y-11638643D01*
X5962786Y-11624357D01*
X-4219000Y-12414000D02*
X-4066500Y-12261500D01*
X-4219000Y-12109000D01*
X-4371500Y-12261500D01*
X-4219000Y-12414000D01*
X-3808643Y-12097214D02*
X-3622929Y-12097214D01*
X-3722929Y-12211500D01*
X-3680071Y-12211500D01*
X-3651500Y-12225786D01*
X-3637214Y-12240071D01*
X-3622929Y-12268643D01*
X-3622929Y-12340071D01*
X-3637214Y-12368643D01*
X-3651500Y-12382929D01*
X-3680071Y-12397214D01*
X-3765786Y-12397214D01*
X-3794357Y-12382929D01*
X-3808643Y-12368643D01*
X-3494357Y-12368643D02*
X-3480071Y-12382929D01*
X-3494357Y-12397214D01*
X-3508643Y-12382929D01*
X-3494357Y-12368643D01*
X-3494357Y-12397214D01*
X-3294357Y-12097214D02*
X-3265786Y-12097214D01*
X-3237214Y-12111500D01*
X-3222929Y-12125786D01*
X-3208643Y-12154357D01*
X-3194357Y-12211500D01*
X-3194357Y-12282929D01*
X-3208643Y-12340071D01*
X-3222929Y-12368643D01*
X-3237214Y-12382929D01*
X-3265786Y-12397214D01*
X-3294357Y-12397214D01*
X-3322929Y-12382929D01*
X-3337214Y-12368643D01*
X-3351500Y-12340071D01*
X-3365786Y-12282929D01*
X-3365786Y-12211500D01*
X-3351500Y-12154357D01*
X-3337214Y-12125786D01*
X-3322929Y-12111500D01*
X-3294357Y-12097214D01*
X-2922929Y-12097214D02*
X-3065786Y-12097214D01*
X-3080071Y-12240071D01*
X-3065786Y-12225786D01*
X-3037214Y-12211500D01*
X-2965786Y-12211500D01*
X-2937214Y-12225786D01*
X-2922929Y-12240071D01*
X-2908643Y-12268643D01*
X-2908643Y-12340071D01*
X-2922929Y-12368643D01*
X-2937214Y-12382929D01*
X-2965786Y-12397214D01*
X-3037214Y-12397214D01*
X-3065786Y-12382929D01*
X-3080071Y-12368643D01*
X-2722929Y-12097214D02*
X-2694357Y-12097214D01*
X-2665786Y-12111500D01*
X-2651500Y-12125786D01*
X-2637214Y-12154357D01*
X-2622929Y-12211500D01*
X-2622929Y-12282929D01*
X-2637214Y-12340071D01*
X-2651500Y-12368643D01*
X-2665786Y-12382929D01*
X-2694357Y-12397214D01*
X-2722929Y-12397214D01*
X-2751500Y-12382929D01*
X-2765786Y-12368643D01*
X-2780072Y-12340071D01*
X-2794357Y-12282929D01*
X-2794357Y-12211500D01*
X-2780072Y-12154357D01*
X-2765786Y-12125786D01*
X-2751500Y-12111500D01*
X-2722929Y-12097214D01*
X-2494357Y-12397214D02*
X-2494357Y-12197214D01*
X-2494357Y-12225786D02*
X-2480072Y-12211500D01*
X-2451500Y-12197214D01*
X-2408643Y-12197214D01*
X-2380072Y-12211500D01*
X-2365786Y-12240071D01*
X-2365786Y-12397214D01*
X-2365786Y-12240071D02*
X-2351500Y-12211500D01*
X-2322929Y-12197214D01*
X-2280072Y-12197214D01*
X-2251500Y-12211500D01*
X-2237214Y-12240071D01*
X-2237214Y-12397214D01*
X-2094357Y-12397214D02*
X-2094357Y-12197214D01*
X-2094357Y-12225786D02*
X-2080071Y-12211500D01*
X-2051500Y-12197214D01*
X-2008643Y-12197214D01*
X-1980071Y-12211500D01*
X-1965786Y-12240071D01*
X-1965786Y-12397214D01*
X-1965786Y-12240071D02*
X-1951500Y-12211500D01*
X-1922929Y-12197214D01*
X-1880071Y-12197214D01*
X-1851500Y-12211500D01*
X-1837214Y-12240071D01*
X-1837214Y-12397214D01*
X-1251500Y-12082929D02*
X-1508643Y-12468643D01*
X-865786Y-12097214D02*
X-837214Y-12097214D01*
X-808643Y-12111500D01*
X-794357Y-12125786D01*
X-780071Y-12154357D01*
X-765786Y-12211500D01*
X-765786Y-12282929D01*
X-780071Y-12340071D01*
X-794357Y-12368643D01*
X-808643Y-12382929D01*
X-837214Y-12397214D01*
X-865786Y-12397214D01*
X-894357Y-12382929D01*
X-908643Y-12368643D01*
X-922929Y-12340071D01*
X-937214Y-12282929D01*
X-937214Y-12211500D01*
X-922929Y-12154357D01*
X-908643Y-12125786D01*
X-894357Y-12111500D01*
X-865786Y-12097214D01*
X-637214Y-12368643D02*
X-622929Y-12382929D01*
X-637214Y-12397214D01*
X-651500Y-12382929D01*
X-637214Y-12368643D01*
X-637214Y-12397214D01*
X-337214Y-12397214D02*
X-508643Y-12397214D01*
X-422929Y-12397214D02*
X-422929Y-12097214D01*
X-451500Y-12140071D01*
X-480071Y-12168643D01*
X-508643Y-12182929D01*
X-222929Y-12125786D02*
X-208643Y-12111500D01*
X-180071Y-12097214D01*
X-108643Y-12097214D01*
X-80072Y-12111500D01*
X-65786Y-12125786D01*
X-51500Y-12154357D01*
X-51500Y-12182929D01*
X-65786Y-12225786D01*
X-237214Y-12397214D01*
X-51500Y-12397214D01*
X134214Y-12097214D02*
X162786Y-12097214D01*
X191357Y-12111500D01*
X205643Y-12125786D01*
X219928Y-12154357D01*
X234214Y-12211500D01*
X234214Y-12282929D01*
X219928Y-12340071D01*
X205643Y-12368643D01*
X191357Y-12382929D01*
X162786Y-12397214D01*
X134214Y-12397214D01*
X105643Y-12382929D01*
X91357Y-12368643D01*
X77071Y-12340071D01*
X62786Y-12282929D01*
X62786Y-12211500D01*
X77071Y-12154357D01*
X91357Y-12125786D01*
X105643Y-12111500D01*
X134214Y-12097214D01*
X519928Y-12397214D02*
X348500Y-12397214D01*
X434214Y-12397214D02*
X434214Y-12097214D01*
X405643Y-12140071D01*
X377071Y-12168643D01*
X348500Y-12182929D01*
X634214Y-12097214D02*
X634214Y-12154357D01*
X748500Y-12097214D02*
X748500Y-12154357D01*
X1191357Y-12511500D02*
X1177071Y-12497214D01*
X1148500Y-12454357D01*
X1134214Y-12425786D01*
X1119928Y-12382929D01*
X1105643Y-12311500D01*
X1105643Y-12254357D01*
X1119928Y-12182929D01*
X1134214Y-12140071D01*
X1148500Y-12111500D01*
X1177071Y-12068643D01*
X1191357Y-12054357D01*
X1348500Y-12225786D02*
X1319928Y-12211500D01*
X1305643Y-12197214D01*
X1291357Y-12168643D01*
X1291357Y-12154357D01*
X1305643Y-12125786D01*
X1319928Y-12111500D01*
X1348500Y-12097214D01*
X1405643Y-12097214D01*
X1434214Y-12111500D01*
X1448500Y-12125786D01*
X1462786Y-12154357D01*
X1462786Y-12168643D01*
X1448500Y-12197214D01*
X1434214Y-12211500D01*
X1405643Y-12225786D01*
X1348500Y-12225786D01*
X1319928Y-12240071D01*
X1305643Y-12254357D01*
X1291357Y-12282929D01*
X1291357Y-12340071D01*
X1305643Y-12368643D01*
X1319928Y-12382929D01*
X1348500Y-12397214D01*
X1405643Y-12397214D01*
X1434214Y-12382929D01*
X1448500Y-12368643D01*
X1462786Y-12340071D01*
X1462786Y-12282929D01*
X1448500Y-12254357D01*
X1434214Y-12240071D01*
X1405643Y-12225786D01*
X1819928Y-12397214D02*
X1819928Y-12097214D01*
X1948500Y-12397214D02*
X1948500Y-12240071D01*
X1934214Y-12211500D01*
X1905643Y-12197214D01*
X1862786Y-12197214D01*
X1834214Y-12211500D01*
X1819928Y-12225786D01*
X2134214Y-12397214D02*
X2105643Y-12382929D01*
X2091357Y-12368643D01*
X2077071Y-12340071D01*
X2077071Y-12254357D01*
X2091357Y-12225786D01*
X2105643Y-12211500D01*
X2134214Y-12197214D01*
X2177071Y-12197214D01*
X2205643Y-12211500D01*
X2219928Y-12225786D01*
X2234214Y-12254357D01*
X2234214Y-12340071D01*
X2219928Y-12368643D01*
X2205643Y-12382929D01*
X2177071Y-12397214D01*
X2134214Y-12397214D01*
X2405643Y-12397214D02*
X2377071Y-12382929D01*
X2362786Y-12354357D01*
X2362786Y-12097214D01*
X2634214Y-12382929D02*
X2605643Y-12397214D01*
X2548500Y-12397214D01*
X2519928Y-12382929D01*
X2505643Y-12354357D01*
X2505643Y-12240071D01*
X2519928Y-12211500D01*
X2548500Y-12197214D01*
X2605643Y-12197214D01*
X2634214Y-12211500D01*
X2648500Y-12240071D01*
X2648500Y-12268643D01*
X2505643Y-12297214D01*
X2762786Y-12382929D02*
X2791357Y-12397214D01*
X2848500Y-12397214D01*
X2877071Y-12382929D01*
X2891357Y-12354357D01*
X2891357Y-12340071D01*
X2877071Y-12311500D01*
X2848500Y-12297214D01*
X2805643Y-12297214D01*
X2777071Y-12282929D01*
X2762786Y-12254357D01*
X2762786Y-12240071D01*
X2777071Y-12211500D01*
X2805643Y-12197214D01*
X2848500Y-12197214D01*
X2877071Y-12211500D01*
X2991357Y-12511500D02*
X3005643Y-12497214D01*
X3034214Y-12454357D01*
X3048500Y-12425786D01*
X3062786Y-12382929D01*
X3077071Y-12311500D01*
X3077071Y-12254357D01*
X3062786Y-12182929D01*
X3048500Y-12140071D01*
X3034214Y-12111500D01*
X3005643Y-12068643D01*
X2991357Y-12054357D01*
X3534214Y-12511500D02*
X3519928Y-12497214D01*
X3491357Y-12454357D01*
X3477071Y-12425786D01*
X3462786Y-12382929D01*
X3448500Y-12311500D01*
X3448500Y-12254357D01*
X3462786Y-12182929D01*
X3477071Y-12140071D01*
X3491357Y-12111500D01*
X3519928Y-12068643D01*
X3534214Y-12054357D01*
X3648500Y-12197214D02*
X3648500Y-12397214D01*
X3648500Y-12225786D02*
X3662786Y-12211500D01*
X3691357Y-12197214D01*
X3734214Y-12197214D01*
X3762786Y-12211500D01*
X3777071Y-12240071D01*
X3777071Y-12397214D01*
X3962786Y-12397214D02*
X3934214Y-12382929D01*
X3919928Y-12368643D01*
X3905643Y-12340071D01*
X3905643Y-12254357D01*
X3919928Y-12225786D01*
X3934214Y-12211500D01*
X3962786Y-12197214D01*
X4005643Y-12197214D01*
X4034214Y-12211500D01*
X4048500Y-12225786D01*
X4062786Y-12254357D01*
X4062786Y-12340071D01*
X4048500Y-12368643D01*
X4034214Y-12382929D01*
X4005643Y-12397214D01*
X3962786Y-12397214D01*
X4148500Y-12197214D02*
X4262786Y-12197214D01*
X4191357Y-12097214D02*
X4191357Y-12354357D01*
X4205643Y-12382929D01*
X4234214Y-12397214D01*
X4262786Y-12397214D01*
X4591357Y-12197214D02*
X4591357Y-12497214D01*
X4591357Y-12211500D02*
X4619928Y-12197214D01*
X4677071Y-12197214D01*
X4705643Y-12211500D01*
X4719928Y-12225786D01*
X4734214Y-12254357D01*
X4734214Y-12340071D01*
X4719928Y-12368643D01*
X4705643Y-12382929D01*
X4677071Y-12397214D01*
X4619928Y-12397214D01*
X4591357Y-12382929D01*
X4905643Y-12397214D02*
X4877071Y-12382929D01*
X4862786Y-12354357D01*
X4862786Y-12097214D01*
X5148500Y-12397214D02*
X5148500Y-12240071D01*
X5134214Y-12211500D01*
X5105643Y-12197214D01*
X5048500Y-12197214D01*
X5019928Y-12211500D01*
X5148500Y-12382929D02*
X5119928Y-12397214D01*
X5048500Y-12397214D01*
X5019928Y-12382929D01*
X5005643Y-12354357D01*
X5005643Y-12325786D01*
X5019928Y-12297214D01*
X5048500Y-12282929D01*
X5119928Y-12282929D01*
X5148500Y-12268643D01*
X5248500Y-12197214D02*
X5362786Y-12197214D01*
X5291357Y-12097214D02*
X5291357Y-12354357D01*
X5305643Y-12382929D01*
X5334214Y-12397214D01*
X5362786Y-12397214D01*
X5577071Y-12382929D02*
X5548500Y-12397214D01*
X5491357Y-12397214D01*
X5462786Y-12382929D01*
X5448500Y-12354357D01*
X5448500Y-12240071D01*
X5462786Y-12211500D01*
X5491357Y-12197214D01*
X5548500Y-12197214D01*
X5577071Y-12211500D01*
X5591357Y-12240071D01*
X5591357Y-12268643D01*
X5448500Y-12297214D01*
X5848500Y-12397214D02*
X5848500Y-12097214D01*
X5848500Y-12382929D02*
X5819928Y-12397214D01*
X5762786Y-12397214D01*
X5734214Y-12382929D01*
X5719928Y-12368643D01*
X5705643Y-12340071D01*
X5705643Y-12254357D01*
X5719928Y-12225786D01*
X5734214Y-12211500D01*
X5762786Y-12197214D01*
X5819928Y-12197214D01*
X5848500Y-12211500D01*
X5962786Y-12511500D02*
X5977071Y-12497214D01*
X6005643Y-12454357D01*
X6019928Y-12425786D01*
X6034214Y-12382929D01*
X6048500Y-12311500D01*
X6048500Y-12254357D01*
X6034214Y-12182929D01*
X6019928Y-12140071D01*
X6005643Y-12111500D01*
X5977071Y-12068643D01*
X5962786Y-12054357D01*
X-4466500Y-12496500D02*
X-4066500Y-12896500D01*
X-4066500Y-12496500D02*
X-4466500Y-12896500D01*
X-4066500Y-12696500D02*
G75*
G03*
X-4066500Y-12696500I-200000J0D01*
G01*
X-3651500Y-12632214D02*
X-3651500Y-12832214D01*
X-3722929Y-12517929D02*
X-3794357Y-12732214D01*
X-3608643Y-12732214D01*
X-3494357Y-12803643D02*
X-3480071Y-12817929D01*
X-3494357Y-12832214D01*
X-3508643Y-12817929D01*
X-3494357Y-12803643D01*
X-3494357Y-12832214D01*
X-3294357Y-12532214D02*
X-3265786Y-12532214D01*
X-3237214Y-12546500D01*
X-3222929Y-12560786D01*
X-3208643Y-12589357D01*
X-3194357Y-12646500D01*
X-3194357Y-12717929D01*
X-3208643Y-12775071D01*
X-3222929Y-12803643D01*
X-3237214Y-12817929D01*
X-3265786Y-12832214D01*
X-3294357Y-12832214D01*
X-3322929Y-12817929D01*
X-3337214Y-12803643D01*
X-3351500Y-12775071D01*
X-3365786Y-12717929D01*
X-3365786Y-12646500D01*
X-3351500Y-12589357D01*
X-3337214Y-12560786D01*
X-3322929Y-12546500D01*
X-3294357Y-12532214D01*
X-3008643Y-12532214D02*
X-2980071Y-12532214D01*
X-2951500Y-12546500D01*
X-2937214Y-12560786D01*
X-2922929Y-12589357D01*
X-2908643Y-12646500D01*
X-2908643Y-12717929D01*
X-2922929Y-12775071D01*
X-2937214Y-12803643D01*
X-2951500Y-12817929D01*
X-2980071Y-12832214D01*
X-3008643Y-12832214D01*
X-3037214Y-12817929D01*
X-3051500Y-12803643D01*
X-3065786Y-12775071D01*
X-3080071Y-12717929D01*
X-3080071Y-12646500D01*
X-3065786Y-12589357D01*
X-3051500Y-12560786D01*
X-3037214Y-12546500D01*
X-3008643Y-12532214D01*
X-2722929Y-12532214D02*
X-2694357Y-12532214D01*
X-2665786Y-12546500D01*
X-2651500Y-12560786D01*
X-2637214Y-12589357D01*
X-2622929Y-12646500D01*
X-2622929Y-12717929D01*
X-2637214Y-12775071D01*
X-2651500Y-12803643D01*
X-2665786Y-12817929D01*
X-2694357Y-12832214D01*
X-2722929Y-12832214D01*
X-2751500Y-12817929D01*
X-2765786Y-12803643D01*
X-2780072Y-12775071D01*
X-2794357Y-12717929D01*
X-2794357Y-12646500D01*
X-2780072Y-12589357D01*
X-2765786Y-12560786D01*
X-2751500Y-12546500D01*
X-2722929Y-12532214D01*
X-2494357Y-12832214D02*
X-2494357Y-12632214D01*
X-2494357Y-12660786D02*
X-2480072Y-12646500D01*
X-2451500Y-12632214D01*
X-2408643Y-12632214D01*
X-2380072Y-12646500D01*
X-2365786Y-12675071D01*
X-2365786Y-12832214D01*
X-2365786Y-12675071D02*
X-2351500Y-12646500D01*
X-2322929Y-12632214D01*
X-2280072Y-12632214D01*
X-2251500Y-12646500D01*
X-2237214Y-12675071D01*
X-2237214Y-12832214D01*
X-2094357Y-12832214D02*
X-2094357Y-12632214D01*
X-2094357Y-12660786D02*
X-2080071Y-12646500D01*
X-2051500Y-12632214D01*
X-2008643Y-12632214D01*
X-1980071Y-12646500D01*
X-1965786Y-12675071D01*
X-1965786Y-12832214D01*
X-1965786Y-12675071D02*
X-1951500Y-12646500D01*
X-1922929Y-12632214D01*
X-1880071Y-12632214D01*
X-1851500Y-12646500D01*
X-1837214Y-12675071D01*
X-1837214Y-12832214D01*
X-1251500Y-12517929D02*
X-1508643Y-12903643D01*
X-865786Y-12532214D02*
X-837214Y-12532214D01*
X-808643Y-12546500D01*
X-794357Y-12560786D01*
X-780071Y-12589357D01*
X-765786Y-12646500D01*
X-765786Y-12717929D01*
X-780071Y-12775071D01*
X-794357Y-12803643D01*
X-808643Y-12817929D01*
X-837214Y-12832214D01*
X-865786Y-12832214D01*
X-894357Y-12817929D01*
X-908643Y-12803643D01*
X-922929Y-12775071D01*
X-937214Y-12717929D01*
X-937214Y-12646500D01*
X-922929Y-12589357D01*
X-908643Y-12560786D01*
X-894357Y-12546500D01*
X-865786Y-12532214D01*
X-637214Y-12803643D02*
X-622929Y-12817929D01*
X-637214Y-12832214D01*
X-651500Y-12817929D01*
X-637214Y-12803643D01*
X-637214Y-12832214D01*
X-337214Y-12832214D02*
X-508643Y-12832214D01*
X-422929Y-12832214D02*
X-422929Y-12532214D01*
X-451500Y-12575071D01*
X-480071Y-12603643D01*
X-508643Y-12617929D01*
X-65786Y-12532214D02*
X-208643Y-12532214D01*
X-222929Y-12675071D01*
X-208643Y-12660786D01*
X-180071Y-12646500D01*
X-108643Y-12646500D01*
X-80072Y-12660786D01*
X-65786Y-12675071D01*
X-51500Y-12703643D01*
X-51500Y-12775071D01*
X-65786Y-12803643D01*
X-80072Y-12817929D01*
X-108643Y-12832214D01*
X-180071Y-12832214D01*
X-208643Y-12817929D01*
X-222929Y-12803643D01*
X48500Y-12532214D02*
X248500Y-12532214D01*
X119928Y-12832214D01*
X505643Y-12532214D02*
X362786Y-12532214D01*
X348500Y-12675071D01*
X362786Y-12660786D01*
X391357Y-12646500D01*
X462786Y-12646500D01*
X491357Y-12660786D01*
X505643Y-12675071D01*
X519928Y-12703643D01*
X519928Y-12775071D01*
X505643Y-12803643D01*
X491357Y-12817929D01*
X462786Y-12832214D01*
X391357Y-12832214D01*
X362786Y-12817929D01*
X348500Y-12803643D01*
X634214Y-12532214D02*
X634214Y-12589357D01*
X748500Y-12532214D02*
X748500Y-12589357D01*
X1191357Y-12946500D02*
X1177071Y-12932214D01*
X1148500Y-12889357D01*
X1134214Y-12860786D01*
X1119928Y-12817929D01*
X1105643Y-12746500D01*
X1105643Y-12689357D01*
X1119928Y-12617929D01*
X1134214Y-12575071D01*
X1148500Y-12546500D01*
X1177071Y-12503643D01*
X1191357Y-12489357D01*
X1319928Y-12832214D02*
X1377071Y-12832214D01*
X1405643Y-12817929D01*
X1419928Y-12803643D01*
X1448500Y-12760786D01*
X1462786Y-12703643D01*
X1462786Y-12589357D01*
X1448500Y-12560786D01*
X1434214Y-12546500D01*
X1405643Y-12532214D01*
X1348500Y-12532214D01*
X1319928Y-12546500D01*
X1305643Y-12560786D01*
X1291357Y-12589357D01*
X1291357Y-12660786D01*
X1305643Y-12689357D01*
X1319928Y-12703643D01*
X1348500Y-12717929D01*
X1405643Y-12717929D01*
X1434214Y-12703643D01*
X1448500Y-12689357D01*
X1462786Y-12660786D01*
X1719928Y-12532214D02*
X1662786Y-12532214D01*
X1634214Y-12546500D01*
X1619928Y-12560786D01*
X1591357Y-12603643D01*
X1577071Y-12660786D01*
X1577071Y-12775071D01*
X1591357Y-12803643D01*
X1605643Y-12817929D01*
X1634214Y-12832214D01*
X1691357Y-12832214D01*
X1719928Y-12817929D01*
X1734214Y-12803643D01*
X1748500Y-12775071D01*
X1748500Y-12703643D01*
X1734214Y-12675071D01*
X1719928Y-12660786D01*
X1691357Y-12646500D01*
X1634214Y-12646500D01*
X1605643Y-12660786D01*
X1591357Y-12675071D01*
X1577071Y-12703643D01*
X2105643Y-12832214D02*
X2105643Y-12532214D01*
X2234214Y-12832214D02*
X2234214Y-12675071D01*
X2219928Y-12646500D01*
X2191357Y-12632214D01*
X2148500Y-12632214D01*
X2119928Y-12646500D01*
X2105643Y-12660786D01*
X2419928Y-12832214D02*
X2391357Y-12817929D01*
X2377071Y-12803643D01*
X2362786Y-12775071D01*
X2362786Y-12689357D01*
X2377071Y-12660786D01*
X2391357Y-12646500D01*
X2419928Y-12632214D01*
X2462786Y-12632214D01*
X2491357Y-12646500D01*
X2505643Y-12660786D01*
X2519928Y-12689357D01*
X2519928Y-12775071D01*
X2505643Y-12803643D01*
X2491357Y-12817929D01*
X2462786Y-12832214D01*
X2419928Y-12832214D01*
X2691357Y-12832214D02*
X2662786Y-12817929D01*
X2648500Y-12789357D01*
X2648500Y-12532214D01*
X2919928Y-12817929D02*
X2891357Y-12832214D01*
X2834214Y-12832214D01*
X2805643Y-12817929D01*
X2791357Y-12789357D01*
X2791357Y-12675071D01*
X2805643Y-12646500D01*
X2834214Y-12632214D01*
X2891357Y-12632214D01*
X2919928Y-12646500D01*
X2934214Y-12675071D01*
X2934214Y-12703643D01*
X2791357Y-12732214D01*
X3048500Y-12817929D02*
X3077071Y-12832214D01*
X3134214Y-12832214D01*
X3162786Y-12817929D01*
X3177071Y-12789357D01*
X3177071Y-12775071D01*
X3162786Y-12746500D01*
X3134214Y-12732214D01*
X3091357Y-12732214D01*
X3062786Y-12717929D01*
X3048500Y-12689357D01*
X3048500Y-12675071D01*
X3062786Y-12646500D01*
X3091357Y-12632214D01*
X3134214Y-12632214D01*
X3162786Y-12646500D01*
X3277071Y-12946500D02*
X3291357Y-12932214D01*
X3319928Y-12889357D01*
X3334214Y-12860786D01*
X3348500Y-12817929D01*
X3362786Y-12746500D01*
X3362786Y-12689357D01*
X3348500Y-12617929D01*
X3334214Y-12575071D01*
X3319928Y-12546500D01*
X3291357Y-12503643D01*
X3277071Y-12489357D01*
X3819928Y-12946500D02*
X3805643Y-12932214D01*
X3777071Y-12889357D01*
X3762786Y-12860786D01*
X3748500Y-12817929D01*
X3734214Y-12746500D01*
X3734214Y-12689357D01*
X3748500Y-12617929D01*
X3762786Y-12575071D01*
X3777071Y-12546500D01*
X3805643Y-12503643D01*
X3819928Y-12489357D01*
X3934214Y-12632214D02*
X3934214Y-12832214D01*
X3934214Y-12660786D02*
X3948500Y-12646500D01*
X3977071Y-12632214D01*
X4019928Y-12632214D01*
X4048500Y-12646500D01*
X4062786Y-12675071D01*
X4062786Y-12832214D01*
X4248500Y-12832214D02*
X4219928Y-12817929D01*
X4205643Y-12803643D01*
X4191357Y-12775071D01*
X4191357Y-12689357D01*
X4205643Y-12660786D01*
X4219928Y-12646500D01*
X4248500Y-12632214D01*
X4291357Y-12632214D01*
X4319928Y-12646500D01*
X4334214Y-12660786D01*
X4348500Y-12689357D01*
X4348500Y-12775071D01*
X4334214Y-12803643D01*
X4319928Y-12817929D01*
X4291357Y-12832214D01*
X4248500Y-12832214D01*
X4434214Y-12632214D02*
X4548500Y-12632214D01*
X4477071Y-12532214D02*
X4477071Y-12789357D01*
X4491357Y-12817929D01*
X4519928Y-12832214D01*
X4548500Y-12832214D01*
X4877071Y-12632214D02*
X4877071Y-12932214D01*
X4877071Y-12646500D02*
X4905643Y-12632214D01*
X4962786Y-12632214D01*
X4991357Y-12646500D01*
X5005643Y-12660786D01*
X5019928Y-12689357D01*
X5019928Y-12775071D01*
X5005643Y-12803643D01*
X4991357Y-12817929D01*
X4962786Y-12832214D01*
X4905643Y-12832214D01*
X4877071Y-12817929D01*
X5191357Y-12832214D02*
X5162786Y-12817929D01*
X5148500Y-12789357D01*
X5148500Y-12532214D01*
X5434214Y-12832214D02*
X5434214Y-12675071D01*
X5419928Y-12646500D01*
X5391357Y-12632214D01*
X5334214Y-12632214D01*
X5305643Y-12646500D01*
X5434214Y-12817929D02*
X5405643Y-12832214D01*
X5334214Y-12832214D01*
X5305643Y-12817929D01*
X5291357Y-12789357D01*
X5291357Y-12760786D01*
X5305643Y-12732214D01*
X5334214Y-12717929D01*
X5405643Y-12717929D01*
X5434214Y-12703643D01*
X5534214Y-12632214D02*
X5648500Y-12632214D01*
X5577071Y-12532214D02*
X5577071Y-12789357D01*
X5591357Y-12817929D01*
X5619928Y-12832214D01*
X5648500Y-12832214D01*
X5862786Y-12817929D02*
X5834214Y-12832214D01*
X5777071Y-12832214D01*
X5748500Y-12817929D01*
X5734214Y-12789357D01*
X5734214Y-12675071D01*
X5748500Y-12646500D01*
X5777071Y-12632214D01*
X5834214Y-12632214D01*
X5862786Y-12646500D01*
X5877071Y-12675071D01*
X5877071Y-12703643D01*
X5734214Y-12732214D01*
X6134214Y-12832214D02*
X6134214Y-12532214D01*
X6134214Y-12817929D02*
X6105643Y-12832214D01*
X6048500Y-12832214D01*
X6019928Y-12817929D01*
X6005643Y-12803643D01*
X5991357Y-12775071D01*
X5991357Y-12689357D01*
X6005643Y-12660786D01*
X6019928Y-12646500D01*
X6048500Y-12632214D01*
X6105643Y-12632214D01*
X6134214Y-12646500D01*
X6248500Y-12946500D02*
X6262786Y-12932214D01*
X6291357Y-12889357D01*
X6305643Y-12860786D01*
X6319928Y-12817929D01*
X6334214Y-12746500D01*
X6334214Y-12689357D01*
X6319928Y-12617929D01*
X6305643Y-12575071D01*
X6291357Y-12546500D01*
X6262786Y-12503643D01*
X6248500Y-12489357D01*
M02*
