M48
; DRILL file {KiCad (5.1.12)-1} date 01/08/22 21:52:57
; FORMAT={-:-/ absolute / metric / decimal}
; #@! TF.CreationDate,2022-01-08T21:52:57+01:00
; #@! TF.GenerationSoftware,Kicad,Pcbnew,(5.1.12)-1
; #@! TF.FileFunction,Plated,1,2,PTH
FMAT,2
METRIC
T1C0.400
T2C0.600
T3C0.700
T4C0.762
T5C1.000
T6C1.200
T7C1.500
T8C1.700
%
G90
G05
T1
X-34.036Y20.32
X-33.782Y-9.271
X-33.782Y-28.956
X-33.655Y-67.183
X-33.528Y8.89
X-33.528Y-48.514
X-33.401Y0.0
X-33.401Y-39.243
X-33.401Y-75.692
X-33.274Y-85.979
X-32.512Y-55.499
X-31.623Y-39.116
X-31.496Y21.844
X-31.242Y0.508
X-30.099Y29.591
X-27.877Y5.651
X-24.384Y-91.186
X-21.336Y18.288
X-20.828Y-25.019
X-19.177Y-25.019
X-17.399Y17.145
X-16.764Y-22.352
X-15.494Y-0.635
X-15.367Y-37.846
X-15.367Y-42.926
X-14.732Y-16.256
X-14.351Y-54.61
X-14.224Y8.509
X-14.224Y-60.325
X-14.224Y-74.93
X-14.097Y-85.598
X-13.97Y-67.183
X-13.716Y5.08
X-13.462Y-16.256
X-13.081Y2.54
X-11.557Y-56.769
X-9.906Y-37.338
X-9.398Y-28.321
X-8.763Y-38.608
X-4.445Y-9.906
X-3.556Y23.876
X-2.794Y-58.928
X-2.54Y-39.116
X-2.032Y-47.625
X-1.524Y23.876
X-1.016Y-51.816
X-0.762Y-39.116
X1.016Y33.528
X1.524Y-60.96
X3.302Y-74.803
X3.683Y18.923
X4.572Y15.875
X4.699Y-24.765
X4.953Y-86.36
X6.477Y-60.706
X6.604Y20.828
X7.366Y-24.765
X9.144Y-55.245
X9.525Y16.383
X9.525Y-16.256
X9.652Y33.528
X10.033Y5.08
X10.414Y-23.876
X10.922Y-16.256
X12.192Y-66.929
X14.224Y-56.515
X14.478Y-28.321
X14.859Y-1.905
X14.986Y-14.732
X15.621Y-38.608
X17.018Y-38.608
X19.177Y-3.937
X20.828Y17.272
X21.336Y-74.676
X22.098Y-39.243
X22.479Y8.382
X23.622Y15.748
X23.622Y-9.652
X23.876Y-85.852
X24.765Y-31.623
X25.095Y-1.118
X26.924Y-25.146
X28.448Y-25.273
X28.702Y-60.96
X28.829Y-9.652
X28.829Y-47.498
X29.718Y-38.862
X30.226Y-31.242
X30.48Y23.876
X31.115Y5.461
X32.512Y-54.356
X33.02Y23.876
X33.274Y-17.272
X33.655Y-28.829
X34.925Y-55.372
X37.338Y3.048
X38.354Y-67.056
X39.167Y-6.553
X39.751Y1.524
X40.132Y-74.676
X41.783Y-14.224
X42.926Y-85.979
X43.053Y-3.429
X43.18Y8.001
X43.307Y16.129
X43.434Y1.397
X43.942Y-14.097
X45.974Y-25.146
X46.736Y-37.338
X46.863Y-91.694
X47.498Y-25.146
X47.625Y-36.449
X48.006Y-47.879
X49.276Y23.876
X51.435Y-16.002
X52.324Y23.876
X52.705Y-28.575
X52.832Y-16.51
X53.086Y-91.694
X56.642Y-54.61
X57.277Y-60.325
X57.404Y-66.548
X58.039Y1.524
X59.436Y16.764
X59.563Y-56.642
X59.69Y-74.422
X61.976Y7.874
X62.23Y1.524
X62.23Y-85.979
X62.484Y34.036
X62.992Y20.828
X62.992Y15.24
X63.246Y-11.049
X64.77Y-25.146
X65.786Y-37.592
X66.548Y-25.146
X66.675Y-36.703
X67.056Y-48.133
X69.977Y-15.875
X70.231Y-39.878
X71.628Y-28.829
X71.628Y-39.878
X75.057Y-54.483
X76.073Y-60.325
X76.327Y-66.802
X78.74Y-56.388
X80.772Y22.86
X80.899Y1.27
X81.026Y-75.438
X81.153Y8.382
X81.28Y15.748
X82.169Y-10.668
X84.455Y-25.019
X84.963Y-37.973
X86.106Y-25.019
X86.106Y-47.625
X86.233Y-36.957
X89.916Y-16.129
X90.551Y-28.829
X93.599Y-54.737
X95.504Y-60.325
X95.504Y-66.675
X96.52Y20.828
X96.774Y1.397
X97.282Y-56.388
X99.441Y-74.93
X100.076Y15.748
X100.076Y8.636
X100.838Y1.397
X101.6Y-11.176
X103.124Y23.368
X103.124Y-25.146
X104.267Y-37.719
X104.902Y-47.752
X105.156Y25.4
X105.156Y-25.146
X105.41Y-36.703
X106.807Y-91.059
X107.315Y-15.748
X109.347Y-16.51
X109.601Y-28.829
X112.395Y-91.059
X114.046Y-54.737
X114.3Y-60.452
X114.554Y-66.548
X114.935Y-85.979
X115.189Y1.397
X116.713Y-78.867
X119.38Y15.748
X119.38Y8.509
X119.761Y1.397
X120.332Y-10.858
X120.396Y33.02
X120.396Y-85.979
X120.65Y-76.708
X122.174Y-25.019
X123.063Y-37.846
X124.079Y-25.019
X124.079Y-47.371
X124.587Y-36.703
X126.492Y-15.748
X128.143Y-16.383
X128.841Y-29.019
X129.54Y33.02
X130.937Y-85.979
X132.842Y-54.61
X133.35Y-60.325
X133.35Y-66.548
X134.239Y1.143
X135.636Y16.764
X137.16Y19.304
X138.049Y8.128
X138.303Y1.143
X139.192Y22.352
X139.446Y-10.922
X140.97Y-25.146
X141.732Y-37.465
X142.875Y-25.146
X143.002Y-36.449
X143.256Y-48.006
X147.955Y-28.829
X148.717Y-15.875
X152.4Y-54.61
X152.781Y-60.452
X152.781Y-66.548
X154.432Y16.764
X156.464Y18.288
X157.226Y8.128
X157.734Y1.143
X158.242Y-75.819
X158.496Y21.336
X158.496Y-10.541
X161.163Y-38.1
X162.179Y-24.765
X162.306Y-37.084
X162.433Y-47.752
X163.195Y-23.114
X165.481Y-16.129
X166.751Y-28.956
X167.132Y-16.129
X167.259Y-91.694
X171.704Y-66.929
X171.831Y-54.61
X171.831Y-60.325
X172.847Y1.143
X173.228Y-91.694
X175.26Y20.32
X176.149Y8.001
X176.276Y15.24
X176.657Y1.143
X177.165Y-10.541
X177.673Y-75.438
X178.181Y-20.701
X180.086Y-37.719
X181.102Y-47.371
X181.483Y-36.322
X181.61Y-24.638
X185.42Y23.876
X185.42Y-78.867
X185.801Y-29.083
X189.23Y-78.867
X190.5Y-54.483
X190.627Y-67.056
X191.008Y-60.325
X191.643Y1.27
X195.072Y15.748
X195.453Y8.89
X195.58Y17.272
X195.707Y1.27
X196.596Y-10.922
X197.612Y21.336
X197.612Y20.32
X198.374Y-37.211
X198.755Y-25.146
X200.406Y-46.736
X202.438Y-85.471
X204.915Y-28.765
X206.375Y-15.748
X207.01Y-59.436
X209.169Y-54.483
X209.931Y-66.929
X210.058Y-60.96
X211.836Y1.524
X212.09Y-56.769
X213.868Y15.748
X214.503Y8.001
X214.884Y16.764
X215.646Y-10.922
X216.027Y1.651
X216.789Y-36.957
X216.916Y21.844
X216.916Y20.32
X217.17Y-25.019
X219.075Y-25.019
X219.329Y-48.133
X220.599Y-40.005
X222.885Y-39.878
X223.901Y-28.575
X224.282Y-15.748
X224.409Y23.241
X225.044Y-74.422
X225.806Y-60.96
X225.933Y-75.692
X226.441Y-85.979
X227.457Y-68.961
X228.346Y-55.245
X229.743Y1.397
X233.172Y17.272
X233.172Y15.748
X234.061Y1.397
X234.315Y8.128
X234.696Y20.828
X234.696Y-11.049
X236.347Y-39.116
X236.982Y23.241
X240.792Y-22.225
X240.792Y-67.056
X241.3Y-29.083
X241.681Y-56.642
X245.618Y-48.006
X247.523Y-21.844
X247.904Y-28.448
X248.539Y-74.295
X249.555Y-75.565
X249.936Y-18.669
X250.19Y-85.471
X251.206Y1.143
X251.46Y16.256
X252.984Y17.78
X252.984Y2.032
X253.365Y8.763
X253.492Y-10.922
X254.381Y-55.245
X255.016Y20.828
X255.016Y-1.016
X256.921Y-11.176
X257.175Y-59.817
X259.842Y-58.547
X263.271Y-55.626
X263.652Y-38.608
X263.652Y-39.878
X263.906Y-36.449
X264.668Y-6.096
X264.668Y-16.383
X266.7Y-6.096
X266.7Y-32.893
X267.462Y-74.295
X268.732Y-75.946
X272.097Y-76.01
X273.177Y-0.889
X273.431Y-19.177
X273.431Y-77.724
X273.431Y-84.201
X273.558Y-4.826
X274.32Y8.636
X274.32Y7.112
X275.844Y-67.818
X275.907Y5.271
X276.098Y19.05
X277.114Y27.559
X278.892Y19.177
X279.4Y6.223
X279.781Y0.381
X282.702Y15.748
X284.734Y14.224
X286.131Y-30.607
X286.385Y-58.801
X286.512Y-9.525
X287.147Y-20.066
X287.274Y-8.001
X287.401Y17.78
X288.036Y-18.415
X289.306Y-21.336
X289.56Y-22.733
X289.687Y-31.877
X290.639Y-12.255
X290.703Y22.098
X292.227Y-32.766
X293.751Y-16.51
X294.259Y17.018
X294.259Y15.24
X296.037Y-34.036
X296.672Y-20.32
X298.577Y-20.574
X298.831Y-34.925
X300.355Y-21.59
X300.736Y19.304
X301.752Y-7.874
X303.149Y-26.67
X303.276Y-65.659
X303.53Y-42.672
X303.784Y-7.747
X304.292Y19.304
X305.689Y-42.672
X306.705Y0.508
X307.34Y33.02
X307.975Y-42.672
X310.769Y-42.291
X311.15Y-39.878
X311.531Y18.161
X311.912Y-2.032
X311.912Y-4.064
X313.563Y-58.547
X315.722Y-58.547
X316.037Y-1.712
X316.865Y-68.58
X317.436Y21.018
X317.627Y18.669
X318.516Y20.828
X318.516Y-58.42
X318.897Y-22.987
X321.564Y-2.54
X321.564Y-6.096
X322.199Y-57.15
X322.326Y19.177
X322.326Y-54.991
X322.389Y21.78
X322.834Y-11.176
X323.596Y-53.213
X323.85Y-50.927
X324.231Y18.415
X324.231Y-12.7
X325.12Y-48.641
X326.009Y15.24
X326.898Y-43.561
X327.406Y-11.684
X327.66Y-26.035
X328.041Y17.78
X331.089Y0.889
X331.724Y10.668
X331.724Y4.572
X332.232Y-3.556
X332.232Y-6.604
X332.74Y-39.878
X333.629Y-38.989
X334.391Y-22.606
X334.645Y-27.686
X334.645Y-29.718
X334.645Y-32.004
X334.772Y-25.654
X335.28Y-33.274
X335.788Y-19.812
X335.788Y-66.802
X337.947Y26.162
X338.963Y16.002
X340.36Y-33.401
X342.773Y-33.401
X344.297Y-7.239
X344.678Y11.303
X344.932Y21.209
X345.186Y-27.686
X345.44Y-21.844
X345.44Y-23.876
X346.456Y-12.192
X347.98Y-6.477
X349.313Y-78.93
X350.012Y-26.924
X351.409Y-73.787
X352.044Y-26.924
X352.679Y-32.004
X352.933Y-21.463
X353.06Y-12.7
X353.06Y-19.939
X353.187Y-22.733
X354.711Y-26.797
X354.838Y-72.644
X358.775Y-16.129
X360.299Y-79.121
T3
X273.177Y-38.227
X273.304Y-24.257
X273.304Y-31.877
X280.797Y-38.227
X280.924Y-24.257
X280.924Y-31.877
T4
X353.085Y10.897
X353.085Y8.357
X353.085Y5.817
X353.085Y3.277
X353.085Y0.737
X353.085Y-1.803
X353.085Y-4.343
T5
X274.32Y-44.45
X274.32Y-52.705
X276.86Y-44.45
X276.86Y-52.705
X279.4Y-44.45
X279.4Y-52.705
X289.56Y-51.515
X289.56Y-54.015
X289.56Y-56.515
X304.06Y-51.515
X304.06Y-56.515
X336.55Y-51.515
X336.55Y-54.015
X336.55Y-56.515
X351.05Y-51.515
X351.05Y-56.515
T6
X284.48Y-82.225
X284.48Y-85.725
X357.98Y-85.725
T8
X288.63Y-79.775
X289.83Y-88.175
X352.63Y-88.175
X353.83Y-79.775
T2
X315.72Y31.83G85X315.72Y31.23
G05
X315.72Y27.9G85X315.72Y26.8
G05
X324.36Y31.83G85X324.36Y31.23
G05
X324.36Y27.9G85X324.36Y26.8
G05
T7
X296.41Y-48.415G85X297.71Y-48.415
G05
X296.41Y-59.615G85X297.71Y-59.615
G05
X343.4Y-48.415G85X344.7Y-48.415
G05
X343.4Y-59.615G85X344.7Y-59.615
G05
T0
M30
