%TF.GenerationSoftware,KiCad,Pcbnew,(5.1.12)-1*%
%TF.CreationDate,2022-01-08T21:51:44+01:00*%
%TF.ProjectId,OLEDUKEY,4f4c4544-554b-4455-992e-6b696361645f,rev?*%
%TF.SameCoordinates,Original*%
%TF.FileFunction,Legend,Bot*%
%TF.FilePolarity,Positive*%
%FSLAX46Y46*%
G04 Gerber Fmt 4.6, Leading zero omitted, Abs format (unit mm)*
G04 Created by KiCad (PCBNEW (5.1.12)-1) date 2022-01-08 21:51:44*
%MOMM*%
%LPD*%
G01*
G04 APERTURE LIST*
%ADD10C,0.010000*%
%ADD11C,0.120000*%
%ADD12C,0.200000*%
%ADD13C,0.150000*%
%ADD14C,0.100000*%
%ADD15C,2.950000*%
%ADD16C,4.000000*%
%ADD17C,1.700000*%
%ADD18C,3.050000*%
%ADD19R,1.700000X1.000000*%
%ADD20O,1.700000X1.700000*%
%ADD21R,1.700000X1.700000*%
%ADD22R,1.750000X1.750000*%
%ADD23C,1.750000*%
%ADD24C,2.700000*%
%ADD25C,2.000000*%
%ADD26R,3.200000X2.000000*%
%ADD27R,2.000000X2.000000*%
%ADD28C,3.000000*%
%ADD29C,1.524000*%
%ADD30O,1.400000X1.400000*%
%ADD31C,1.400000*%
%ADD32O,1.000000X1.600000*%
%ADD33C,0.650000*%
%ADD34O,1.000000X2.100000*%
%ADD35R,0.300000X1.450000*%
%ADD36R,0.600000X1.450000*%
G04 APERTURE END LIST*
D10*
%TO.C,G007*%
G36*
X315512292Y-17804300D02*
G01*
X315459462Y-17816726D01*
X315257829Y-17902202D01*
X315141444Y-18007071D01*
X315020404Y-18114896D01*
X314789361Y-18248962D01*
X314500030Y-18385293D01*
X314204123Y-18499916D01*
X313953356Y-18568855D01*
X313917483Y-18574499D01*
X313492545Y-18691271D01*
X313224333Y-18885210D01*
X313067006Y-18992691D01*
X312821395Y-19097837D01*
X312716333Y-19130706D01*
X312449223Y-19219530D01*
X312101019Y-19354898D01*
X311742777Y-19509037D01*
X311709576Y-19524212D01*
X311402081Y-19659048D01*
X311144494Y-19760047D01*
X310982373Y-19809674D01*
X310961826Y-19812000D01*
X310830809Y-19862368D01*
X310627424Y-19991436D01*
X310486916Y-20098203D01*
X310284244Y-20248171D01*
X309974469Y-20459932D01*
X309595697Y-20708170D01*
X309186033Y-20967567D01*
X309075667Y-21035865D01*
X308445164Y-21451835D01*
X307870922Y-21884727D01*
X307379151Y-22312148D01*
X306996059Y-22711706D01*
X306790307Y-22988403D01*
X306683660Y-23193822D01*
X306550572Y-23498074D01*
X306417923Y-23839272D01*
X306404154Y-23877403D01*
X306261218Y-24260101D01*
X306149007Y-24508288D01*
X306049353Y-24649578D01*
X305944088Y-24711581D01*
X305847967Y-24722666D01*
X305763222Y-24703360D01*
X305715113Y-24621357D01*
X305693692Y-24440529D01*
X305689000Y-24145367D01*
X305668202Y-23763381D01*
X305614403Y-23372598D01*
X305558720Y-23129367D01*
X305468615Y-22867889D01*
X305380403Y-22734786D01*
X305265752Y-22691820D01*
X305233644Y-22690666D01*
X305083830Y-22729896D01*
X304971527Y-22861379D01*
X304888863Y-23105807D01*
X304827967Y-23483870D01*
X304793381Y-23847886D01*
X304746088Y-24250650D01*
X304673642Y-24646576D01*
X304589926Y-24962863D01*
X304570482Y-25016829D01*
X304484258Y-25259015D01*
X304366535Y-25618017D01*
X304232012Y-26047738D01*
X304095388Y-26502085D01*
X304078731Y-26558873D01*
X303924095Y-27080996D01*
X303803569Y-27462068D01*
X303705866Y-27724175D01*
X303619700Y-27889399D01*
X303533784Y-27979826D01*
X303436831Y-28017540D01*
X303329614Y-28024666D01*
X303171568Y-27995485D01*
X303028032Y-27886102D01*
X302859652Y-27663759D01*
X302815636Y-27596850D01*
X302603705Y-27317270D01*
X302436085Y-27201105D01*
X302312717Y-27248348D01*
X302233542Y-27458998D01*
X302217667Y-27559819D01*
X302199694Y-27858939D01*
X302199730Y-28285703D01*
X302215323Y-28799663D01*
X302244021Y-29360370D01*
X302283373Y-29927375D01*
X302330928Y-30460231D01*
X302384234Y-30918489D01*
X302440838Y-31261700D01*
X302442511Y-31269559D01*
X302493987Y-31596165D01*
X302540055Y-32049904D01*
X302579228Y-32591852D01*
X302610019Y-33183083D01*
X302630938Y-33784673D01*
X302640497Y-34357697D01*
X302637210Y-34863230D01*
X302619587Y-35262348D01*
X302601683Y-35433392D01*
X302498927Y-35777836D01*
X302284245Y-36212217D01*
X301970455Y-36711960D01*
X301833606Y-36906020D01*
X301679781Y-37195644D01*
X301626058Y-37536715D01*
X301625000Y-37607240D01*
X301648178Y-37941608D01*
X301730287Y-38242243D01*
X301890186Y-38547831D01*
X302146735Y-38897057D01*
X302398005Y-39192834D01*
X302930069Y-39811892D01*
X303349370Y-40333542D01*
X303668324Y-40774411D01*
X303899345Y-41151129D01*
X303984204Y-41317333D01*
X304066546Y-41502127D01*
X304126448Y-41676895D01*
X304168304Y-41874474D01*
X304196505Y-42127698D01*
X304215445Y-42469402D01*
X304229516Y-42932421D01*
X304235592Y-43196509D01*
X304244521Y-43775332D01*
X304240678Y-44228973D01*
X304221235Y-44601289D01*
X304183364Y-44936139D01*
X304124236Y-45277380D01*
X304090900Y-45440175D01*
X303999725Y-45901691D01*
X303911012Y-46402445D01*
X303840093Y-46854407D01*
X303823653Y-46974421D01*
X303775227Y-47317883D01*
X303727560Y-47607759D01*
X303689097Y-47793937D01*
X303680974Y-47821088D01*
X303674352Y-47892089D01*
X303757231Y-47844730D01*
X303839399Y-47773166D01*
X304011552Y-47641866D01*
X304143688Y-47582910D01*
X304149035Y-47582666D01*
X304248951Y-47527431D01*
X304439093Y-47378376D01*
X304689016Y-47160477D01*
X304883092Y-46980490D01*
X305181091Y-46704289D01*
X305390855Y-46531536D01*
X305541397Y-46443505D01*
X305661733Y-46421474D01*
X305732443Y-46432379D01*
X305910296Y-46536578D01*
X306068180Y-46766285D01*
X306219591Y-47141990D01*
X306239194Y-47201666D01*
X306282312Y-47292824D01*
X306347091Y-47285628D01*
X306467755Y-47165951D01*
X306546816Y-47074666D01*
X306770327Y-46820117D01*
X307020205Y-46545435D01*
X307091108Y-46469562D01*
X307260321Y-46268792D01*
X307365582Y-46102798D01*
X307382754Y-46046228D01*
X307433881Y-45910938D01*
X307559807Y-45721331D01*
X307594889Y-45677666D01*
X307806604Y-45423666D01*
X308058600Y-45714962D01*
X308301034Y-46096573D01*
X308504770Y-46630685D01*
X308665427Y-47303981D01*
X308742642Y-47794333D01*
X308787479Y-48138247D01*
X308818441Y-48402804D01*
X308836285Y-48628103D01*
X308841768Y-48854240D01*
X308835647Y-49121312D01*
X308818679Y-49469418D01*
X308791622Y-49938654D01*
X308785203Y-50048221D01*
X308760042Y-50570093D01*
X308755371Y-50936891D01*
X308771469Y-51161662D01*
X308808613Y-51257452D01*
X308810911Y-51259019D01*
X308902117Y-51223304D01*
X309091482Y-51083938D01*
X309358375Y-50857949D01*
X309682167Y-50562365D01*
X309857703Y-50395005D01*
X310289557Y-49982601D01*
X310620768Y-49680172D01*
X310868150Y-49475716D01*
X311048514Y-49357233D01*
X311178674Y-49312722D01*
X311275442Y-49330182D01*
X311313512Y-49355835D01*
X311447323Y-49386082D01*
X311566347Y-49263124D01*
X311639068Y-49064333D01*
X311670276Y-48967608D01*
X311686026Y-49027992D01*
X311690733Y-49106666D01*
X311676149Y-49295920D01*
X311628218Y-49584643D01*
X311560965Y-49894535D01*
X311479093Y-50204093D01*
X311399076Y-50396437D01*
X311289464Y-50520378D01*
X311118809Y-50624728D01*
X311076428Y-50646603D01*
X310909313Y-50759753D01*
X310647427Y-50971067D01*
X310315656Y-51258895D01*
X309938887Y-51601586D01*
X309542006Y-51977487D01*
X309500455Y-52017734D01*
X309108642Y-52392257D01*
X308740598Y-52733269D01*
X308419646Y-53019995D01*
X308169111Y-53231655D01*
X308012315Y-53347471D01*
X307999929Y-53354459D01*
X307790379Y-53524187D01*
X307576292Y-53821400D01*
X307350295Y-54258691D01*
X307105015Y-54848651D01*
X307068144Y-54945667D01*
X306955041Y-55234972D01*
X306857849Y-55463813D01*
X306797418Y-55583128D01*
X306797023Y-55583666D01*
X306734272Y-55707361D01*
X306642372Y-55931391D01*
X306582815Y-56091666D01*
X306471283Y-56365187D01*
X306307060Y-56722212D01*
X306120112Y-57098457D01*
X306060236Y-57212695D01*
X305895752Y-57542356D01*
X305768625Y-57836226D01*
X305697635Y-58049040D01*
X305689000Y-58107495D01*
X305666103Y-58304533D01*
X305608008Y-58580414D01*
X305570722Y-58722132D01*
X305492599Y-59061041D01*
X305428105Y-59449027D01*
X305407404Y-59627488D01*
X305362364Y-60115310D01*
X308634552Y-60093155D01*
X311906739Y-60071000D01*
X312063899Y-59647666D01*
X312274881Y-59088266D01*
X312446064Y-58663640D01*
X312592331Y-58348302D01*
X312728565Y-58116764D01*
X312869650Y-57943540D01*
X313030469Y-57803143D01*
X313214532Y-57677309D01*
X313694794Y-57355106D01*
X314062477Y-57063660D01*
X314359427Y-56764261D01*
X314627494Y-56418200D01*
X314715699Y-56288743D01*
X314910801Y-56016006D01*
X315089197Y-55802652D01*
X315218556Y-55686487D01*
X315238600Y-55677303D01*
X315475461Y-55626728D01*
X315827827Y-55573868D01*
X316242073Y-55524678D01*
X316664570Y-55485109D01*
X317041692Y-55461113D01*
X317226402Y-55456666D01*
X317744884Y-55456666D01*
X317453109Y-55759949D01*
X317175498Y-56023646D01*
X316937410Y-56175923D01*
X316682203Y-56244738D01*
X316443226Y-56258412D01*
X316199210Y-56273841D01*
X316077364Y-56328623D01*
X316033653Y-56430333D01*
X315964535Y-56596523D01*
X315824778Y-56820380D01*
X315749507Y-56921435D01*
X315596320Y-57156432D01*
X315540390Y-57336900D01*
X315546731Y-57376729D01*
X315563250Y-57416808D01*
X315590370Y-57447270D01*
X315645813Y-57467345D01*
X315747303Y-57476261D01*
X315912562Y-57473249D01*
X316159313Y-57457538D01*
X316505280Y-57428359D01*
X316968186Y-57384940D01*
X317565753Y-57326511D01*
X318242279Y-57259572D01*
X318785367Y-57208340D01*
X319183400Y-57177721D01*
X319459333Y-57167216D01*
X319636123Y-57176322D01*
X319736726Y-57204540D01*
X319766279Y-57226320D01*
X319780525Y-57348365D01*
X319653012Y-57520617D01*
X319399365Y-57730810D01*
X319035213Y-57966677D01*
X318576182Y-58215952D01*
X318389000Y-58307425D01*
X318006780Y-58489371D01*
X317638972Y-58664867D01*
X317339437Y-58808196D01*
X317219446Y-58865859D01*
X316989436Y-59012085D01*
X316800131Y-59193703D01*
X316679667Y-59373623D01*
X316656176Y-59514753D01*
X316692250Y-59560888D01*
X316831562Y-59561417D01*
X317079093Y-59479384D01*
X317403307Y-59327839D01*
X317772665Y-59119830D01*
X317802945Y-59101310D01*
X318107682Y-58935459D01*
X318425377Y-58794912D01*
X318556702Y-58749152D01*
X318830845Y-58697485D01*
X318989092Y-58757501D01*
X319055767Y-58945950D01*
X319062344Y-59097333D01*
X319005995Y-59352245D01*
X318824118Y-59577126D01*
X318621833Y-59727265D01*
X318461989Y-59850024D01*
X318389399Y-59942737D01*
X318389000Y-59946998D01*
X318465985Y-59989006D01*
X318666791Y-60031119D01*
X318918167Y-60061230D01*
X319127921Y-60072434D01*
X319485745Y-60083541D01*
X319970375Y-60094375D01*
X320560547Y-60104758D01*
X321234998Y-60114512D01*
X321972463Y-60123460D01*
X322751680Y-60131423D01*
X323551383Y-60138224D01*
X324350310Y-60143685D01*
X325127198Y-60147630D01*
X325860781Y-60149879D01*
X326529796Y-60150255D01*
X327112981Y-60148582D01*
X327589070Y-60144680D01*
X327936801Y-60138372D01*
X327983651Y-60136983D01*
X328899968Y-60107479D01*
X329178180Y-59496573D01*
X329332476Y-59124088D01*
X329498944Y-58668944D01*
X329648268Y-58212654D01*
X329687178Y-58081333D01*
X329815114Y-57664458D01*
X329982243Y-57160486D01*
X330164789Y-56639510D01*
X330304649Y-56261000D01*
X330474917Y-55798816D01*
X330588363Y-55444613D01*
X330656225Y-55151317D01*
X330689741Y-54871854D01*
X330699667Y-54606421D01*
X330682273Y-54158540D01*
X330599778Y-53833275D01*
X330427193Y-53588730D01*
X330139528Y-53383007D01*
X329895413Y-53257993D01*
X329636843Y-53145958D01*
X329364901Y-53053719D01*
X329041765Y-52971818D01*
X328629612Y-52890798D01*
X328090621Y-52801203D01*
X328031171Y-52791859D01*
X327882156Y-52758842D01*
X327767139Y-52693858D01*
X327659304Y-52565814D01*
X327531839Y-52343614D01*
X327375005Y-52030981D01*
X327222366Y-51712207D01*
X327103442Y-51448879D01*
X327035033Y-51278966D01*
X327025000Y-51240000D01*
X327073974Y-51133306D01*
X327198717Y-50948681D01*
X327287420Y-50832808D01*
X327610701Y-50365941D01*
X327808825Y-49939548D01*
X327871195Y-49596872D01*
X327846119Y-49288826D01*
X327781492Y-49000750D01*
X327691658Y-48768229D01*
X327590959Y-48626846D01*
X327493741Y-48612186D01*
X327479154Y-48624290D01*
X327471919Y-48723242D01*
X327495743Y-48938109D01*
X327537567Y-49180209D01*
X327638560Y-49693548D01*
X327249791Y-50125953D01*
X326934198Y-50586822D01*
X326779739Y-51077316D01*
X326788001Y-51579379D01*
X326960567Y-52074956D01*
X327063450Y-52248651D01*
X327188143Y-52455059D01*
X327252321Y-52597890D01*
X327252972Y-52632249D01*
X327160518Y-52641117D01*
X326924537Y-52643654D01*
X326570708Y-52640159D01*
X326124709Y-52630930D01*
X325612217Y-52616265D01*
X325468630Y-52611510D01*
X323723000Y-52552058D01*
X323723000Y-51693272D01*
X323720353Y-51298981D01*
X323705243Y-51025748D01*
X323666919Y-50825310D01*
X323594629Y-50649400D01*
X323477622Y-50449754D01*
X323428834Y-50372743D01*
X323276475Y-50122474D01*
X323169391Y-49925381D01*
X323132501Y-49830884D01*
X323175976Y-49718554D01*
X323288493Y-49526402D01*
X323356228Y-49424802D01*
X323488562Y-49218486D01*
X323526806Y-49093995D01*
X323482064Y-49000463D01*
X323455117Y-48971830D01*
X323347619Y-48894497D01*
X323236048Y-48925673D01*
X323133644Y-49002294D01*
X322992485Y-49179180D01*
X322914749Y-49452521D01*
X322897931Y-49589011D01*
X322911286Y-50101244D01*
X323066278Y-50561209D01*
X323348484Y-50977093D01*
X323542018Y-51234742D01*
X323619676Y-51442385D01*
X323589824Y-51665069D01*
X323472758Y-51943000D01*
X323322206Y-52239781D01*
X323181586Y-52440245D01*
X323012382Y-52566386D01*
X322776075Y-52640199D01*
X322434147Y-52683679D01*
X322136325Y-52706141D01*
X321743917Y-52730603D01*
X321488158Y-52737180D01*
X321336984Y-52722455D01*
X321258329Y-52683011D01*
X321220128Y-52615430D01*
X321217706Y-52608240D01*
X320959314Y-51934907D01*
X320677850Y-51422428D01*
X320369247Y-51063396D01*
X320168679Y-50873262D01*
X320052449Y-50705393D01*
X320005063Y-50548944D01*
X319485473Y-50548944D01*
X319418761Y-51019025D01*
X319289878Y-51532651D01*
X319108113Y-52043798D01*
X318958302Y-52385405D01*
X318802435Y-52682231D01*
X318614411Y-52973897D01*
X318368127Y-53300025D01*
X318037482Y-53700236D01*
X317946102Y-53807697D01*
X317604984Y-54194075D01*
X317295395Y-54519543D01*
X317040070Y-54761509D01*
X316861745Y-54897380D01*
X316836751Y-54910084D01*
X316591193Y-54972770D01*
X316207882Y-55013814D01*
X315717398Y-55029971D01*
X315706502Y-55030019D01*
X314844337Y-55033333D01*
X314554442Y-54673500D01*
X314253150Y-54269632D01*
X313921886Y-53774870D01*
X313576280Y-53217742D01*
X313231966Y-52626781D01*
X312904574Y-52030516D01*
X312609738Y-51457479D01*
X312363089Y-50936201D01*
X312180258Y-50495212D01*
X312076878Y-50163043D01*
X312072993Y-50144464D01*
X312063041Y-49925960D01*
X312098598Y-49681056D01*
X312165004Y-49461784D01*
X312247602Y-49320174D01*
X312311907Y-49296413D01*
X312377722Y-49383089D01*
X312485237Y-49593480D01*
X312617508Y-49892449D01*
X312712119Y-50126297D01*
X313212128Y-51196582D01*
X313874789Y-52267600D01*
X314693729Y-53329880D01*
X315372900Y-54080198D01*
X315677305Y-54391231D01*
X315942819Y-54652956D01*
X316146449Y-54843425D01*
X316265200Y-54940691D01*
X316282851Y-54948666D01*
X316369450Y-54894620D01*
X316554896Y-54746587D01*
X316813878Y-54525728D01*
X317121085Y-54253201D01*
X317196726Y-54184687D01*
X317881768Y-53491454D01*
X318411559Y-52793863D01*
X318799494Y-52072350D01*
X318984112Y-51574248D01*
X319117672Y-51044304D01*
X319147226Y-50654221D01*
X318812333Y-50654221D01*
X318764010Y-50919201D01*
X318629011Y-51288147D01*
X318422294Y-51729586D01*
X318158817Y-52212043D01*
X317853537Y-52704043D01*
X317800285Y-52783810D01*
X317588662Y-53065660D01*
X317325282Y-53370442D01*
X317039007Y-53670019D01*
X316758699Y-53936254D01*
X316513220Y-54141011D01*
X316331431Y-54256153D01*
X316274434Y-54271333D01*
X316168151Y-54221164D01*
X315994121Y-54096185D01*
X315937886Y-54050224D01*
X315685025Y-53803251D01*
X315371934Y-53444967D01*
X315019146Y-53004315D01*
X314647192Y-52510240D01*
X314276603Y-51991685D01*
X313927912Y-51477593D01*
X313621650Y-50996908D01*
X313378348Y-50578574D01*
X313218539Y-50251534D01*
X313190525Y-50177260D01*
X313112568Y-49894193D01*
X313070822Y-49588608D01*
X313065137Y-49226645D01*
X313095363Y-48774444D01*
X313161347Y-48198146D01*
X313181051Y-48048333D01*
X313231835Y-47658035D01*
X313272966Y-47321361D01*
X313299639Y-47078953D01*
X313307347Y-46979740D01*
X313386226Y-46872785D01*
X313597969Y-46803671D01*
X313909751Y-46775305D01*
X314288748Y-46790590D01*
X314702135Y-46852432D01*
X314715271Y-46855151D01*
X314993488Y-46907639D01*
X315398515Y-46976671D01*
X315889419Y-47055629D01*
X316425268Y-47137894D01*
X316850804Y-47200488D01*
X317447072Y-47287360D01*
X317895922Y-47355933D01*
X318217755Y-47410504D01*
X318432971Y-47455375D01*
X318561972Y-47494846D01*
X318625158Y-47533215D01*
X318642929Y-47574783D01*
X318643000Y-47578238D01*
X318626752Y-47683172D01*
X318583096Y-47914203D01*
X318519659Y-48231757D01*
X318477429Y-48437012D01*
X318344354Y-49143119D01*
X318264563Y-49720883D01*
X318238848Y-50161111D01*
X318268000Y-50454610D01*
X318297020Y-50532335D01*
X318424982Y-50688796D01*
X318541557Y-50688181D01*
X318618468Y-50546000D01*
X318687987Y-50396720D01*
X318758969Y-50400348D01*
X318805872Y-50542626D01*
X318812333Y-50654221D01*
X319147226Y-50654221D01*
X319149072Y-50629861D01*
X319077473Y-50310746D01*
X318922204Y-50086295D01*
X318782075Y-49928176D01*
X318760268Y-49834495D01*
X318816371Y-49779712D01*
X319057037Y-49702613D01*
X319281998Y-49751849D01*
X319412282Y-49882273D01*
X319484989Y-50158122D01*
X319485473Y-50548944D01*
X320005063Y-50548944D01*
X319988547Y-50494416D01*
X319948159Y-50203421D01*
X319844366Y-49734872D01*
X319654788Y-49411606D01*
X319378284Y-49232247D01*
X319109474Y-49191333D01*
X318906840Y-49177070D01*
X318834924Y-49120491D01*
X318842837Y-49043166D01*
X318877343Y-48876144D01*
X318918935Y-48614200D01*
X318941154Y-48450500D01*
X318996390Y-48161300D01*
X319072761Y-48023537D01*
X319123532Y-48006000D01*
X319297683Y-48056401D01*
X319573009Y-48194255D01*
X319919830Y-48399537D01*
X320308469Y-48652222D01*
X320709246Y-48932285D01*
X321092485Y-49219702D01*
X321428506Y-49494448D01*
X321686442Y-49735264D01*
X321885886Y-49912592D01*
X322063419Y-50021554D01*
X322127788Y-50038000D01*
X322254437Y-49968287D01*
X322436325Y-49777293D01*
X322636108Y-49508833D01*
X322888208Y-49168642D01*
X323183152Y-48815934D01*
X323416568Y-48568089D01*
X323645916Y-48351661D01*
X323807769Y-48233264D01*
X323952696Y-48189545D01*
X324131269Y-48197151D01*
X324200368Y-48206142D01*
X324622421Y-48292555D01*
X325076369Y-48431314D01*
X325501817Y-48600404D01*
X325838370Y-48777814D01*
X325915462Y-48831250D01*
X326100028Y-48962466D01*
X326205001Y-48995557D01*
X326281921Y-48939533D01*
X326311763Y-48900524D01*
X326375488Y-48741675D01*
X326434134Y-48474426D01*
X326471590Y-48188338D01*
X326548150Y-47449660D01*
X326632864Y-46826511D01*
X326722995Y-46335889D01*
X326815807Y-45994793D01*
X326831212Y-45954005D01*
X326934936Y-45694772D01*
X326391922Y-45694772D01*
X326164107Y-46321560D01*
X326022507Y-46881094D01*
X325950380Y-47440560D01*
X325947812Y-47476833D01*
X325914200Y-47847018D01*
X325871119Y-48069736D01*
X325813446Y-48166794D01*
X325783797Y-48175333D01*
X325664419Y-48157284D01*
X325411279Y-48107476D01*
X325055567Y-48032420D01*
X324628474Y-47938623D01*
X324363860Y-47879000D01*
X323904080Y-47776929D01*
X323492018Y-47690054D01*
X323160673Y-47624984D01*
X322943046Y-47588324D01*
X322883795Y-47582666D01*
X322744309Y-47644365D01*
X322706666Y-47790009D01*
X322782215Y-47960419D01*
X322806304Y-47986770D01*
X322863162Y-48110132D01*
X322809164Y-48297738D01*
X322808188Y-48299883D01*
X322711075Y-48457043D01*
X322549221Y-48668710D01*
X322357313Y-48895321D01*
X322170040Y-49097311D01*
X322022088Y-49235119D01*
X321955384Y-49272568D01*
X321867864Y-49221584D01*
X321687464Y-49090747D01*
X321452158Y-48907676D01*
X321437000Y-48895535D01*
X321132311Y-48660589D01*
X320814808Y-48430529D01*
X320599186Y-48285133D01*
X320284765Y-48067174D01*
X320024271Y-47853240D01*
X319844606Y-47668689D01*
X319772670Y-47538878D01*
X319777950Y-47511025D01*
X319877980Y-47471998D01*
X320104375Y-47432547D01*
X320414324Y-47399533D01*
X320524359Y-47391435D01*
X321387929Y-47289769D01*
X322339494Y-47099461D01*
X323332003Y-46834033D01*
X324318408Y-46507005D01*
X325251658Y-46131898D01*
X325786783Y-45879179D01*
X326108912Y-45722208D01*
X326303876Y-45643396D01*
X326391437Y-45636719D01*
X326391922Y-45694772D01*
X326934936Y-45694772D01*
X326962280Y-45626434D01*
X327156166Y-45808580D01*
X327328899Y-46024256D01*
X327452587Y-46257529D01*
X327702754Y-46892965D01*
X327906518Y-47375133D01*
X328067956Y-47712401D01*
X328191145Y-47913135D01*
X328280162Y-47985702D01*
X328294578Y-47985504D01*
X328337272Y-47957438D01*
X328368351Y-47878595D01*
X328388932Y-47728329D01*
X328400126Y-47485994D01*
X328403047Y-47130945D01*
X328398809Y-46642535D01*
X328391736Y-46184124D01*
X328387329Y-45428208D01*
X328395770Y-44959624D01*
X327782437Y-44959624D01*
X327766479Y-45232744D01*
X327734284Y-45442342D01*
X327732509Y-45449142D01*
X327692491Y-45571993D01*
X327645283Y-45571068D01*
X327554309Y-45436640D01*
X327528941Y-45395012D01*
X327398182Y-45215926D01*
X327283826Y-45115312D01*
X327276401Y-45112355D01*
X327253294Y-45024513D01*
X327345173Y-44817730D01*
X327426883Y-44681854D01*
X327572476Y-44474896D01*
X327686543Y-44353464D01*
X327732758Y-44339313D01*
X327765590Y-44454892D01*
X327782145Y-44681001D01*
X327782437Y-44959624D01*
X328395770Y-44959624D01*
X328399783Y-44736856D01*
X328427596Y-44125790D01*
X328469267Y-43610738D01*
X328523292Y-43207424D01*
X328588171Y-42931572D01*
X328662401Y-42798909D01*
X328715268Y-42797105D01*
X328758866Y-42896236D01*
X328805710Y-43111972D01*
X328836595Y-43325786D01*
X328893466Y-43693167D01*
X328981064Y-44118610D01*
X329090583Y-44572123D01*
X329213213Y-45023712D01*
X329340147Y-45443384D01*
X329462578Y-45801146D01*
X329571698Y-46067005D01*
X329658698Y-46210968D01*
X329688856Y-46228000D01*
X329822181Y-46170432D01*
X329930493Y-46075801D01*
X330024335Y-45934126D01*
X330169074Y-45670901D01*
X330348487Y-45320040D01*
X330546348Y-44915456D01*
X330746433Y-44491060D01*
X330932517Y-44080766D01*
X331088376Y-43718487D01*
X331197784Y-43438134D01*
X331211620Y-43398010D01*
X331262305Y-43180136D01*
X331319942Y-42821276D01*
X331381370Y-42349473D01*
X331443431Y-41792772D01*
X331502965Y-41179219D01*
X331556812Y-40536856D01*
X331595863Y-39987414D01*
X331653397Y-39925290D01*
X331813767Y-39761298D01*
X332059662Y-39512897D01*
X332373775Y-39197545D01*
X332738795Y-38832701D01*
X332896923Y-38675080D01*
X333333184Y-38238038D01*
X333665214Y-37897127D01*
X333910598Y-37630862D01*
X334086924Y-37417755D01*
X334211776Y-37236320D01*
X334302742Y-37065069D01*
X334377407Y-36882517D01*
X334388228Y-36852997D01*
X334509030Y-36474457D01*
X334529455Y-36284954D01*
X334052333Y-36284954D01*
X333995195Y-36461198D01*
X333838496Y-36728516D01*
X333604308Y-37060174D01*
X333314705Y-37429436D01*
X332991758Y-37809567D01*
X332657540Y-38173834D01*
X332334125Y-38495499D01*
X332043584Y-38747830D01*
X331978000Y-38797436D01*
X331639333Y-39044057D01*
X331615157Y-38134385D01*
X331609715Y-37690367D01*
X331622540Y-37392898D01*
X331655535Y-37219986D01*
X331699824Y-37155165D01*
X331839202Y-37088229D01*
X332079679Y-36990773D01*
X332361645Y-36885634D01*
X332625491Y-36795650D01*
X332691532Y-36775224D01*
X332758772Y-36711320D01*
X332680254Y-36615266D01*
X332473518Y-36499712D01*
X332156106Y-36377307D01*
X332126064Y-36367470D01*
X331841952Y-36256261D01*
X331687256Y-36138526D01*
X331630099Y-36019017D01*
X331612684Y-35753534D01*
X331720966Y-35600473D01*
X331908023Y-35560000D01*
X332091612Y-35585548D01*
X332371924Y-35654005D01*
X332712628Y-35753087D01*
X333077391Y-35870510D01*
X333429881Y-35993992D01*
X333733765Y-36111248D01*
X333952710Y-36209995D01*
X334050385Y-36277951D01*
X334052333Y-36284954D01*
X334529455Y-36284954D01*
X334538530Y-36200765D01*
X334460044Y-35994865D01*
X334256884Y-35819698D01*
X333912365Y-35638205D01*
X333822590Y-35596775D01*
X333493285Y-35452251D01*
X333198106Y-35332451D01*
X332989839Y-35258547D01*
X332957184Y-35249639D01*
X332726154Y-35178154D01*
X332585391Y-35118527D01*
X332511382Y-35061434D01*
X332537078Y-34991700D01*
X332681806Y-34880784D01*
X332797058Y-34805917D01*
X333238753Y-34466646D01*
X333719152Y-33995227D01*
X334217122Y-33417923D01*
X334711530Y-32760994D01*
X335181243Y-32050703D01*
X335600218Y-31322550D01*
X335845375Y-30826885D01*
X336062668Y-30306212D01*
X336261655Y-29730716D01*
X336451892Y-29070584D01*
X336642938Y-28296002D01*
X336804500Y-27565816D01*
X336899704Y-27106851D01*
X336959967Y-26769835D01*
X336988556Y-26511750D01*
X336988708Y-26322920D01*
X336428266Y-26322920D01*
X336386667Y-26697615D01*
X336306998Y-27150543D01*
X336194242Y-27661489D01*
X336053380Y-28210240D01*
X335889394Y-28776581D01*
X335707264Y-29340296D01*
X335511973Y-29881172D01*
X335308502Y-30378993D01*
X335101833Y-30813545D01*
X335019281Y-30965306D01*
X334669514Y-31566075D01*
X334364355Y-32052968D01*
X334075149Y-32464772D01*
X333773245Y-32840274D01*
X333429988Y-33218263D01*
X333124165Y-33530724D01*
X332776936Y-33872460D01*
X332440366Y-34194259D01*
X332147056Y-34465582D01*
X331929603Y-34655893D01*
X331882937Y-34693475D01*
X331533875Y-34964501D01*
X331449690Y-34305066D01*
X331372968Y-33866436D01*
X331265713Y-33470301D01*
X331140170Y-33148043D01*
X331008587Y-32931040D01*
X330883210Y-32850674D01*
X330882094Y-32850666D01*
X330779950Y-32923604D01*
X330755262Y-33133037D01*
X330808003Y-33464894D01*
X330883819Y-33739666D01*
X330950890Y-34060199D01*
X331002899Y-34525423D01*
X331040145Y-35111397D01*
X331062930Y-35794177D01*
X331071552Y-36549820D01*
X331066311Y-37354383D01*
X331047506Y-38183923D01*
X331015439Y-39014498D01*
X330970407Y-39822163D01*
X330912712Y-40582977D01*
X330842652Y-41272996D01*
X330783945Y-41717767D01*
X330687761Y-42273268D01*
X330567530Y-42826057D01*
X330431253Y-43351193D01*
X330286930Y-43823737D01*
X330142562Y-44218750D01*
X330006148Y-44511293D01*
X329885690Y-44676427D01*
X329825971Y-44704000D01*
X329773306Y-44623098D01*
X329713048Y-44394870D01*
X329647530Y-44041031D01*
X329579087Y-43583297D01*
X329510054Y-43043383D01*
X329442764Y-42443006D01*
X329379553Y-41803880D01*
X329322754Y-41147722D01*
X329274702Y-40496248D01*
X329237731Y-39871171D01*
X329214176Y-39294210D01*
X329207075Y-38946666D01*
X329206954Y-38347126D01*
X329223108Y-37863064D01*
X329259671Y-37441061D01*
X329320775Y-37027698D01*
X329379349Y-36719868D01*
X329456545Y-36310880D01*
X329518042Y-35930363D01*
X329556223Y-35628785D01*
X329565000Y-35489874D01*
X329571318Y-35444125D01*
X329095969Y-35444125D01*
X329094207Y-35452578D01*
X328953434Y-36109284D01*
X328845239Y-36639752D01*
X328764637Y-37082857D01*
X328706644Y-37477477D01*
X328666275Y-37862488D01*
X328638545Y-38276765D01*
X328618471Y-38759186D01*
X328602786Y-39285333D01*
X328578569Y-39997361D01*
X328545477Y-40568943D01*
X328497972Y-41028930D01*
X328430516Y-41406176D01*
X328337571Y-41729535D01*
X328213600Y-42027859D01*
X328053064Y-42330002D01*
X328001531Y-42418000D01*
X327831296Y-42715324D01*
X327622977Y-43094929D01*
X327414323Y-43487692D01*
X327358110Y-43596187D01*
X327098492Y-44067164D01*
X326845713Y-44433116D01*
X326563521Y-44727881D01*
X326215666Y-44985300D01*
X325765897Y-45239214D01*
X325410552Y-45414205D01*
X324176747Y-45952088D01*
X323010494Y-46354943D01*
X321886917Y-46629623D01*
X320781137Y-46782982D01*
X320336333Y-46811976D01*
X319621643Y-46837787D01*
X319026469Y-46843349D01*
X318501986Y-46826749D01*
X317999374Y-46786073D01*
X317469809Y-46719409D01*
X317288333Y-46692526D01*
X317205287Y-46679853D01*
X312936744Y-46679853D01*
X312907700Y-47000617D01*
X312817482Y-47454336D01*
X312770465Y-47647254D01*
X312717676Y-47835153D01*
X312650805Y-47961274D01*
X312533158Y-48055245D01*
X312328040Y-48146692D01*
X312009916Y-48261316D01*
X311312956Y-48571693D01*
X310621780Y-48997569D01*
X310002731Y-49496311D01*
X309837667Y-49657183D01*
X309456667Y-50047730D01*
X309393924Y-49725365D01*
X309358099Y-49527405D01*
X309302107Y-49201524D01*
X309232578Y-48786998D01*
X309156139Y-48323106D01*
X309125167Y-48132854D01*
X308999670Y-47439913D01*
X308857802Y-46794885D01*
X308706257Y-46219979D01*
X308551733Y-45737406D01*
X308400926Y-45369377D01*
X308260533Y-45138101D01*
X308207019Y-45087599D01*
X308005838Y-44987624D01*
X307862072Y-44958000D01*
X307776068Y-44929254D01*
X307741419Y-44828080D01*
X307759885Y-44632073D01*
X307833225Y-44318825D01*
X307942325Y-43935890D01*
X308073804Y-43493152D01*
X308807569Y-44253755D01*
X309143010Y-44592060D01*
X309428289Y-44849846D01*
X309712672Y-45063610D01*
X310045421Y-45269849D01*
X310475800Y-45505060D01*
X310547680Y-45542921D01*
X311029913Y-45781243D01*
X311513221Y-45993954D01*
X311944001Y-46158514D01*
X312194176Y-46235206D01*
X312507413Y-46325937D01*
X312755623Y-46417525D01*
X312893172Y-46492672D01*
X312903228Y-46503964D01*
X312936744Y-46679853D01*
X317205287Y-46679853D01*
X316848824Y-46625456D01*
X316389606Y-46555194D01*
X315992132Y-46494207D01*
X315897916Y-46479708D01*
X315496816Y-46410965D01*
X315253760Y-46347300D01*
X315158104Y-46279032D01*
X315199202Y-46196481D01*
X315366409Y-46089966D01*
X315431802Y-46055839D01*
X315717471Y-45898170D01*
X315985899Y-45730936D01*
X316060667Y-45678774D01*
X316254690Y-45551206D01*
X316544628Y-45377548D01*
X316876250Y-45190003D01*
X316967382Y-45140362D01*
X317620096Y-44788078D01*
X319268781Y-44702358D01*
X319906922Y-44665519D01*
X317034333Y-44665519D01*
X316962957Y-44791865D01*
X316789175Y-44925655D01*
X316573509Y-45028196D01*
X316414792Y-45061609D01*
X316233645Y-45116426D01*
X316005409Y-45244230D01*
X315933667Y-45295582D01*
X315498188Y-45627164D01*
X315176354Y-45866894D01*
X314947706Y-46026315D01*
X314791786Y-46116969D01*
X314688138Y-46150399D01*
X314616304Y-46138149D01*
X314555825Y-46091760D01*
X314543722Y-46079833D01*
X314406012Y-46017940D01*
X314382604Y-46016333D01*
X314278228Y-45956812D01*
X314269256Y-45813254D01*
X314350944Y-45638164D01*
X314424268Y-45555235D01*
X314572023Y-45448977D01*
X314835807Y-45288948D01*
X315179635Y-45095970D01*
X315567519Y-44890869D01*
X315609063Y-44869618D01*
X316020668Y-44662790D01*
X316312537Y-44526436D01*
X316513997Y-44450689D01*
X316654372Y-44425679D01*
X316762987Y-44441540D01*
X316817403Y-44463007D01*
X316975809Y-44568205D01*
X317034333Y-44665519D01*
X319906922Y-44665519D01*
X320037256Y-44657995D01*
X320720701Y-44609748D01*
X321302781Y-44559235D01*
X321767159Y-44508073D01*
X322097498Y-44457880D01*
X322277463Y-44410272D01*
X322290989Y-44403141D01*
X322355050Y-44341642D01*
X322319108Y-44292667D01*
X322171721Y-44255083D01*
X321901446Y-44227757D01*
X321496844Y-44209558D01*
X320946473Y-44199352D01*
X320238890Y-44196007D01*
X320198221Y-44196000D01*
X319535071Y-44194857D01*
X319011058Y-44189984D01*
X318595995Y-44179212D01*
X318259693Y-44160373D01*
X317971962Y-44131299D01*
X317702616Y-44089821D01*
X317421465Y-44033771D01*
X317176384Y-43978962D01*
X316776619Y-43879016D01*
X316421233Y-43775112D01*
X316153144Y-43680695D01*
X316027624Y-43619129D01*
X315839390Y-43485201D01*
X315714185Y-43394661D01*
X315584532Y-43343251D01*
X315524519Y-43410368D01*
X315529990Y-43562133D01*
X315596789Y-43764667D01*
X315720760Y-43984090D01*
X315798861Y-44084892D01*
X316001512Y-44320489D01*
X315607756Y-44494974D01*
X315325425Y-44625852D01*
X315053605Y-44767016D01*
X314754328Y-44940397D01*
X314389627Y-45167927D01*
X313953924Y-45450322D01*
X313621992Y-45661766D01*
X313388026Y-45790515D01*
X313212295Y-45852433D01*
X313055069Y-45863383D01*
X312949189Y-45851492D01*
X312474449Y-45739494D01*
X311911980Y-45545274D01*
X311308260Y-45289870D01*
X310709768Y-44994318D01*
X310162983Y-44679654D01*
X309777798Y-44416074D01*
X309473238Y-44162665D01*
X309122964Y-43837087D01*
X308788993Y-43497815D01*
X308695148Y-43395295D01*
X308138034Y-42772818D01*
X308225599Y-42235576D01*
X308250041Y-42012132D01*
X308275803Y-41646491D01*
X308301608Y-41165766D01*
X308326180Y-40597072D01*
X308348245Y-39967524D01*
X308366525Y-39304238D01*
X308369401Y-39179500D01*
X308386331Y-38455973D01*
X308402064Y-37884268D01*
X308417958Y-37446893D01*
X308435368Y-37126353D01*
X308455651Y-36905158D01*
X308480164Y-36765814D01*
X308510262Y-36690829D01*
X308547301Y-36662710D01*
X308564696Y-36660666D01*
X308840741Y-36600257D01*
X309193969Y-36416588D01*
X309629480Y-36105995D01*
X310152373Y-35664816D01*
X310767750Y-35089387D01*
X310811333Y-35046995D01*
X311996667Y-33891589D01*
X312683564Y-33960409D01*
X312948990Y-33981358D01*
X313354350Y-34006043D01*
X313870323Y-34033026D01*
X314467590Y-34060873D01*
X315116830Y-34088147D01*
X315788723Y-34113414D01*
X315858564Y-34115864D01*
X316592588Y-34142451D01*
X317181741Y-34166990D01*
X317650430Y-34191736D01*
X318023062Y-34218944D01*
X318324046Y-34250871D01*
X318577788Y-34289772D01*
X318808695Y-34337902D01*
X319041176Y-34397518D01*
X319108667Y-34416237D01*
X319569321Y-34533795D01*
X320097075Y-34650982D01*
X320591097Y-34745691D01*
X320675000Y-34759670D01*
X321086296Y-34833434D01*
X321593916Y-34935495D01*
X322130243Y-35051767D01*
X322580000Y-35156533D01*
X322921869Y-35238405D01*
X323208986Y-35301625D01*
X323470928Y-35348658D01*
X323737271Y-35381972D01*
X324037592Y-35404032D01*
X324401468Y-35417305D01*
X324858474Y-35424256D01*
X325438187Y-35427354D01*
X325839667Y-35428350D01*
X326463582Y-35427059D01*
X327063543Y-35420950D01*
X327608583Y-35410710D01*
X328067738Y-35397027D01*
X328410040Y-35380588D01*
X328562656Y-35367911D01*
X328861764Y-35337296D01*
X329027511Y-35336156D01*
X329094159Y-35369946D01*
X329095969Y-35444125D01*
X329571318Y-35444125D01*
X329602051Y-35221602D01*
X329692209Y-34993501D01*
X329701799Y-34979037D01*
X329788968Y-34813847D01*
X329763540Y-34713963D01*
X329613186Y-34676026D01*
X329325580Y-34696675D01*
X328920795Y-34766163D01*
X328630777Y-34815492D01*
X328310261Y-34853311D01*
X327933001Y-34880959D01*
X327472754Y-34899775D01*
X326903273Y-34911096D01*
X326198313Y-34916261D01*
X325966667Y-34916796D01*
X325285832Y-34916874D01*
X324743976Y-34913494D01*
X324310751Y-34904539D01*
X323955808Y-34887894D01*
X323648798Y-34861442D01*
X323359373Y-34823069D01*
X323057185Y-34770658D01*
X322711883Y-34702093D01*
X322622333Y-34683642D01*
X321994396Y-34550987D01*
X321340842Y-34407994D01*
X320702639Y-34264002D01*
X320120753Y-34128353D01*
X319636153Y-34010387D01*
X319383833Y-33945234D01*
X319066333Y-33860139D01*
X319066333Y-33235458D01*
X319055803Y-32929801D01*
X319036388Y-32768374D01*
X314268048Y-32768374D01*
X314260123Y-32780077D01*
X314142236Y-32824304D01*
X313897818Y-32871212D01*
X313569377Y-32913494D01*
X313381650Y-32931051D01*
X313017452Y-32960840D01*
X312706096Y-32986296D01*
X312494224Y-33003606D01*
X312441167Y-33007934D01*
X312315771Y-32990296D01*
X312293000Y-32960614D01*
X312335300Y-32848341D01*
X312442059Y-32654377D01*
X312583067Y-32425910D01*
X312728114Y-32210129D01*
X312846991Y-32054219D01*
X312905435Y-32004000D01*
X313007062Y-32039824D01*
X313221282Y-32135718D01*
X313510098Y-32274317D01*
X313660185Y-32348960D01*
X314017567Y-32541017D01*
X314218918Y-32679909D01*
X314268048Y-32768374D01*
X319036388Y-32768374D01*
X319028003Y-32698665D01*
X318988616Y-32586302D01*
X318982463Y-32582555D01*
X318874806Y-32577324D01*
X318626186Y-32579840D01*
X318264761Y-32589364D01*
X317818687Y-32605157D01*
X317326640Y-32626001D01*
X316697641Y-32651354D01*
X316203975Y-32659025D01*
X315812063Y-32643252D01*
X315488324Y-32598270D01*
X315199180Y-32518316D01*
X314911050Y-32397626D01*
X314590354Y-32230437D01*
X314400583Y-32123783D01*
X314081971Y-31951547D01*
X313774167Y-31800144D01*
X313551507Y-31705386D01*
X313202982Y-31544630D01*
X312768174Y-31278626D01*
X312394863Y-31018272D01*
X312201387Y-30926804D01*
X312088387Y-30971225D01*
X312069553Y-31131820D01*
X312149915Y-31371024D01*
X312238840Y-31582163D01*
X312276112Y-31769169D01*
X312255030Y-31970294D01*
X312168895Y-32223790D01*
X312011005Y-32567909D01*
X311901581Y-32788858D01*
X311711681Y-33147116D01*
X311519626Y-33453709D01*
X311293675Y-33750699D01*
X311002088Y-34080150D01*
X310652748Y-34443821D01*
X310072369Y-35016554D01*
X309581942Y-35459345D01*
X309172365Y-35779588D01*
X308834535Y-35984677D01*
X308672926Y-36052108D01*
X308479602Y-36100595D01*
X308353776Y-36059387D01*
X308218081Y-35901993D01*
X308212504Y-35894462D01*
X308071885Y-35730202D01*
X307963248Y-35647145D01*
X307950553Y-35644666D01*
X307922998Y-35724930D01*
X307910872Y-35949436D01*
X307914617Y-36293757D01*
X307931697Y-36681833D01*
X307951047Y-37322578D01*
X307946249Y-38077725D01*
X307919764Y-38914217D01*
X307874056Y-39798991D01*
X307811584Y-40698990D01*
X307734811Y-41581154D01*
X307646199Y-42412422D01*
X307548209Y-43159734D01*
X307443304Y-43790033D01*
X307380069Y-44089774D01*
X307259368Y-44520223D01*
X307094112Y-45002911D01*
X306918081Y-45439951D01*
X306901363Y-45476988D01*
X306586364Y-46166094D01*
X306464031Y-45726755D01*
X305673331Y-45726755D01*
X305651566Y-45845330D01*
X305598650Y-45915233D01*
X305515548Y-45959824D01*
X305498500Y-45966563D01*
X305079293Y-46135389D01*
X304797547Y-46267513D01*
X304628974Y-46376333D01*
X304549282Y-46475244D01*
X304542190Y-46494003D01*
X304484249Y-46634977D01*
X304455074Y-46619556D01*
X304459396Y-46458965D01*
X304474724Y-46333833D01*
X304506504Y-46123093D01*
X304558444Y-45792802D01*
X304623001Y-45390460D01*
X304684033Y-45015879D01*
X304756318Y-44544375D01*
X304796158Y-44174788D01*
X304805808Y-43843293D01*
X304787520Y-43486067D01*
X304751304Y-43110879D01*
X304678858Y-42561282D01*
X304581650Y-42002516D01*
X304469945Y-41484351D01*
X304354011Y-41056560D01*
X304289101Y-40870031D01*
X304264332Y-40770976D01*
X304332680Y-40769901D01*
X304446542Y-40817999D01*
X304516846Y-40847285D01*
X304575156Y-40874584D01*
X304625834Y-40915340D01*
X304673242Y-40984998D01*
X304721741Y-41099000D01*
X304775694Y-41272791D01*
X304839464Y-41521815D01*
X304917411Y-41861516D01*
X305013897Y-42307338D01*
X305133286Y-42874725D01*
X305279938Y-43579120D01*
X305429586Y-44298553D01*
X305542073Y-44845407D01*
X305619550Y-45250153D01*
X305662981Y-45536149D01*
X305673331Y-45726755D01*
X306464031Y-45726755D01*
X306306185Y-45159880D01*
X306165551Y-44631828D01*
X306015125Y-44029764D01*
X305877208Y-43444471D01*
X305809431Y-43137666D01*
X305611526Y-41877758D01*
X305532018Y-40544984D01*
X305569863Y-39186512D01*
X305724020Y-37849512D01*
X305939768Y-36798657D01*
X305342759Y-36798657D01*
X305321599Y-36996685D01*
X305314520Y-37036689D01*
X305258300Y-37234622D01*
X305159106Y-37370924D01*
X304990844Y-37453865D01*
X304727422Y-37491711D01*
X304342748Y-37492730D01*
X303937456Y-37473023D01*
X303492599Y-37453409D01*
X303177285Y-37454647D01*
X303006542Y-37476348D01*
X302979667Y-37497735D01*
X303054875Y-37635590D01*
X303248846Y-37778543D01*
X303514100Y-37899489D01*
X303803155Y-37971325D01*
X303811126Y-37972366D01*
X304231583Y-38064632D01*
X304571990Y-38215329D01*
X304796207Y-38406056D01*
X304850078Y-38501369D01*
X304877064Y-38673309D01*
X304885917Y-38962542D01*
X304878359Y-39318197D01*
X304856114Y-39689403D01*
X304820903Y-40025287D01*
X304792672Y-40196686D01*
X304752416Y-40323453D01*
X304670538Y-40336976D01*
X304522923Y-40268936D01*
X304341245Y-40159991D01*
X304078725Y-39984758D01*
X303789354Y-39779391D01*
X303763497Y-39760414D01*
X303273677Y-39376431D01*
X302896732Y-39018213D01*
X302592059Y-38639981D01*
X302319054Y-38195961D01*
X302233047Y-38034999D01*
X302063610Y-37697108D01*
X301973976Y-37482804D01*
X301957035Y-37370348D01*
X302005051Y-37338000D01*
X302417216Y-37314758D01*
X302930123Y-37251970D01*
X303482718Y-37160037D01*
X304013944Y-37049362D01*
X304462745Y-36930349D01*
X304536612Y-36906670D01*
X304867190Y-36801974D01*
X305133131Y-36727915D01*
X305297000Y-36694400D01*
X305329942Y-36696719D01*
X305342759Y-36798657D01*
X305939768Y-36798657D01*
X305950716Y-36745333D01*
X306084136Y-36186944D01*
X306161248Y-35780859D01*
X306180001Y-35518977D01*
X306138342Y-35393196D01*
X306034217Y-35395414D01*
X305865574Y-35517528D01*
X305684442Y-35694419D01*
X305439450Y-35915430D01*
X305174434Y-36105978D01*
X305091255Y-36153598D01*
X304655517Y-36330365D01*
X304132447Y-36471531D01*
X303603236Y-36558063D01*
X303289506Y-36576000D01*
X302819454Y-36576000D01*
X302976096Y-36120712D01*
X303172946Y-35355847D01*
X303286734Y-34446304D01*
X303318333Y-33531459D01*
X303312044Y-33146819D01*
X303289524Y-32787066D01*
X303245297Y-32411923D01*
X303173888Y-31981114D01*
X303069820Y-31454362D01*
X302975914Y-31013009D01*
X302818329Y-30243244D01*
X302713874Y-29634063D01*
X302662522Y-29185282D01*
X302658414Y-28961332D01*
X302683333Y-28490333D01*
X302947281Y-28939592D01*
X303123707Y-29312413D01*
X303279191Y-29773496D01*
X303355420Y-30082592D01*
X303494567Y-30690239D01*
X303654462Y-31285609D01*
X303827850Y-31851099D01*
X304007477Y-32369104D01*
X304186088Y-32822022D01*
X304356428Y-33192249D01*
X304511241Y-33462182D01*
X304643274Y-33614217D01*
X304745270Y-33630750D01*
X304790479Y-33564615D01*
X304809430Y-33371396D01*
X304779242Y-33051613D01*
X304706092Y-32638748D01*
X304596154Y-32166282D01*
X304455604Y-31667696D01*
X304419135Y-31551401D01*
X304229578Y-30912988D01*
X304077246Y-30306695D01*
X303970073Y-29769187D01*
X303915991Y-29337133D01*
X303911000Y-29202782D01*
X303944321Y-28944644D01*
X304030846Y-28613682D01*
X304128781Y-28340484D01*
X304278781Y-27966974D01*
X304444019Y-27540336D01*
X304558681Y-27234219D01*
X304702140Y-26870014D01*
X304886244Y-26439610D01*
X305074621Y-26027614D01*
X305101477Y-25971641D01*
X305432154Y-25287842D01*
X305568329Y-25613753D01*
X305677592Y-25956306D01*
X305738951Y-26363039D01*
X305754240Y-26863439D01*
X305725296Y-27486993D01*
X305702456Y-27769452D01*
X305666105Y-28221967D01*
X305656868Y-28531640D01*
X305683400Y-28723953D01*
X305754360Y-28824387D01*
X305878406Y-28858426D01*
X306064195Y-28851552D01*
X306069933Y-28851057D01*
X306157912Y-28842735D01*
X306226535Y-28821575D01*
X306280359Y-28767439D01*
X306323945Y-28660190D01*
X306361849Y-28479692D01*
X306398632Y-28205808D01*
X306438852Y-27818401D01*
X306487067Y-27297333D01*
X306530213Y-26817869D01*
X306632695Y-25940798D01*
X306775448Y-25188469D01*
X306968905Y-24518940D01*
X307223498Y-23890272D01*
X307296400Y-23737667D01*
X307611843Y-23197941D01*
X308008431Y-22715288D01*
X308511097Y-22265568D01*
X309144772Y-21824639D01*
X309482869Y-21620587D01*
X309903520Y-21373094D01*
X310352778Y-21104049D01*
X310761304Y-20855155D01*
X310938333Y-20745210D01*
X311269914Y-20550475D01*
X311677305Y-20336458D01*
X312176123Y-20095961D01*
X312781981Y-19821783D01*
X313510496Y-19506724D01*
X314377281Y-19143585D01*
X314706000Y-19007993D01*
X315636990Y-18664342D01*
X316524505Y-18423947D01*
X317441873Y-18267465D01*
X317572860Y-18251614D01*
X317984386Y-18204007D01*
X317925178Y-18519611D01*
X317865607Y-18773552D01*
X317778865Y-18973158D01*
X317641962Y-19133053D01*
X317431904Y-19267856D01*
X317125701Y-19392189D01*
X316700359Y-19520674D01*
X316132886Y-19667931D01*
X316110749Y-19673460D01*
X315656978Y-19791081D01*
X315344775Y-19884413D01*
X315149776Y-19962941D01*
X315047617Y-20036150D01*
X315015876Y-20099682D01*
X315011640Y-20163904D01*
X315045296Y-20205778D01*
X315142656Y-20227407D01*
X315329534Y-20230896D01*
X315631742Y-20218350D01*
X316075094Y-20191873D01*
X316115548Y-20189335D01*
X317068223Y-20138592D01*
X317889174Y-20118218D01*
X318613875Y-20131772D01*
X319277799Y-20182814D01*
X319916420Y-20274901D01*
X320565211Y-20411594D01*
X321259647Y-20596452D01*
X321803435Y-20760005D01*
X322662041Y-20993711D01*
X323431530Y-21126144D01*
X324155058Y-21161756D01*
X324875782Y-21104995D01*
X324988643Y-21088429D01*
X325525457Y-20960356D01*
X326091825Y-20732970D01*
X326711244Y-20394883D01*
X327407210Y-19934707D01*
X327488411Y-19876889D01*
X327961161Y-19564471D01*
X328332914Y-19379138D01*
X328611621Y-19318343D01*
X328805235Y-19379541D01*
X328860619Y-19437585D01*
X328977950Y-19673480D01*
X329075286Y-20014595D01*
X329151756Y-20432281D01*
X329206492Y-20897892D01*
X329238622Y-21382779D01*
X329247276Y-21858293D01*
X329231584Y-22295787D01*
X329190677Y-22666612D01*
X329123683Y-22942122D01*
X329029733Y-23093666D01*
X328972286Y-23113999D01*
X328874158Y-23077078D01*
X328660157Y-22977134D01*
X328364051Y-22830399D01*
X328091583Y-22690666D01*
X327601890Y-22450605D01*
X327246357Y-22309335D01*
X327025867Y-22267130D01*
X326941305Y-22324258D01*
X326940333Y-22337699D01*
X327008660Y-22411250D01*
X327188201Y-22537785D01*
X327440797Y-22690531D01*
X327453163Y-22697532D01*
X327723419Y-22859937D01*
X328084909Y-23090856D01*
X328491293Y-23360081D01*
X328896228Y-23637404D01*
X328913663Y-23649583D01*
X329432886Y-24004551D01*
X329886728Y-24292357D01*
X330318622Y-24535365D01*
X330772001Y-24755939D01*
X331290297Y-24976440D01*
X331916942Y-25219234D01*
X332082031Y-25280979D01*
X332755011Y-25521810D01*
X333311730Y-25696843D01*
X333788042Y-25814680D01*
X334219799Y-25883924D01*
X334642854Y-25913176D01*
X334724050Y-25914906D01*
X335195333Y-25921813D01*
X334916296Y-26043728D01*
X334738318Y-26156673D01*
X334696619Y-26260318D01*
X334794930Y-26322847D01*
X334882830Y-26329147D01*
X335025746Y-26300499D01*
X335277271Y-26227641D01*
X335587871Y-26126896D01*
X335908012Y-26014591D01*
X336188159Y-25907049D01*
X336274834Y-25870385D01*
X336377331Y-25889091D01*
X336426815Y-26046674D01*
X336428266Y-26322920D01*
X336988708Y-26322920D01*
X336988736Y-26289578D01*
X336963774Y-26060301D01*
X336933081Y-25872483D01*
X336867746Y-25493033D01*
X336813113Y-25251437D01*
X336742388Y-25120417D01*
X336628776Y-25072698D01*
X336445484Y-25081002D01*
X336189084Y-25115085D01*
X335870225Y-25143978D01*
X335441803Y-25166312D01*
X334963539Y-25179633D01*
X334560333Y-25182023D01*
X334128231Y-25172143D01*
X333742275Y-25142735D01*
X333371560Y-25085824D01*
X332985182Y-24993435D01*
X332552236Y-24857591D01*
X332041815Y-24670317D01*
X331423016Y-24423636D01*
X331089000Y-24286170D01*
X330471913Y-24010808D01*
X330017812Y-23762437D01*
X329723035Y-23538016D01*
X329583919Y-23334503D01*
X329596801Y-23148859D01*
X329640100Y-23083194D01*
X329723545Y-22884601D01*
X329774996Y-22543448D01*
X329793229Y-22083690D01*
X329777020Y-21529281D01*
X329742623Y-21077371D01*
X329658250Y-20367640D01*
X329551598Y-19811263D01*
X329418456Y-19393227D01*
X329254613Y-19098520D01*
X329157316Y-18990351D01*
X328969998Y-18851577D01*
X328775254Y-18814946D01*
X328601367Y-18833677D01*
X328289029Y-18917093D01*
X327891553Y-19069822D01*
X327463992Y-19266202D01*
X327061398Y-19480569D01*
X326738823Y-19687258D01*
X326689116Y-19725129D01*
X326403924Y-19915700D01*
X326089892Y-20076287D01*
X326002791Y-20110524D01*
X325752248Y-20211940D01*
X325557355Y-20313321D01*
X325516279Y-20342299D01*
X325393448Y-20387827D01*
X325144442Y-20418537D01*
X324755734Y-20435360D01*
X324213800Y-20439223D01*
X324111969Y-20438700D01*
X323674334Y-20434404D01*
X323320745Y-20424207D01*
X323013554Y-20402554D01*
X322715113Y-20363891D01*
X322387775Y-20302665D01*
X321993891Y-20213321D01*
X321495814Y-20090305D01*
X321140182Y-20000280D01*
X320585973Y-19861809D01*
X320047633Y-19731407D01*
X319561428Y-19617553D01*
X319163623Y-19528725D01*
X318890485Y-19473403D01*
X318874928Y-19470648D01*
X318583006Y-19412302D01*
X318364266Y-19354506D01*
X318265509Y-19309655D01*
X318265217Y-19309205D01*
X318253710Y-19152723D01*
X318327713Y-18923158D01*
X318461214Y-18674853D01*
X318628201Y-18462147D01*
X318702154Y-18396430D01*
X318906186Y-18191689D01*
X318974112Y-18006884D01*
X318901331Y-17867057D01*
X318807884Y-17820921D01*
X318670063Y-17806819D01*
X318399072Y-17801399D01*
X318030792Y-17803548D01*
X317601104Y-17812153D01*
X317145887Y-17826103D01*
X316701024Y-17844283D01*
X316302393Y-17865583D01*
X315985876Y-17888887D01*
X315787353Y-17913085D01*
X315778406Y-17914867D01*
X315641120Y-17921590D01*
X315642868Y-17855712D01*
X315643774Y-17794340D01*
X315512292Y-17804300D01*
G37*
X315512292Y-17804300D02*
X315459462Y-17816726D01*
X315257829Y-17902202D01*
X315141444Y-18007071D01*
X315020404Y-18114896D01*
X314789361Y-18248962D01*
X314500030Y-18385293D01*
X314204123Y-18499916D01*
X313953356Y-18568855D01*
X313917483Y-18574499D01*
X313492545Y-18691271D01*
X313224333Y-18885210D01*
X313067006Y-18992691D01*
X312821395Y-19097837D01*
X312716333Y-19130706D01*
X312449223Y-19219530D01*
X312101019Y-19354898D01*
X311742777Y-19509037D01*
X311709576Y-19524212D01*
X311402081Y-19659048D01*
X311144494Y-19760047D01*
X310982373Y-19809674D01*
X310961826Y-19812000D01*
X310830809Y-19862368D01*
X310627424Y-19991436D01*
X310486916Y-20098203D01*
X310284244Y-20248171D01*
X309974469Y-20459932D01*
X309595697Y-20708170D01*
X309186033Y-20967567D01*
X309075667Y-21035865D01*
X308445164Y-21451835D01*
X307870922Y-21884727D01*
X307379151Y-22312148D01*
X306996059Y-22711706D01*
X306790307Y-22988403D01*
X306683660Y-23193822D01*
X306550572Y-23498074D01*
X306417923Y-23839272D01*
X306404154Y-23877403D01*
X306261218Y-24260101D01*
X306149007Y-24508288D01*
X306049353Y-24649578D01*
X305944088Y-24711581D01*
X305847967Y-24722666D01*
X305763222Y-24703360D01*
X305715113Y-24621357D01*
X305693692Y-24440529D01*
X305689000Y-24145367D01*
X305668202Y-23763381D01*
X305614403Y-23372598D01*
X305558720Y-23129367D01*
X305468615Y-22867889D01*
X305380403Y-22734786D01*
X305265752Y-22691820D01*
X305233644Y-22690666D01*
X305083830Y-22729896D01*
X304971527Y-22861379D01*
X304888863Y-23105807D01*
X304827967Y-23483870D01*
X304793381Y-23847886D01*
X304746088Y-24250650D01*
X304673642Y-24646576D01*
X304589926Y-24962863D01*
X304570482Y-25016829D01*
X304484258Y-25259015D01*
X304366535Y-25618017D01*
X304232012Y-26047738D01*
X304095388Y-26502085D01*
X304078731Y-26558873D01*
X303924095Y-27080996D01*
X303803569Y-27462068D01*
X303705866Y-27724175D01*
X303619700Y-27889399D01*
X303533784Y-27979826D01*
X303436831Y-28017540D01*
X303329614Y-28024666D01*
X303171568Y-27995485D01*
X303028032Y-27886102D01*
X302859652Y-27663759D01*
X302815636Y-27596850D01*
X302603705Y-27317270D01*
X302436085Y-27201105D01*
X302312717Y-27248348D01*
X302233542Y-27458998D01*
X302217667Y-27559819D01*
X302199694Y-27858939D01*
X302199730Y-28285703D01*
X302215323Y-28799663D01*
X302244021Y-29360370D01*
X302283373Y-29927375D01*
X302330928Y-30460231D01*
X302384234Y-30918489D01*
X302440838Y-31261700D01*
X302442511Y-31269559D01*
X302493987Y-31596165D01*
X302540055Y-32049904D01*
X302579228Y-32591852D01*
X302610019Y-33183083D01*
X302630938Y-33784673D01*
X302640497Y-34357697D01*
X302637210Y-34863230D01*
X302619587Y-35262348D01*
X302601683Y-35433392D01*
X302498927Y-35777836D01*
X302284245Y-36212217D01*
X301970455Y-36711960D01*
X301833606Y-36906020D01*
X301679781Y-37195644D01*
X301626058Y-37536715D01*
X301625000Y-37607240D01*
X301648178Y-37941608D01*
X301730287Y-38242243D01*
X301890186Y-38547831D01*
X302146735Y-38897057D01*
X302398005Y-39192834D01*
X302930069Y-39811892D01*
X303349370Y-40333542D01*
X303668324Y-40774411D01*
X303899345Y-41151129D01*
X303984204Y-41317333D01*
X304066546Y-41502127D01*
X304126448Y-41676895D01*
X304168304Y-41874474D01*
X304196505Y-42127698D01*
X304215445Y-42469402D01*
X304229516Y-42932421D01*
X304235592Y-43196509D01*
X304244521Y-43775332D01*
X304240678Y-44228973D01*
X304221235Y-44601289D01*
X304183364Y-44936139D01*
X304124236Y-45277380D01*
X304090900Y-45440175D01*
X303999725Y-45901691D01*
X303911012Y-46402445D01*
X303840093Y-46854407D01*
X303823653Y-46974421D01*
X303775227Y-47317883D01*
X303727560Y-47607759D01*
X303689097Y-47793937D01*
X303680974Y-47821088D01*
X303674352Y-47892089D01*
X303757231Y-47844730D01*
X303839399Y-47773166D01*
X304011552Y-47641866D01*
X304143688Y-47582910D01*
X304149035Y-47582666D01*
X304248951Y-47527431D01*
X304439093Y-47378376D01*
X304689016Y-47160477D01*
X304883092Y-46980490D01*
X305181091Y-46704289D01*
X305390855Y-46531536D01*
X305541397Y-46443505D01*
X305661733Y-46421474D01*
X305732443Y-46432379D01*
X305910296Y-46536578D01*
X306068180Y-46766285D01*
X306219591Y-47141990D01*
X306239194Y-47201666D01*
X306282312Y-47292824D01*
X306347091Y-47285628D01*
X306467755Y-47165951D01*
X306546816Y-47074666D01*
X306770327Y-46820117D01*
X307020205Y-46545435D01*
X307091108Y-46469562D01*
X307260321Y-46268792D01*
X307365582Y-46102798D01*
X307382754Y-46046228D01*
X307433881Y-45910938D01*
X307559807Y-45721331D01*
X307594889Y-45677666D01*
X307806604Y-45423666D01*
X308058600Y-45714962D01*
X308301034Y-46096573D01*
X308504770Y-46630685D01*
X308665427Y-47303981D01*
X308742642Y-47794333D01*
X308787479Y-48138247D01*
X308818441Y-48402804D01*
X308836285Y-48628103D01*
X308841768Y-48854240D01*
X308835647Y-49121312D01*
X308818679Y-49469418D01*
X308791622Y-49938654D01*
X308785203Y-50048221D01*
X308760042Y-50570093D01*
X308755371Y-50936891D01*
X308771469Y-51161662D01*
X308808613Y-51257452D01*
X308810911Y-51259019D01*
X308902117Y-51223304D01*
X309091482Y-51083938D01*
X309358375Y-50857949D01*
X309682167Y-50562365D01*
X309857703Y-50395005D01*
X310289557Y-49982601D01*
X310620768Y-49680172D01*
X310868150Y-49475716D01*
X311048514Y-49357233D01*
X311178674Y-49312722D01*
X311275442Y-49330182D01*
X311313512Y-49355835D01*
X311447323Y-49386082D01*
X311566347Y-49263124D01*
X311639068Y-49064333D01*
X311670276Y-48967608D01*
X311686026Y-49027992D01*
X311690733Y-49106666D01*
X311676149Y-49295920D01*
X311628218Y-49584643D01*
X311560965Y-49894535D01*
X311479093Y-50204093D01*
X311399076Y-50396437D01*
X311289464Y-50520378D01*
X311118809Y-50624728D01*
X311076428Y-50646603D01*
X310909313Y-50759753D01*
X310647427Y-50971067D01*
X310315656Y-51258895D01*
X309938887Y-51601586D01*
X309542006Y-51977487D01*
X309500455Y-52017734D01*
X309108642Y-52392257D01*
X308740598Y-52733269D01*
X308419646Y-53019995D01*
X308169111Y-53231655D01*
X308012315Y-53347471D01*
X307999929Y-53354459D01*
X307790379Y-53524187D01*
X307576292Y-53821400D01*
X307350295Y-54258691D01*
X307105015Y-54848651D01*
X307068144Y-54945667D01*
X306955041Y-55234972D01*
X306857849Y-55463813D01*
X306797418Y-55583128D01*
X306797023Y-55583666D01*
X306734272Y-55707361D01*
X306642372Y-55931391D01*
X306582815Y-56091666D01*
X306471283Y-56365187D01*
X306307060Y-56722212D01*
X306120112Y-57098457D01*
X306060236Y-57212695D01*
X305895752Y-57542356D01*
X305768625Y-57836226D01*
X305697635Y-58049040D01*
X305689000Y-58107495D01*
X305666103Y-58304533D01*
X305608008Y-58580414D01*
X305570722Y-58722132D01*
X305492599Y-59061041D01*
X305428105Y-59449027D01*
X305407404Y-59627488D01*
X305362364Y-60115310D01*
X308634552Y-60093155D01*
X311906739Y-60071000D01*
X312063899Y-59647666D01*
X312274881Y-59088266D01*
X312446064Y-58663640D01*
X312592331Y-58348302D01*
X312728565Y-58116764D01*
X312869650Y-57943540D01*
X313030469Y-57803143D01*
X313214532Y-57677309D01*
X313694794Y-57355106D01*
X314062477Y-57063660D01*
X314359427Y-56764261D01*
X314627494Y-56418200D01*
X314715699Y-56288743D01*
X314910801Y-56016006D01*
X315089197Y-55802652D01*
X315218556Y-55686487D01*
X315238600Y-55677303D01*
X315475461Y-55626728D01*
X315827827Y-55573868D01*
X316242073Y-55524678D01*
X316664570Y-55485109D01*
X317041692Y-55461113D01*
X317226402Y-55456666D01*
X317744884Y-55456666D01*
X317453109Y-55759949D01*
X317175498Y-56023646D01*
X316937410Y-56175923D01*
X316682203Y-56244738D01*
X316443226Y-56258412D01*
X316199210Y-56273841D01*
X316077364Y-56328623D01*
X316033653Y-56430333D01*
X315964535Y-56596523D01*
X315824778Y-56820380D01*
X315749507Y-56921435D01*
X315596320Y-57156432D01*
X315540390Y-57336900D01*
X315546731Y-57376729D01*
X315563250Y-57416808D01*
X315590370Y-57447270D01*
X315645813Y-57467345D01*
X315747303Y-57476261D01*
X315912562Y-57473249D01*
X316159313Y-57457538D01*
X316505280Y-57428359D01*
X316968186Y-57384940D01*
X317565753Y-57326511D01*
X318242279Y-57259572D01*
X318785367Y-57208340D01*
X319183400Y-57177721D01*
X319459333Y-57167216D01*
X319636123Y-57176322D01*
X319736726Y-57204540D01*
X319766279Y-57226320D01*
X319780525Y-57348365D01*
X319653012Y-57520617D01*
X319399365Y-57730810D01*
X319035213Y-57966677D01*
X318576182Y-58215952D01*
X318389000Y-58307425D01*
X318006780Y-58489371D01*
X317638972Y-58664867D01*
X317339437Y-58808196D01*
X317219446Y-58865859D01*
X316989436Y-59012085D01*
X316800131Y-59193703D01*
X316679667Y-59373623D01*
X316656176Y-59514753D01*
X316692250Y-59560888D01*
X316831562Y-59561417D01*
X317079093Y-59479384D01*
X317403307Y-59327839D01*
X317772665Y-59119830D01*
X317802945Y-59101310D01*
X318107682Y-58935459D01*
X318425377Y-58794912D01*
X318556702Y-58749152D01*
X318830845Y-58697485D01*
X318989092Y-58757501D01*
X319055767Y-58945950D01*
X319062344Y-59097333D01*
X319005995Y-59352245D01*
X318824118Y-59577126D01*
X318621833Y-59727265D01*
X318461989Y-59850024D01*
X318389399Y-59942737D01*
X318389000Y-59946998D01*
X318465985Y-59989006D01*
X318666791Y-60031119D01*
X318918167Y-60061230D01*
X319127921Y-60072434D01*
X319485745Y-60083541D01*
X319970375Y-60094375D01*
X320560547Y-60104758D01*
X321234998Y-60114512D01*
X321972463Y-60123460D01*
X322751680Y-60131423D01*
X323551383Y-60138224D01*
X324350310Y-60143685D01*
X325127198Y-60147630D01*
X325860781Y-60149879D01*
X326529796Y-60150255D01*
X327112981Y-60148582D01*
X327589070Y-60144680D01*
X327936801Y-60138372D01*
X327983651Y-60136983D01*
X328899968Y-60107479D01*
X329178180Y-59496573D01*
X329332476Y-59124088D01*
X329498944Y-58668944D01*
X329648268Y-58212654D01*
X329687178Y-58081333D01*
X329815114Y-57664458D01*
X329982243Y-57160486D01*
X330164789Y-56639510D01*
X330304649Y-56261000D01*
X330474917Y-55798816D01*
X330588363Y-55444613D01*
X330656225Y-55151317D01*
X330689741Y-54871854D01*
X330699667Y-54606421D01*
X330682273Y-54158540D01*
X330599778Y-53833275D01*
X330427193Y-53588730D01*
X330139528Y-53383007D01*
X329895413Y-53257993D01*
X329636843Y-53145958D01*
X329364901Y-53053719D01*
X329041765Y-52971818D01*
X328629612Y-52890798D01*
X328090621Y-52801203D01*
X328031171Y-52791859D01*
X327882156Y-52758842D01*
X327767139Y-52693858D01*
X327659304Y-52565814D01*
X327531839Y-52343614D01*
X327375005Y-52030981D01*
X327222366Y-51712207D01*
X327103442Y-51448879D01*
X327035033Y-51278966D01*
X327025000Y-51240000D01*
X327073974Y-51133306D01*
X327198717Y-50948681D01*
X327287420Y-50832808D01*
X327610701Y-50365941D01*
X327808825Y-49939548D01*
X327871195Y-49596872D01*
X327846119Y-49288826D01*
X327781492Y-49000750D01*
X327691658Y-48768229D01*
X327590959Y-48626846D01*
X327493741Y-48612186D01*
X327479154Y-48624290D01*
X327471919Y-48723242D01*
X327495743Y-48938109D01*
X327537567Y-49180209D01*
X327638560Y-49693548D01*
X327249791Y-50125953D01*
X326934198Y-50586822D01*
X326779739Y-51077316D01*
X326788001Y-51579379D01*
X326960567Y-52074956D01*
X327063450Y-52248651D01*
X327188143Y-52455059D01*
X327252321Y-52597890D01*
X327252972Y-52632249D01*
X327160518Y-52641117D01*
X326924537Y-52643654D01*
X326570708Y-52640159D01*
X326124709Y-52630930D01*
X325612217Y-52616265D01*
X325468630Y-52611510D01*
X323723000Y-52552058D01*
X323723000Y-51693272D01*
X323720353Y-51298981D01*
X323705243Y-51025748D01*
X323666919Y-50825310D01*
X323594629Y-50649400D01*
X323477622Y-50449754D01*
X323428834Y-50372743D01*
X323276475Y-50122474D01*
X323169391Y-49925381D01*
X323132501Y-49830884D01*
X323175976Y-49718554D01*
X323288493Y-49526402D01*
X323356228Y-49424802D01*
X323488562Y-49218486D01*
X323526806Y-49093995D01*
X323482064Y-49000463D01*
X323455117Y-48971830D01*
X323347619Y-48894497D01*
X323236048Y-48925673D01*
X323133644Y-49002294D01*
X322992485Y-49179180D01*
X322914749Y-49452521D01*
X322897931Y-49589011D01*
X322911286Y-50101244D01*
X323066278Y-50561209D01*
X323348484Y-50977093D01*
X323542018Y-51234742D01*
X323619676Y-51442385D01*
X323589824Y-51665069D01*
X323472758Y-51943000D01*
X323322206Y-52239781D01*
X323181586Y-52440245D01*
X323012382Y-52566386D01*
X322776075Y-52640199D01*
X322434147Y-52683679D01*
X322136325Y-52706141D01*
X321743917Y-52730603D01*
X321488158Y-52737180D01*
X321336984Y-52722455D01*
X321258329Y-52683011D01*
X321220128Y-52615430D01*
X321217706Y-52608240D01*
X320959314Y-51934907D01*
X320677850Y-51422428D01*
X320369247Y-51063396D01*
X320168679Y-50873262D01*
X320052449Y-50705393D01*
X320005063Y-50548944D01*
X319485473Y-50548944D01*
X319418761Y-51019025D01*
X319289878Y-51532651D01*
X319108113Y-52043798D01*
X318958302Y-52385405D01*
X318802435Y-52682231D01*
X318614411Y-52973897D01*
X318368127Y-53300025D01*
X318037482Y-53700236D01*
X317946102Y-53807697D01*
X317604984Y-54194075D01*
X317295395Y-54519543D01*
X317040070Y-54761509D01*
X316861745Y-54897380D01*
X316836751Y-54910084D01*
X316591193Y-54972770D01*
X316207882Y-55013814D01*
X315717398Y-55029971D01*
X315706502Y-55030019D01*
X314844337Y-55033333D01*
X314554442Y-54673500D01*
X314253150Y-54269632D01*
X313921886Y-53774870D01*
X313576280Y-53217742D01*
X313231966Y-52626781D01*
X312904574Y-52030516D01*
X312609738Y-51457479D01*
X312363089Y-50936201D01*
X312180258Y-50495212D01*
X312076878Y-50163043D01*
X312072993Y-50144464D01*
X312063041Y-49925960D01*
X312098598Y-49681056D01*
X312165004Y-49461784D01*
X312247602Y-49320174D01*
X312311907Y-49296413D01*
X312377722Y-49383089D01*
X312485237Y-49593480D01*
X312617508Y-49892449D01*
X312712119Y-50126297D01*
X313212128Y-51196582D01*
X313874789Y-52267600D01*
X314693729Y-53329880D01*
X315372900Y-54080198D01*
X315677305Y-54391231D01*
X315942819Y-54652956D01*
X316146449Y-54843425D01*
X316265200Y-54940691D01*
X316282851Y-54948666D01*
X316369450Y-54894620D01*
X316554896Y-54746587D01*
X316813878Y-54525728D01*
X317121085Y-54253201D01*
X317196726Y-54184687D01*
X317881768Y-53491454D01*
X318411559Y-52793863D01*
X318799494Y-52072350D01*
X318984112Y-51574248D01*
X319117672Y-51044304D01*
X319147226Y-50654221D01*
X318812333Y-50654221D01*
X318764010Y-50919201D01*
X318629011Y-51288147D01*
X318422294Y-51729586D01*
X318158817Y-52212043D01*
X317853537Y-52704043D01*
X317800285Y-52783810D01*
X317588662Y-53065660D01*
X317325282Y-53370442D01*
X317039007Y-53670019D01*
X316758699Y-53936254D01*
X316513220Y-54141011D01*
X316331431Y-54256153D01*
X316274434Y-54271333D01*
X316168151Y-54221164D01*
X315994121Y-54096185D01*
X315937886Y-54050224D01*
X315685025Y-53803251D01*
X315371934Y-53444967D01*
X315019146Y-53004315D01*
X314647192Y-52510240D01*
X314276603Y-51991685D01*
X313927912Y-51477593D01*
X313621650Y-50996908D01*
X313378348Y-50578574D01*
X313218539Y-50251534D01*
X313190525Y-50177260D01*
X313112568Y-49894193D01*
X313070822Y-49588608D01*
X313065137Y-49226645D01*
X313095363Y-48774444D01*
X313161347Y-48198146D01*
X313181051Y-48048333D01*
X313231835Y-47658035D01*
X313272966Y-47321361D01*
X313299639Y-47078953D01*
X313307347Y-46979740D01*
X313386226Y-46872785D01*
X313597969Y-46803671D01*
X313909751Y-46775305D01*
X314288748Y-46790590D01*
X314702135Y-46852432D01*
X314715271Y-46855151D01*
X314993488Y-46907639D01*
X315398515Y-46976671D01*
X315889419Y-47055629D01*
X316425268Y-47137894D01*
X316850804Y-47200488D01*
X317447072Y-47287360D01*
X317895922Y-47355933D01*
X318217755Y-47410504D01*
X318432971Y-47455375D01*
X318561972Y-47494846D01*
X318625158Y-47533215D01*
X318642929Y-47574783D01*
X318643000Y-47578238D01*
X318626752Y-47683172D01*
X318583096Y-47914203D01*
X318519659Y-48231757D01*
X318477429Y-48437012D01*
X318344354Y-49143119D01*
X318264563Y-49720883D01*
X318238848Y-50161111D01*
X318268000Y-50454610D01*
X318297020Y-50532335D01*
X318424982Y-50688796D01*
X318541557Y-50688181D01*
X318618468Y-50546000D01*
X318687987Y-50396720D01*
X318758969Y-50400348D01*
X318805872Y-50542626D01*
X318812333Y-50654221D01*
X319147226Y-50654221D01*
X319149072Y-50629861D01*
X319077473Y-50310746D01*
X318922204Y-50086295D01*
X318782075Y-49928176D01*
X318760268Y-49834495D01*
X318816371Y-49779712D01*
X319057037Y-49702613D01*
X319281998Y-49751849D01*
X319412282Y-49882273D01*
X319484989Y-50158122D01*
X319485473Y-50548944D01*
X320005063Y-50548944D01*
X319988547Y-50494416D01*
X319948159Y-50203421D01*
X319844366Y-49734872D01*
X319654788Y-49411606D01*
X319378284Y-49232247D01*
X319109474Y-49191333D01*
X318906840Y-49177070D01*
X318834924Y-49120491D01*
X318842837Y-49043166D01*
X318877343Y-48876144D01*
X318918935Y-48614200D01*
X318941154Y-48450500D01*
X318996390Y-48161300D01*
X319072761Y-48023537D01*
X319123532Y-48006000D01*
X319297683Y-48056401D01*
X319573009Y-48194255D01*
X319919830Y-48399537D01*
X320308469Y-48652222D01*
X320709246Y-48932285D01*
X321092485Y-49219702D01*
X321428506Y-49494448D01*
X321686442Y-49735264D01*
X321885886Y-49912592D01*
X322063419Y-50021554D01*
X322127788Y-50038000D01*
X322254437Y-49968287D01*
X322436325Y-49777293D01*
X322636108Y-49508833D01*
X322888208Y-49168642D01*
X323183152Y-48815934D01*
X323416568Y-48568089D01*
X323645916Y-48351661D01*
X323807769Y-48233264D01*
X323952696Y-48189545D01*
X324131269Y-48197151D01*
X324200368Y-48206142D01*
X324622421Y-48292555D01*
X325076369Y-48431314D01*
X325501817Y-48600404D01*
X325838370Y-48777814D01*
X325915462Y-48831250D01*
X326100028Y-48962466D01*
X326205001Y-48995557D01*
X326281921Y-48939533D01*
X326311763Y-48900524D01*
X326375488Y-48741675D01*
X326434134Y-48474426D01*
X326471590Y-48188338D01*
X326548150Y-47449660D01*
X326632864Y-46826511D01*
X326722995Y-46335889D01*
X326815807Y-45994793D01*
X326831212Y-45954005D01*
X326934936Y-45694772D01*
X326391922Y-45694772D01*
X326164107Y-46321560D01*
X326022507Y-46881094D01*
X325950380Y-47440560D01*
X325947812Y-47476833D01*
X325914200Y-47847018D01*
X325871119Y-48069736D01*
X325813446Y-48166794D01*
X325783797Y-48175333D01*
X325664419Y-48157284D01*
X325411279Y-48107476D01*
X325055567Y-48032420D01*
X324628474Y-47938623D01*
X324363860Y-47879000D01*
X323904080Y-47776929D01*
X323492018Y-47690054D01*
X323160673Y-47624984D01*
X322943046Y-47588324D01*
X322883795Y-47582666D01*
X322744309Y-47644365D01*
X322706666Y-47790009D01*
X322782215Y-47960419D01*
X322806304Y-47986770D01*
X322863162Y-48110132D01*
X322809164Y-48297738D01*
X322808188Y-48299883D01*
X322711075Y-48457043D01*
X322549221Y-48668710D01*
X322357313Y-48895321D01*
X322170040Y-49097311D01*
X322022088Y-49235119D01*
X321955384Y-49272568D01*
X321867864Y-49221584D01*
X321687464Y-49090747D01*
X321452158Y-48907676D01*
X321437000Y-48895535D01*
X321132311Y-48660589D01*
X320814808Y-48430529D01*
X320599186Y-48285133D01*
X320284765Y-48067174D01*
X320024271Y-47853240D01*
X319844606Y-47668689D01*
X319772670Y-47538878D01*
X319777950Y-47511025D01*
X319877980Y-47471998D01*
X320104375Y-47432547D01*
X320414324Y-47399533D01*
X320524359Y-47391435D01*
X321387929Y-47289769D01*
X322339494Y-47099461D01*
X323332003Y-46834033D01*
X324318408Y-46507005D01*
X325251658Y-46131898D01*
X325786783Y-45879179D01*
X326108912Y-45722208D01*
X326303876Y-45643396D01*
X326391437Y-45636719D01*
X326391922Y-45694772D01*
X326934936Y-45694772D01*
X326962280Y-45626434D01*
X327156166Y-45808580D01*
X327328899Y-46024256D01*
X327452587Y-46257529D01*
X327702754Y-46892965D01*
X327906518Y-47375133D01*
X328067956Y-47712401D01*
X328191145Y-47913135D01*
X328280162Y-47985702D01*
X328294578Y-47985504D01*
X328337272Y-47957438D01*
X328368351Y-47878595D01*
X328388932Y-47728329D01*
X328400126Y-47485994D01*
X328403047Y-47130945D01*
X328398809Y-46642535D01*
X328391736Y-46184124D01*
X328387329Y-45428208D01*
X328395770Y-44959624D01*
X327782437Y-44959624D01*
X327766479Y-45232744D01*
X327734284Y-45442342D01*
X327732509Y-45449142D01*
X327692491Y-45571993D01*
X327645283Y-45571068D01*
X327554309Y-45436640D01*
X327528941Y-45395012D01*
X327398182Y-45215926D01*
X327283826Y-45115312D01*
X327276401Y-45112355D01*
X327253294Y-45024513D01*
X327345173Y-44817730D01*
X327426883Y-44681854D01*
X327572476Y-44474896D01*
X327686543Y-44353464D01*
X327732758Y-44339313D01*
X327765590Y-44454892D01*
X327782145Y-44681001D01*
X327782437Y-44959624D01*
X328395770Y-44959624D01*
X328399783Y-44736856D01*
X328427596Y-44125790D01*
X328469267Y-43610738D01*
X328523292Y-43207424D01*
X328588171Y-42931572D01*
X328662401Y-42798909D01*
X328715268Y-42797105D01*
X328758866Y-42896236D01*
X328805710Y-43111972D01*
X328836595Y-43325786D01*
X328893466Y-43693167D01*
X328981064Y-44118610D01*
X329090583Y-44572123D01*
X329213213Y-45023712D01*
X329340147Y-45443384D01*
X329462578Y-45801146D01*
X329571698Y-46067005D01*
X329658698Y-46210968D01*
X329688856Y-46228000D01*
X329822181Y-46170432D01*
X329930493Y-46075801D01*
X330024335Y-45934126D01*
X330169074Y-45670901D01*
X330348487Y-45320040D01*
X330546348Y-44915456D01*
X330746433Y-44491060D01*
X330932517Y-44080766D01*
X331088376Y-43718487D01*
X331197784Y-43438134D01*
X331211620Y-43398010D01*
X331262305Y-43180136D01*
X331319942Y-42821276D01*
X331381370Y-42349473D01*
X331443431Y-41792772D01*
X331502965Y-41179219D01*
X331556812Y-40536856D01*
X331595863Y-39987414D01*
X331653397Y-39925290D01*
X331813767Y-39761298D01*
X332059662Y-39512897D01*
X332373775Y-39197545D01*
X332738795Y-38832701D01*
X332896923Y-38675080D01*
X333333184Y-38238038D01*
X333665214Y-37897127D01*
X333910598Y-37630862D01*
X334086924Y-37417755D01*
X334211776Y-37236320D01*
X334302742Y-37065069D01*
X334377407Y-36882517D01*
X334388228Y-36852997D01*
X334509030Y-36474457D01*
X334529455Y-36284954D01*
X334052333Y-36284954D01*
X333995195Y-36461198D01*
X333838496Y-36728516D01*
X333604308Y-37060174D01*
X333314705Y-37429436D01*
X332991758Y-37809567D01*
X332657540Y-38173834D01*
X332334125Y-38495499D01*
X332043584Y-38747830D01*
X331978000Y-38797436D01*
X331639333Y-39044057D01*
X331615157Y-38134385D01*
X331609715Y-37690367D01*
X331622540Y-37392898D01*
X331655535Y-37219986D01*
X331699824Y-37155165D01*
X331839202Y-37088229D01*
X332079679Y-36990773D01*
X332361645Y-36885634D01*
X332625491Y-36795650D01*
X332691532Y-36775224D01*
X332758772Y-36711320D01*
X332680254Y-36615266D01*
X332473518Y-36499712D01*
X332156106Y-36377307D01*
X332126064Y-36367470D01*
X331841952Y-36256261D01*
X331687256Y-36138526D01*
X331630099Y-36019017D01*
X331612684Y-35753534D01*
X331720966Y-35600473D01*
X331908023Y-35560000D01*
X332091612Y-35585548D01*
X332371924Y-35654005D01*
X332712628Y-35753087D01*
X333077391Y-35870510D01*
X333429881Y-35993992D01*
X333733765Y-36111248D01*
X333952710Y-36209995D01*
X334050385Y-36277951D01*
X334052333Y-36284954D01*
X334529455Y-36284954D01*
X334538530Y-36200765D01*
X334460044Y-35994865D01*
X334256884Y-35819698D01*
X333912365Y-35638205D01*
X333822590Y-35596775D01*
X333493285Y-35452251D01*
X333198106Y-35332451D01*
X332989839Y-35258547D01*
X332957184Y-35249639D01*
X332726154Y-35178154D01*
X332585391Y-35118527D01*
X332511382Y-35061434D01*
X332537078Y-34991700D01*
X332681806Y-34880784D01*
X332797058Y-34805917D01*
X333238753Y-34466646D01*
X333719152Y-33995227D01*
X334217122Y-33417923D01*
X334711530Y-32760994D01*
X335181243Y-32050703D01*
X335600218Y-31322550D01*
X335845375Y-30826885D01*
X336062668Y-30306212D01*
X336261655Y-29730716D01*
X336451892Y-29070584D01*
X336642938Y-28296002D01*
X336804500Y-27565816D01*
X336899704Y-27106851D01*
X336959967Y-26769835D01*
X336988556Y-26511750D01*
X336988708Y-26322920D01*
X336428266Y-26322920D01*
X336386667Y-26697615D01*
X336306998Y-27150543D01*
X336194242Y-27661489D01*
X336053380Y-28210240D01*
X335889394Y-28776581D01*
X335707264Y-29340296D01*
X335511973Y-29881172D01*
X335308502Y-30378993D01*
X335101833Y-30813545D01*
X335019281Y-30965306D01*
X334669514Y-31566075D01*
X334364355Y-32052968D01*
X334075149Y-32464772D01*
X333773245Y-32840274D01*
X333429988Y-33218263D01*
X333124165Y-33530724D01*
X332776936Y-33872460D01*
X332440366Y-34194259D01*
X332147056Y-34465582D01*
X331929603Y-34655893D01*
X331882937Y-34693475D01*
X331533875Y-34964501D01*
X331449690Y-34305066D01*
X331372968Y-33866436D01*
X331265713Y-33470301D01*
X331140170Y-33148043D01*
X331008587Y-32931040D01*
X330883210Y-32850674D01*
X330882094Y-32850666D01*
X330779950Y-32923604D01*
X330755262Y-33133037D01*
X330808003Y-33464894D01*
X330883819Y-33739666D01*
X330950890Y-34060199D01*
X331002899Y-34525423D01*
X331040145Y-35111397D01*
X331062930Y-35794177D01*
X331071552Y-36549820D01*
X331066311Y-37354383D01*
X331047506Y-38183923D01*
X331015439Y-39014498D01*
X330970407Y-39822163D01*
X330912712Y-40582977D01*
X330842652Y-41272996D01*
X330783945Y-41717767D01*
X330687761Y-42273268D01*
X330567530Y-42826057D01*
X330431253Y-43351193D01*
X330286930Y-43823737D01*
X330142562Y-44218750D01*
X330006148Y-44511293D01*
X329885690Y-44676427D01*
X329825971Y-44704000D01*
X329773306Y-44623098D01*
X329713048Y-44394870D01*
X329647530Y-44041031D01*
X329579087Y-43583297D01*
X329510054Y-43043383D01*
X329442764Y-42443006D01*
X329379553Y-41803880D01*
X329322754Y-41147722D01*
X329274702Y-40496248D01*
X329237731Y-39871171D01*
X329214176Y-39294210D01*
X329207075Y-38946666D01*
X329206954Y-38347126D01*
X329223108Y-37863064D01*
X329259671Y-37441061D01*
X329320775Y-37027698D01*
X329379349Y-36719868D01*
X329456545Y-36310880D01*
X329518042Y-35930363D01*
X329556223Y-35628785D01*
X329565000Y-35489874D01*
X329571318Y-35444125D01*
X329095969Y-35444125D01*
X329094207Y-35452578D01*
X328953434Y-36109284D01*
X328845239Y-36639752D01*
X328764637Y-37082857D01*
X328706644Y-37477477D01*
X328666275Y-37862488D01*
X328638545Y-38276765D01*
X328618471Y-38759186D01*
X328602786Y-39285333D01*
X328578569Y-39997361D01*
X328545477Y-40568943D01*
X328497972Y-41028930D01*
X328430516Y-41406176D01*
X328337571Y-41729535D01*
X328213600Y-42027859D01*
X328053064Y-42330002D01*
X328001531Y-42418000D01*
X327831296Y-42715324D01*
X327622977Y-43094929D01*
X327414323Y-43487692D01*
X327358110Y-43596187D01*
X327098492Y-44067164D01*
X326845713Y-44433116D01*
X326563521Y-44727881D01*
X326215666Y-44985300D01*
X325765897Y-45239214D01*
X325410552Y-45414205D01*
X324176747Y-45952088D01*
X323010494Y-46354943D01*
X321886917Y-46629623D01*
X320781137Y-46782982D01*
X320336333Y-46811976D01*
X319621643Y-46837787D01*
X319026469Y-46843349D01*
X318501986Y-46826749D01*
X317999374Y-46786073D01*
X317469809Y-46719409D01*
X317288333Y-46692526D01*
X317205287Y-46679853D01*
X312936744Y-46679853D01*
X312907700Y-47000617D01*
X312817482Y-47454336D01*
X312770465Y-47647254D01*
X312717676Y-47835153D01*
X312650805Y-47961274D01*
X312533158Y-48055245D01*
X312328040Y-48146692D01*
X312009916Y-48261316D01*
X311312956Y-48571693D01*
X310621780Y-48997569D01*
X310002731Y-49496311D01*
X309837667Y-49657183D01*
X309456667Y-50047730D01*
X309393924Y-49725365D01*
X309358099Y-49527405D01*
X309302107Y-49201524D01*
X309232578Y-48786998D01*
X309156139Y-48323106D01*
X309125167Y-48132854D01*
X308999670Y-47439913D01*
X308857802Y-46794885D01*
X308706257Y-46219979D01*
X308551733Y-45737406D01*
X308400926Y-45369377D01*
X308260533Y-45138101D01*
X308207019Y-45087599D01*
X308005838Y-44987624D01*
X307862072Y-44958000D01*
X307776068Y-44929254D01*
X307741419Y-44828080D01*
X307759885Y-44632073D01*
X307833225Y-44318825D01*
X307942325Y-43935890D01*
X308073804Y-43493152D01*
X308807569Y-44253755D01*
X309143010Y-44592060D01*
X309428289Y-44849846D01*
X309712672Y-45063610D01*
X310045421Y-45269849D01*
X310475800Y-45505060D01*
X310547680Y-45542921D01*
X311029913Y-45781243D01*
X311513221Y-45993954D01*
X311944001Y-46158514D01*
X312194176Y-46235206D01*
X312507413Y-46325937D01*
X312755623Y-46417525D01*
X312893172Y-46492672D01*
X312903228Y-46503964D01*
X312936744Y-46679853D01*
X317205287Y-46679853D01*
X316848824Y-46625456D01*
X316389606Y-46555194D01*
X315992132Y-46494207D01*
X315897916Y-46479708D01*
X315496816Y-46410965D01*
X315253760Y-46347300D01*
X315158104Y-46279032D01*
X315199202Y-46196481D01*
X315366409Y-46089966D01*
X315431802Y-46055839D01*
X315717471Y-45898170D01*
X315985899Y-45730936D01*
X316060667Y-45678774D01*
X316254690Y-45551206D01*
X316544628Y-45377548D01*
X316876250Y-45190003D01*
X316967382Y-45140362D01*
X317620096Y-44788078D01*
X319268781Y-44702358D01*
X319906922Y-44665519D01*
X317034333Y-44665519D01*
X316962957Y-44791865D01*
X316789175Y-44925655D01*
X316573509Y-45028196D01*
X316414792Y-45061609D01*
X316233645Y-45116426D01*
X316005409Y-45244230D01*
X315933667Y-45295582D01*
X315498188Y-45627164D01*
X315176354Y-45866894D01*
X314947706Y-46026315D01*
X314791786Y-46116969D01*
X314688138Y-46150399D01*
X314616304Y-46138149D01*
X314555825Y-46091760D01*
X314543722Y-46079833D01*
X314406012Y-46017940D01*
X314382604Y-46016333D01*
X314278228Y-45956812D01*
X314269256Y-45813254D01*
X314350944Y-45638164D01*
X314424268Y-45555235D01*
X314572023Y-45448977D01*
X314835807Y-45288948D01*
X315179635Y-45095970D01*
X315567519Y-44890869D01*
X315609063Y-44869618D01*
X316020668Y-44662790D01*
X316312537Y-44526436D01*
X316513997Y-44450689D01*
X316654372Y-44425679D01*
X316762987Y-44441540D01*
X316817403Y-44463007D01*
X316975809Y-44568205D01*
X317034333Y-44665519D01*
X319906922Y-44665519D01*
X320037256Y-44657995D01*
X320720701Y-44609748D01*
X321302781Y-44559235D01*
X321767159Y-44508073D01*
X322097498Y-44457880D01*
X322277463Y-44410272D01*
X322290989Y-44403141D01*
X322355050Y-44341642D01*
X322319108Y-44292667D01*
X322171721Y-44255083D01*
X321901446Y-44227757D01*
X321496844Y-44209558D01*
X320946473Y-44199352D01*
X320238890Y-44196007D01*
X320198221Y-44196000D01*
X319535071Y-44194857D01*
X319011058Y-44189984D01*
X318595995Y-44179212D01*
X318259693Y-44160373D01*
X317971962Y-44131299D01*
X317702616Y-44089821D01*
X317421465Y-44033771D01*
X317176384Y-43978962D01*
X316776619Y-43879016D01*
X316421233Y-43775112D01*
X316153144Y-43680695D01*
X316027624Y-43619129D01*
X315839390Y-43485201D01*
X315714185Y-43394661D01*
X315584532Y-43343251D01*
X315524519Y-43410368D01*
X315529990Y-43562133D01*
X315596789Y-43764667D01*
X315720760Y-43984090D01*
X315798861Y-44084892D01*
X316001512Y-44320489D01*
X315607756Y-44494974D01*
X315325425Y-44625852D01*
X315053605Y-44767016D01*
X314754328Y-44940397D01*
X314389627Y-45167927D01*
X313953924Y-45450322D01*
X313621992Y-45661766D01*
X313388026Y-45790515D01*
X313212295Y-45852433D01*
X313055069Y-45863383D01*
X312949189Y-45851492D01*
X312474449Y-45739494D01*
X311911980Y-45545274D01*
X311308260Y-45289870D01*
X310709768Y-44994318D01*
X310162983Y-44679654D01*
X309777798Y-44416074D01*
X309473238Y-44162665D01*
X309122964Y-43837087D01*
X308788993Y-43497815D01*
X308695148Y-43395295D01*
X308138034Y-42772818D01*
X308225599Y-42235576D01*
X308250041Y-42012132D01*
X308275803Y-41646491D01*
X308301608Y-41165766D01*
X308326180Y-40597072D01*
X308348245Y-39967524D01*
X308366525Y-39304238D01*
X308369401Y-39179500D01*
X308386331Y-38455973D01*
X308402064Y-37884268D01*
X308417958Y-37446893D01*
X308435368Y-37126353D01*
X308455651Y-36905158D01*
X308480164Y-36765814D01*
X308510262Y-36690829D01*
X308547301Y-36662710D01*
X308564696Y-36660666D01*
X308840741Y-36600257D01*
X309193969Y-36416588D01*
X309629480Y-36105995D01*
X310152373Y-35664816D01*
X310767750Y-35089387D01*
X310811333Y-35046995D01*
X311996667Y-33891589D01*
X312683564Y-33960409D01*
X312948990Y-33981358D01*
X313354350Y-34006043D01*
X313870323Y-34033026D01*
X314467590Y-34060873D01*
X315116830Y-34088147D01*
X315788723Y-34113414D01*
X315858564Y-34115864D01*
X316592588Y-34142451D01*
X317181741Y-34166990D01*
X317650430Y-34191736D01*
X318023062Y-34218944D01*
X318324046Y-34250871D01*
X318577788Y-34289772D01*
X318808695Y-34337902D01*
X319041176Y-34397518D01*
X319108667Y-34416237D01*
X319569321Y-34533795D01*
X320097075Y-34650982D01*
X320591097Y-34745691D01*
X320675000Y-34759670D01*
X321086296Y-34833434D01*
X321593916Y-34935495D01*
X322130243Y-35051767D01*
X322580000Y-35156533D01*
X322921869Y-35238405D01*
X323208986Y-35301625D01*
X323470928Y-35348658D01*
X323737271Y-35381972D01*
X324037592Y-35404032D01*
X324401468Y-35417305D01*
X324858474Y-35424256D01*
X325438187Y-35427354D01*
X325839667Y-35428350D01*
X326463582Y-35427059D01*
X327063543Y-35420950D01*
X327608583Y-35410710D01*
X328067738Y-35397027D01*
X328410040Y-35380588D01*
X328562656Y-35367911D01*
X328861764Y-35337296D01*
X329027511Y-35336156D01*
X329094159Y-35369946D01*
X329095969Y-35444125D01*
X329571318Y-35444125D01*
X329602051Y-35221602D01*
X329692209Y-34993501D01*
X329701799Y-34979037D01*
X329788968Y-34813847D01*
X329763540Y-34713963D01*
X329613186Y-34676026D01*
X329325580Y-34696675D01*
X328920795Y-34766163D01*
X328630777Y-34815492D01*
X328310261Y-34853311D01*
X327933001Y-34880959D01*
X327472754Y-34899775D01*
X326903273Y-34911096D01*
X326198313Y-34916261D01*
X325966667Y-34916796D01*
X325285832Y-34916874D01*
X324743976Y-34913494D01*
X324310751Y-34904539D01*
X323955808Y-34887894D01*
X323648798Y-34861442D01*
X323359373Y-34823069D01*
X323057185Y-34770658D01*
X322711883Y-34702093D01*
X322622333Y-34683642D01*
X321994396Y-34550987D01*
X321340842Y-34407994D01*
X320702639Y-34264002D01*
X320120753Y-34128353D01*
X319636153Y-34010387D01*
X319383833Y-33945234D01*
X319066333Y-33860139D01*
X319066333Y-33235458D01*
X319055803Y-32929801D01*
X319036388Y-32768374D01*
X314268048Y-32768374D01*
X314260123Y-32780077D01*
X314142236Y-32824304D01*
X313897818Y-32871212D01*
X313569377Y-32913494D01*
X313381650Y-32931051D01*
X313017452Y-32960840D01*
X312706096Y-32986296D01*
X312494224Y-33003606D01*
X312441167Y-33007934D01*
X312315771Y-32990296D01*
X312293000Y-32960614D01*
X312335300Y-32848341D01*
X312442059Y-32654377D01*
X312583067Y-32425910D01*
X312728114Y-32210129D01*
X312846991Y-32054219D01*
X312905435Y-32004000D01*
X313007062Y-32039824D01*
X313221282Y-32135718D01*
X313510098Y-32274317D01*
X313660185Y-32348960D01*
X314017567Y-32541017D01*
X314218918Y-32679909D01*
X314268048Y-32768374D01*
X319036388Y-32768374D01*
X319028003Y-32698665D01*
X318988616Y-32586302D01*
X318982463Y-32582555D01*
X318874806Y-32577324D01*
X318626186Y-32579840D01*
X318264761Y-32589364D01*
X317818687Y-32605157D01*
X317326640Y-32626001D01*
X316697641Y-32651354D01*
X316203975Y-32659025D01*
X315812063Y-32643252D01*
X315488324Y-32598270D01*
X315199180Y-32518316D01*
X314911050Y-32397626D01*
X314590354Y-32230437D01*
X314400583Y-32123783D01*
X314081971Y-31951547D01*
X313774167Y-31800144D01*
X313551507Y-31705386D01*
X313202982Y-31544630D01*
X312768174Y-31278626D01*
X312394863Y-31018272D01*
X312201387Y-30926804D01*
X312088387Y-30971225D01*
X312069553Y-31131820D01*
X312149915Y-31371024D01*
X312238840Y-31582163D01*
X312276112Y-31769169D01*
X312255030Y-31970294D01*
X312168895Y-32223790D01*
X312011005Y-32567909D01*
X311901581Y-32788858D01*
X311711681Y-33147116D01*
X311519626Y-33453709D01*
X311293675Y-33750699D01*
X311002088Y-34080150D01*
X310652748Y-34443821D01*
X310072369Y-35016554D01*
X309581942Y-35459345D01*
X309172365Y-35779588D01*
X308834535Y-35984677D01*
X308672926Y-36052108D01*
X308479602Y-36100595D01*
X308353776Y-36059387D01*
X308218081Y-35901993D01*
X308212504Y-35894462D01*
X308071885Y-35730202D01*
X307963248Y-35647145D01*
X307950553Y-35644666D01*
X307922998Y-35724930D01*
X307910872Y-35949436D01*
X307914617Y-36293757D01*
X307931697Y-36681833D01*
X307951047Y-37322578D01*
X307946249Y-38077725D01*
X307919764Y-38914217D01*
X307874056Y-39798991D01*
X307811584Y-40698990D01*
X307734811Y-41581154D01*
X307646199Y-42412422D01*
X307548209Y-43159734D01*
X307443304Y-43790033D01*
X307380069Y-44089774D01*
X307259368Y-44520223D01*
X307094112Y-45002911D01*
X306918081Y-45439951D01*
X306901363Y-45476988D01*
X306586364Y-46166094D01*
X306464031Y-45726755D01*
X305673331Y-45726755D01*
X305651566Y-45845330D01*
X305598650Y-45915233D01*
X305515548Y-45959824D01*
X305498500Y-45966563D01*
X305079293Y-46135389D01*
X304797547Y-46267513D01*
X304628974Y-46376333D01*
X304549282Y-46475244D01*
X304542190Y-46494003D01*
X304484249Y-46634977D01*
X304455074Y-46619556D01*
X304459396Y-46458965D01*
X304474724Y-46333833D01*
X304506504Y-46123093D01*
X304558444Y-45792802D01*
X304623001Y-45390460D01*
X304684033Y-45015879D01*
X304756318Y-44544375D01*
X304796158Y-44174788D01*
X304805808Y-43843293D01*
X304787520Y-43486067D01*
X304751304Y-43110879D01*
X304678858Y-42561282D01*
X304581650Y-42002516D01*
X304469945Y-41484351D01*
X304354011Y-41056560D01*
X304289101Y-40870031D01*
X304264332Y-40770976D01*
X304332680Y-40769901D01*
X304446542Y-40817999D01*
X304516846Y-40847285D01*
X304575156Y-40874584D01*
X304625834Y-40915340D01*
X304673242Y-40984998D01*
X304721741Y-41099000D01*
X304775694Y-41272791D01*
X304839464Y-41521815D01*
X304917411Y-41861516D01*
X305013897Y-42307338D01*
X305133286Y-42874725D01*
X305279938Y-43579120D01*
X305429586Y-44298553D01*
X305542073Y-44845407D01*
X305619550Y-45250153D01*
X305662981Y-45536149D01*
X305673331Y-45726755D01*
X306464031Y-45726755D01*
X306306185Y-45159880D01*
X306165551Y-44631828D01*
X306015125Y-44029764D01*
X305877208Y-43444471D01*
X305809431Y-43137666D01*
X305611526Y-41877758D01*
X305532018Y-40544984D01*
X305569863Y-39186512D01*
X305724020Y-37849512D01*
X305939768Y-36798657D01*
X305342759Y-36798657D01*
X305321599Y-36996685D01*
X305314520Y-37036689D01*
X305258300Y-37234622D01*
X305159106Y-37370924D01*
X304990844Y-37453865D01*
X304727422Y-37491711D01*
X304342748Y-37492730D01*
X303937456Y-37473023D01*
X303492599Y-37453409D01*
X303177285Y-37454647D01*
X303006542Y-37476348D01*
X302979667Y-37497735D01*
X303054875Y-37635590D01*
X303248846Y-37778543D01*
X303514100Y-37899489D01*
X303803155Y-37971325D01*
X303811126Y-37972366D01*
X304231583Y-38064632D01*
X304571990Y-38215329D01*
X304796207Y-38406056D01*
X304850078Y-38501369D01*
X304877064Y-38673309D01*
X304885917Y-38962542D01*
X304878359Y-39318197D01*
X304856114Y-39689403D01*
X304820903Y-40025287D01*
X304792672Y-40196686D01*
X304752416Y-40323453D01*
X304670538Y-40336976D01*
X304522923Y-40268936D01*
X304341245Y-40159991D01*
X304078725Y-39984758D01*
X303789354Y-39779391D01*
X303763497Y-39760414D01*
X303273677Y-39376431D01*
X302896732Y-39018213D01*
X302592059Y-38639981D01*
X302319054Y-38195961D01*
X302233047Y-38034999D01*
X302063610Y-37697108D01*
X301973976Y-37482804D01*
X301957035Y-37370348D01*
X302005051Y-37338000D01*
X302417216Y-37314758D01*
X302930123Y-37251970D01*
X303482718Y-37160037D01*
X304013944Y-37049362D01*
X304462745Y-36930349D01*
X304536612Y-36906670D01*
X304867190Y-36801974D01*
X305133131Y-36727915D01*
X305297000Y-36694400D01*
X305329942Y-36696719D01*
X305342759Y-36798657D01*
X305939768Y-36798657D01*
X305950716Y-36745333D01*
X306084136Y-36186944D01*
X306161248Y-35780859D01*
X306180001Y-35518977D01*
X306138342Y-35393196D01*
X306034217Y-35395414D01*
X305865574Y-35517528D01*
X305684442Y-35694419D01*
X305439450Y-35915430D01*
X305174434Y-36105978D01*
X305091255Y-36153598D01*
X304655517Y-36330365D01*
X304132447Y-36471531D01*
X303603236Y-36558063D01*
X303289506Y-36576000D01*
X302819454Y-36576000D01*
X302976096Y-36120712D01*
X303172946Y-35355847D01*
X303286734Y-34446304D01*
X303318333Y-33531459D01*
X303312044Y-33146819D01*
X303289524Y-32787066D01*
X303245297Y-32411923D01*
X303173888Y-31981114D01*
X303069820Y-31454362D01*
X302975914Y-31013009D01*
X302818329Y-30243244D01*
X302713874Y-29634063D01*
X302662522Y-29185282D01*
X302658414Y-28961332D01*
X302683333Y-28490333D01*
X302947281Y-28939592D01*
X303123707Y-29312413D01*
X303279191Y-29773496D01*
X303355420Y-30082592D01*
X303494567Y-30690239D01*
X303654462Y-31285609D01*
X303827850Y-31851099D01*
X304007477Y-32369104D01*
X304186088Y-32822022D01*
X304356428Y-33192249D01*
X304511241Y-33462182D01*
X304643274Y-33614217D01*
X304745270Y-33630750D01*
X304790479Y-33564615D01*
X304809430Y-33371396D01*
X304779242Y-33051613D01*
X304706092Y-32638748D01*
X304596154Y-32166282D01*
X304455604Y-31667696D01*
X304419135Y-31551401D01*
X304229578Y-30912988D01*
X304077246Y-30306695D01*
X303970073Y-29769187D01*
X303915991Y-29337133D01*
X303911000Y-29202782D01*
X303944321Y-28944644D01*
X304030846Y-28613682D01*
X304128781Y-28340484D01*
X304278781Y-27966974D01*
X304444019Y-27540336D01*
X304558681Y-27234219D01*
X304702140Y-26870014D01*
X304886244Y-26439610D01*
X305074621Y-26027614D01*
X305101477Y-25971641D01*
X305432154Y-25287842D01*
X305568329Y-25613753D01*
X305677592Y-25956306D01*
X305738951Y-26363039D01*
X305754240Y-26863439D01*
X305725296Y-27486993D01*
X305702456Y-27769452D01*
X305666105Y-28221967D01*
X305656868Y-28531640D01*
X305683400Y-28723953D01*
X305754360Y-28824387D01*
X305878406Y-28858426D01*
X306064195Y-28851552D01*
X306069933Y-28851057D01*
X306157912Y-28842735D01*
X306226535Y-28821575D01*
X306280359Y-28767439D01*
X306323945Y-28660190D01*
X306361849Y-28479692D01*
X306398632Y-28205808D01*
X306438852Y-27818401D01*
X306487067Y-27297333D01*
X306530213Y-26817869D01*
X306632695Y-25940798D01*
X306775448Y-25188469D01*
X306968905Y-24518940D01*
X307223498Y-23890272D01*
X307296400Y-23737667D01*
X307611843Y-23197941D01*
X308008431Y-22715288D01*
X308511097Y-22265568D01*
X309144772Y-21824639D01*
X309482869Y-21620587D01*
X309903520Y-21373094D01*
X310352778Y-21104049D01*
X310761304Y-20855155D01*
X310938333Y-20745210D01*
X311269914Y-20550475D01*
X311677305Y-20336458D01*
X312176123Y-20095961D01*
X312781981Y-19821783D01*
X313510496Y-19506724D01*
X314377281Y-19143585D01*
X314706000Y-19007993D01*
X315636990Y-18664342D01*
X316524505Y-18423947D01*
X317441873Y-18267465D01*
X317572860Y-18251614D01*
X317984386Y-18204007D01*
X317925178Y-18519611D01*
X317865607Y-18773552D01*
X317778865Y-18973158D01*
X317641962Y-19133053D01*
X317431904Y-19267856D01*
X317125701Y-19392189D01*
X316700359Y-19520674D01*
X316132886Y-19667931D01*
X316110749Y-19673460D01*
X315656978Y-19791081D01*
X315344775Y-19884413D01*
X315149776Y-19962941D01*
X315047617Y-20036150D01*
X315015876Y-20099682D01*
X315011640Y-20163904D01*
X315045296Y-20205778D01*
X315142656Y-20227407D01*
X315329534Y-20230896D01*
X315631742Y-20218350D01*
X316075094Y-20191873D01*
X316115548Y-20189335D01*
X317068223Y-20138592D01*
X317889174Y-20118218D01*
X318613875Y-20131772D01*
X319277799Y-20182814D01*
X319916420Y-20274901D01*
X320565211Y-20411594D01*
X321259647Y-20596452D01*
X321803435Y-20760005D01*
X322662041Y-20993711D01*
X323431530Y-21126144D01*
X324155058Y-21161756D01*
X324875782Y-21104995D01*
X324988643Y-21088429D01*
X325525457Y-20960356D01*
X326091825Y-20732970D01*
X326711244Y-20394883D01*
X327407210Y-19934707D01*
X327488411Y-19876889D01*
X327961161Y-19564471D01*
X328332914Y-19379138D01*
X328611621Y-19318343D01*
X328805235Y-19379541D01*
X328860619Y-19437585D01*
X328977950Y-19673480D01*
X329075286Y-20014595D01*
X329151756Y-20432281D01*
X329206492Y-20897892D01*
X329238622Y-21382779D01*
X329247276Y-21858293D01*
X329231584Y-22295787D01*
X329190677Y-22666612D01*
X329123683Y-22942122D01*
X329029733Y-23093666D01*
X328972286Y-23113999D01*
X328874158Y-23077078D01*
X328660157Y-22977134D01*
X328364051Y-22830399D01*
X328091583Y-22690666D01*
X327601890Y-22450605D01*
X327246357Y-22309335D01*
X327025867Y-22267130D01*
X326941305Y-22324258D01*
X326940333Y-22337699D01*
X327008660Y-22411250D01*
X327188201Y-22537785D01*
X327440797Y-22690531D01*
X327453163Y-22697532D01*
X327723419Y-22859937D01*
X328084909Y-23090856D01*
X328491293Y-23360081D01*
X328896228Y-23637404D01*
X328913663Y-23649583D01*
X329432886Y-24004551D01*
X329886728Y-24292357D01*
X330318622Y-24535365D01*
X330772001Y-24755939D01*
X331290297Y-24976440D01*
X331916942Y-25219234D01*
X332082031Y-25280979D01*
X332755011Y-25521810D01*
X333311730Y-25696843D01*
X333788042Y-25814680D01*
X334219799Y-25883924D01*
X334642854Y-25913176D01*
X334724050Y-25914906D01*
X335195333Y-25921813D01*
X334916296Y-26043728D01*
X334738318Y-26156673D01*
X334696619Y-26260318D01*
X334794930Y-26322847D01*
X334882830Y-26329147D01*
X335025746Y-26300499D01*
X335277271Y-26227641D01*
X335587871Y-26126896D01*
X335908012Y-26014591D01*
X336188159Y-25907049D01*
X336274834Y-25870385D01*
X336377331Y-25889091D01*
X336426815Y-26046674D01*
X336428266Y-26322920D01*
X336988708Y-26322920D01*
X336988736Y-26289578D01*
X336963774Y-26060301D01*
X336933081Y-25872483D01*
X336867746Y-25493033D01*
X336813113Y-25251437D01*
X336742388Y-25120417D01*
X336628776Y-25072698D01*
X336445484Y-25081002D01*
X336189084Y-25115085D01*
X335870225Y-25143978D01*
X335441803Y-25166312D01*
X334963539Y-25179633D01*
X334560333Y-25182023D01*
X334128231Y-25172143D01*
X333742275Y-25142735D01*
X333371560Y-25085824D01*
X332985182Y-24993435D01*
X332552236Y-24857591D01*
X332041815Y-24670317D01*
X331423016Y-24423636D01*
X331089000Y-24286170D01*
X330471913Y-24010808D01*
X330017812Y-23762437D01*
X329723035Y-23538016D01*
X329583919Y-23334503D01*
X329596801Y-23148859D01*
X329640100Y-23083194D01*
X329723545Y-22884601D01*
X329774996Y-22543448D01*
X329793229Y-22083690D01*
X329777020Y-21529281D01*
X329742623Y-21077371D01*
X329658250Y-20367640D01*
X329551598Y-19811263D01*
X329418456Y-19393227D01*
X329254613Y-19098520D01*
X329157316Y-18990351D01*
X328969998Y-18851577D01*
X328775254Y-18814946D01*
X328601367Y-18833677D01*
X328289029Y-18917093D01*
X327891553Y-19069822D01*
X327463992Y-19266202D01*
X327061398Y-19480569D01*
X326738823Y-19687258D01*
X326689116Y-19725129D01*
X326403924Y-19915700D01*
X326089892Y-20076287D01*
X326002791Y-20110524D01*
X325752248Y-20211940D01*
X325557355Y-20313321D01*
X325516279Y-20342299D01*
X325393448Y-20387827D01*
X325144442Y-20418537D01*
X324755734Y-20435360D01*
X324213800Y-20439223D01*
X324111969Y-20438700D01*
X323674334Y-20434404D01*
X323320745Y-20424207D01*
X323013554Y-20402554D01*
X322715113Y-20363891D01*
X322387775Y-20302665D01*
X321993891Y-20213321D01*
X321495814Y-20090305D01*
X321140182Y-20000280D01*
X320585973Y-19861809D01*
X320047633Y-19731407D01*
X319561428Y-19617553D01*
X319163623Y-19528725D01*
X318890485Y-19473403D01*
X318874928Y-19470648D01*
X318583006Y-19412302D01*
X318364266Y-19354506D01*
X318265509Y-19309655D01*
X318265217Y-19309205D01*
X318253710Y-19152723D01*
X318327713Y-18923158D01*
X318461214Y-18674853D01*
X318628201Y-18462147D01*
X318702154Y-18396430D01*
X318906186Y-18191689D01*
X318974112Y-18006884D01*
X318901331Y-17867057D01*
X318807884Y-17820921D01*
X318670063Y-17806819D01*
X318399072Y-17801399D01*
X318030792Y-17803548D01*
X317601104Y-17812153D01*
X317145887Y-17826103D01*
X316701024Y-17844283D01*
X316302393Y-17865583D01*
X315985876Y-17888887D01*
X315787353Y-17913085D01*
X315778406Y-17914867D01*
X315641120Y-17921590D01*
X315642868Y-17855712D01*
X315643774Y-17794340D01*
X315512292Y-17804300D01*
G36*
X333225158Y-38919390D02*
G01*
X333210307Y-39036415D01*
X333245779Y-39195691D01*
X333290333Y-39285333D01*
X333349341Y-39343609D01*
X333371941Y-39255252D01*
X333373704Y-39184496D01*
X333346258Y-38997021D01*
X333290333Y-38904333D01*
X333225158Y-38919390D01*
G37*
X333225158Y-38919390D02*
X333210307Y-39036415D01*
X333245779Y-39195691D01*
X333290333Y-39285333D01*
X333349341Y-39343609D01*
X333371941Y-39255252D01*
X333373704Y-39184496D01*
X333346258Y-38997021D01*
X333290333Y-38904333D01*
X333225158Y-38919390D01*
G36*
X334566857Y-33658870D02*
G01*
X334560333Y-33687339D01*
X334622119Y-33807031D01*
X334645000Y-33824333D01*
X334723144Y-33820463D01*
X334729667Y-33791993D01*
X334667881Y-33672302D01*
X334645000Y-33655000D01*
X334566857Y-33658870D01*
G37*
X334566857Y-33658870D02*
X334560333Y-33687339D01*
X334622119Y-33807031D01*
X334645000Y-33824333D01*
X334723144Y-33820463D01*
X334729667Y-33791993D01*
X334667881Y-33672302D01*
X334645000Y-33655000D01*
X334566857Y-33658870D01*
G36*
X330157667Y-22479000D02*
G01*
X330076896Y-22555082D01*
X330073000Y-22568663D01*
X330138506Y-22605029D01*
X330157667Y-22606000D01*
X330239080Y-22540912D01*
X330242333Y-22516336D01*
X330190464Y-22465770D01*
X330157667Y-22479000D01*
G37*
X330157667Y-22479000D02*
X330076896Y-22555082D01*
X330073000Y-22568663D01*
X330138506Y-22605029D01*
X330157667Y-22606000D01*
X330239080Y-22540912D01*
X330242333Y-22516336D01*
X330190464Y-22465770D01*
X330157667Y-22479000D01*
G36*
X313107641Y-43173547D02*
G01*
X313080228Y-43382418D01*
X313054190Y-43683292D01*
X313031531Y-44037514D01*
X313014256Y-44406427D01*
X313004371Y-44751378D01*
X313003879Y-45033711D01*
X313014786Y-45214770D01*
X313022679Y-45249893D01*
X313100388Y-45376710D01*
X313166708Y-45348859D01*
X313212072Y-45180995D01*
X313227026Y-44936833D01*
X313253392Y-44629654D01*
X313318799Y-44390604D01*
X313354026Y-44327984D01*
X313457903Y-44068386D01*
X313463842Y-43741751D01*
X313373329Y-43418114D01*
X313333079Y-43341230D01*
X313220586Y-43174796D01*
X313139592Y-43096253D01*
X313134423Y-43095333D01*
X313107641Y-43173547D01*
G37*
X313107641Y-43173547D02*
X313080228Y-43382418D01*
X313054190Y-43683292D01*
X313031531Y-44037514D01*
X313014256Y-44406427D01*
X313004371Y-44751378D01*
X313003879Y-45033711D01*
X313014786Y-45214770D01*
X313022679Y-45249893D01*
X313100388Y-45376710D01*
X313166708Y-45348859D01*
X313212072Y-45180995D01*
X313227026Y-44936833D01*
X313253392Y-44629654D01*
X313318799Y-44390604D01*
X313354026Y-44327984D01*
X313457903Y-44068386D01*
X313463842Y-43741751D01*
X313373329Y-43418114D01*
X313333079Y-43341230D01*
X313220586Y-43174796D01*
X313139592Y-43096253D01*
X313134423Y-43095333D01*
X313107641Y-43173547D01*
G36*
X312960315Y-41762941D02*
G01*
X312777092Y-41851822D01*
X312543327Y-42022754D01*
X312359486Y-42231231D01*
X312349890Y-42246824D01*
X312286765Y-42370760D01*
X312253730Y-42503380D01*
X312249991Y-42684237D01*
X312274755Y-42952883D01*
X312327227Y-43348868D01*
X312327711Y-43352331D01*
X312404281Y-43834778D01*
X312474399Y-44155184D01*
X312534813Y-44312607D01*
X312582270Y-44306106D01*
X312613515Y-44134738D01*
X312625297Y-43797560D01*
X312619452Y-43436835D01*
X312589333Y-42466004D01*
X312843333Y-42381899D01*
X313021901Y-42322808D01*
X313107256Y-42294632D01*
X313107982Y-42294397D01*
X313155896Y-42205747D01*
X313175158Y-42036107D01*
X313159667Y-41872311D01*
X313140938Y-41825520D01*
X313069211Y-41752360D01*
X312960315Y-41762941D01*
G37*
X312960315Y-41762941D02*
X312777092Y-41851822D01*
X312543327Y-42022754D01*
X312359486Y-42231231D01*
X312349890Y-42246824D01*
X312286765Y-42370760D01*
X312253730Y-42503380D01*
X312249991Y-42684237D01*
X312274755Y-42952883D01*
X312327227Y-43348868D01*
X312327711Y-43352331D01*
X312404281Y-43834778D01*
X312474399Y-44155184D01*
X312534813Y-44312607D01*
X312582270Y-44306106D01*
X312613515Y-44134738D01*
X312625297Y-43797560D01*
X312619452Y-43436835D01*
X312589333Y-42466004D01*
X312843333Y-42381899D01*
X313021901Y-42322808D01*
X313107256Y-42294632D01*
X313107982Y-42294397D01*
X313155896Y-42205747D01*
X313175158Y-42036107D01*
X313159667Y-41872311D01*
X313140938Y-41825520D01*
X313069211Y-41752360D01*
X312960315Y-41762941D01*
G36*
X322574220Y-40682585D02*
G01*
X322326441Y-40798218D01*
X322056934Y-40996890D01*
X321917907Y-41130092D01*
X321679148Y-41381303D01*
X321951708Y-41476318D01*
X322213367Y-41553388D01*
X322393749Y-41551419D01*
X322565439Y-41462084D01*
X322653249Y-41395854D01*
X322801865Y-41213894D01*
X322874931Y-40995052D01*
X322864235Y-40796495D01*
X322761570Y-40675392D01*
X322756975Y-40673550D01*
X322574220Y-40682585D01*
G37*
X322574220Y-40682585D02*
X322326441Y-40798218D01*
X322056934Y-40996890D01*
X321917907Y-41130092D01*
X321679148Y-41381303D01*
X321951708Y-41476318D01*
X322213367Y-41553388D01*
X322393749Y-41551419D01*
X322565439Y-41462084D01*
X322653249Y-41395854D01*
X322801865Y-41213894D01*
X322874931Y-40995052D01*
X322864235Y-40796495D01*
X322761570Y-40675392D01*
X322756975Y-40673550D01*
X322574220Y-40682585D01*
G36*
X315712943Y-35166515D02*
G01*
X315510333Y-35175922D01*
X314852671Y-35219287D01*
X314180719Y-35274981D01*
X313525727Y-35339450D01*
X312918943Y-35409142D01*
X312391617Y-35480504D01*
X311974995Y-35549982D01*
X311727055Y-35606089D01*
X311452134Y-35716350D01*
X311213255Y-35867476D01*
X311043143Y-36030440D01*
X310974520Y-36176215D01*
X311001502Y-36249701D01*
X311106677Y-36263597D01*
X311344683Y-36252396D01*
X311681327Y-36218851D01*
X312082410Y-36165711D01*
X312125764Y-36159273D01*
X312584626Y-36091743D01*
X313033819Y-36027908D01*
X313419165Y-35975337D01*
X313668833Y-35943650D01*
X314155667Y-35886482D01*
X314155667Y-36361055D01*
X314227583Y-36874469D01*
X314426901Y-37358150D01*
X314728972Y-37776859D01*
X315109151Y-38095360D01*
X315486853Y-38264242D01*
X315781025Y-38330181D01*
X316038260Y-38338742D01*
X316336247Y-38288080D01*
X316526333Y-38239549D01*
X317082479Y-38028522D01*
X317570581Y-37726148D01*
X317915765Y-37393782D01*
X318063509Y-37188917D01*
X318142439Y-36998641D01*
X318173271Y-36754253D01*
X318177333Y-36526314D01*
X318177333Y-35984063D01*
X318473667Y-36034926D01*
X318771769Y-36089610D01*
X319080463Y-36151084D01*
X319087500Y-36152561D01*
X319315028Y-36179181D01*
X319395602Y-36129536D01*
X319330067Y-35999454D01*
X319155273Y-35817991D01*
X318844128Y-35615400D01*
X318392413Y-35444153D01*
X317826783Y-35308946D01*
X317173892Y-35214474D01*
X316460394Y-35165432D01*
X315712943Y-35166515D01*
G37*
X315712943Y-35166515D02*
X315510333Y-35175922D01*
X314852671Y-35219287D01*
X314180719Y-35274981D01*
X313525727Y-35339450D01*
X312918943Y-35409142D01*
X312391617Y-35480504D01*
X311974995Y-35549982D01*
X311727055Y-35606089D01*
X311452134Y-35716350D01*
X311213255Y-35867476D01*
X311043143Y-36030440D01*
X310974520Y-36176215D01*
X311001502Y-36249701D01*
X311106677Y-36263597D01*
X311344683Y-36252396D01*
X311681327Y-36218851D01*
X312082410Y-36165711D01*
X312125764Y-36159273D01*
X312584626Y-36091743D01*
X313033819Y-36027908D01*
X313419165Y-35975337D01*
X313668833Y-35943650D01*
X314155667Y-35886482D01*
X314155667Y-36361055D01*
X314227583Y-36874469D01*
X314426901Y-37358150D01*
X314728972Y-37776859D01*
X315109151Y-38095360D01*
X315486853Y-38264242D01*
X315781025Y-38330181D01*
X316038260Y-38338742D01*
X316336247Y-38288080D01*
X316526333Y-38239549D01*
X317082479Y-38028522D01*
X317570581Y-37726148D01*
X317915765Y-37393782D01*
X318063509Y-37188917D01*
X318142439Y-36998641D01*
X318173271Y-36754253D01*
X318177333Y-36526314D01*
X318177333Y-35984063D01*
X318473667Y-36034926D01*
X318771769Y-36089610D01*
X319080463Y-36151084D01*
X319087500Y-36152561D01*
X319315028Y-36179181D01*
X319395602Y-36129536D01*
X319330067Y-35999454D01*
X319155273Y-35817991D01*
X318844128Y-35615400D01*
X318392413Y-35444153D01*
X317826783Y-35308946D01*
X317173892Y-35214474D01*
X316460394Y-35165432D01*
X315712943Y-35166515D01*
G36*
X322431833Y-35812330D02*
G01*
X322225728Y-35997816D01*
X322121805Y-36132350D01*
X322132373Y-36223942D01*
X322269741Y-36280601D01*
X322546218Y-36310338D01*
X322974113Y-36321163D01*
X323215000Y-36322000D01*
X324315667Y-36322000D01*
X324315667Y-36732016D01*
X324373406Y-37144637D01*
X324528670Y-37539537D01*
X324754529Y-37862370D01*
X324956913Y-38026133D01*
X325252887Y-38134095D01*
X325644810Y-38198682D01*
X326063057Y-38212007D01*
X326350121Y-38183962D01*
X326697972Y-38060476D01*
X327042438Y-37835064D01*
X327307177Y-37558610D01*
X327322682Y-37535726D01*
X327402096Y-37330017D01*
X327445553Y-37053126D01*
X327448333Y-36970886D01*
X327448333Y-36597815D01*
X327868187Y-36542119D01*
X328119356Y-36495996D01*
X328292984Y-36440318D01*
X328334640Y-36411024D01*
X328308137Y-36309134D01*
X328168300Y-36162667D01*
X327954316Y-36000609D01*
X327705373Y-35851947D01*
X327460657Y-35745666D01*
X327417346Y-35732509D01*
X327233172Y-35703166D01*
X326905988Y-35673782D01*
X326462112Y-35645853D01*
X325927861Y-35620874D01*
X325329550Y-35600343D01*
X324908333Y-35589870D01*
X322749333Y-35544332D01*
X322431833Y-35812330D01*
G37*
X322431833Y-35812330D02*
X322225728Y-35997816D01*
X322121805Y-36132350D01*
X322132373Y-36223942D01*
X322269741Y-36280601D01*
X322546218Y-36310338D01*
X322974113Y-36321163D01*
X323215000Y-36322000D01*
X324315667Y-36322000D01*
X324315667Y-36732016D01*
X324373406Y-37144637D01*
X324528670Y-37539537D01*
X324754529Y-37862370D01*
X324956913Y-38026133D01*
X325252887Y-38134095D01*
X325644810Y-38198682D01*
X326063057Y-38212007D01*
X326350121Y-38183962D01*
X326697972Y-38060476D01*
X327042438Y-37835064D01*
X327307177Y-37558610D01*
X327322682Y-37535726D01*
X327402096Y-37330017D01*
X327445553Y-37053126D01*
X327448333Y-36970886D01*
X327448333Y-36597815D01*
X327868187Y-36542119D01*
X328119356Y-36495996D01*
X328292984Y-36440318D01*
X328334640Y-36411024D01*
X328308137Y-36309134D01*
X328168300Y-36162667D01*
X327954316Y-36000609D01*
X327705373Y-35851947D01*
X327460657Y-35745666D01*
X327417346Y-35732509D01*
X327233172Y-35703166D01*
X326905988Y-35673782D01*
X326462112Y-35645853D01*
X325927861Y-35620874D01*
X325329550Y-35600343D01*
X324908333Y-35589870D01*
X322749333Y-35544332D01*
X322431833Y-35812330D01*
G36*
X315195303Y-45423394D02*
G01*
X315023343Y-45534486D01*
X315002333Y-45550666D01*
X314885368Y-45662292D01*
X314878344Y-45717054D01*
X314887120Y-45718117D01*
X315016091Y-45669342D01*
X315183454Y-45553483D01*
X315302462Y-45433314D01*
X315297378Y-45389811D01*
X315195303Y-45423394D01*
G37*
X315195303Y-45423394D02*
X315023343Y-45534486D01*
X315002333Y-45550666D01*
X314885368Y-45662292D01*
X314878344Y-45717054D01*
X314887120Y-45718117D01*
X315016091Y-45669342D01*
X315183454Y-45553483D01*
X315302462Y-45433314D01*
X315297378Y-45389811D01*
X315195303Y-45423394D01*
G36*
X322498201Y-32584027D02*
G01*
X322438150Y-32642533D01*
X322424970Y-32742434D01*
X322427466Y-32793441D01*
X322499429Y-33072084D01*
X322655900Y-33386084D01*
X322858395Y-33673391D01*
X323068426Y-33871954D01*
X323112460Y-33897890D01*
X323221371Y-33932979D01*
X323408297Y-33962483D01*
X323688373Y-33987204D01*
X324076734Y-34007945D01*
X324588517Y-34025507D01*
X325238856Y-34040693D01*
X326042887Y-34054304D01*
X326072500Y-34054740D01*
X328803000Y-34094756D01*
X328803000Y-33906411D01*
X328755892Y-33714032D01*
X328691016Y-33625128D01*
X328486365Y-33523986D01*
X328112983Y-33420277D01*
X327570722Y-33313971D01*
X326859433Y-33205039D01*
X326051333Y-33101969D01*
X325484348Y-33030376D01*
X324903547Y-32949248D01*
X324359154Y-32866127D01*
X323901389Y-32788551D01*
X323680667Y-32746041D01*
X323196355Y-32647923D01*
X322853625Y-32587618D01*
X322628800Y-32566020D01*
X322498201Y-32584027D01*
G37*
X322498201Y-32584027D02*
X322438150Y-32642533D01*
X322424970Y-32742434D01*
X322427466Y-32793441D01*
X322499429Y-33072084D01*
X322655900Y-33386084D01*
X322858395Y-33673391D01*
X323068426Y-33871954D01*
X323112460Y-33897890D01*
X323221371Y-33932979D01*
X323408297Y-33962483D01*
X323688373Y-33987204D01*
X324076734Y-34007945D01*
X324588517Y-34025507D01*
X325238856Y-34040693D01*
X326042887Y-34054304D01*
X326072500Y-34054740D01*
X328803000Y-34094756D01*
X328803000Y-33906411D01*
X328755892Y-33714032D01*
X328691016Y-33625128D01*
X328486365Y-33523986D01*
X328112983Y-33420277D01*
X327570722Y-33313971D01*
X326859433Y-33205039D01*
X326051333Y-33101969D01*
X325484348Y-33030376D01*
X324903547Y-32949248D01*
X324359154Y-32866127D01*
X323901389Y-32788551D01*
X323680667Y-32746041D01*
X323196355Y-32647923D01*
X322853625Y-32587618D01*
X322628800Y-32566020D01*
X322498201Y-32584027D01*
G36*
X310906332Y-31587999D02*
G01*
X310689196Y-31823842D01*
X310674821Y-31840815D01*
X310464709Y-32081301D01*
X310176631Y-32399747D01*
X309850467Y-32752516D01*
X309562500Y-33057856D01*
X309282569Y-33355795D01*
X309051088Y-33610435D01*
X308890313Y-33796684D01*
X308822500Y-33889451D01*
X308821667Y-33893095D01*
X308894702Y-33935749D01*
X309049260Y-33951333D01*
X309178976Y-33921333D01*
X309345751Y-33820213D01*
X309570734Y-33631293D01*
X309875077Y-33337893D01*
X310044093Y-33166785D01*
X310463295Y-32715044D01*
X310794043Y-32310771D01*
X311026904Y-31968383D01*
X311152445Y-31702297D01*
X311161233Y-31526931D01*
X311138926Y-31493392D01*
X311050652Y-31482032D01*
X310906332Y-31587999D01*
G37*
X310906332Y-31587999D02*
X310689196Y-31823842D01*
X310674821Y-31840815D01*
X310464709Y-32081301D01*
X310176631Y-32399747D01*
X309850467Y-32752516D01*
X309562500Y-33057856D01*
X309282569Y-33355795D01*
X309051088Y-33610435D01*
X308890313Y-33796684D01*
X308822500Y-33889451D01*
X308821667Y-33893095D01*
X308894702Y-33935749D01*
X309049260Y-33951333D01*
X309178976Y-33921333D01*
X309345751Y-33820213D01*
X309570734Y-33631293D01*
X309875077Y-33337893D01*
X310044093Y-33166785D01*
X310463295Y-32715044D01*
X310794043Y-32310771D01*
X311026904Y-31968383D01*
X311152445Y-31702297D01*
X311161233Y-31526931D01*
X311138926Y-31493392D01*
X311050652Y-31482032D01*
X310906332Y-31587999D01*
G36*
X334432731Y-28726105D02*
G01*
X334254955Y-28840124D01*
X333984954Y-29069844D01*
X333765835Y-29273500D01*
X333431499Y-29574952D01*
X333157037Y-29778734D01*
X332893550Y-29916953D01*
X332655333Y-30002667D01*
X332290210Y-30127656D01*
X332065989Y-30237276D01*
X331957077Y-30347013D01*
X331935667Y-30438158D01*
X332009355Y-30548864D01*
X332208231Y-30592418D01*
X332491246Y-30563010D01*
X332801601Y-30456850D01*
X333174784Y-30271302D01*
X333548526Y-30041105D01*
X333860562Y-29801000D01*
X333866258Y-29795873D01*
X334098275Y-29557937D01*
X334311973Y-29290914D01*
X334475404Y-29039854D01*
X334556620Y-28849806D01*
X334560333Y-28817185D01*
X334530463Y-28720791D01*
X334432731Y-28726105D01*
G37*
X334432731Y-28726105D02*
X334254955Y-28840124D01*
X333984954Y-29069844D01*
X333765835Y-29273500D01*
X333431499Y-29574952D01*
X333157037Y-29778734D01*
X332893550Y-29916953D01*
X332655333Y-30002667D01*
X332290210Y-30127656D01*
X332065989Y-30237276D01*
X331957077Y-30347013D01*
X331935667Y-30438158D01*
X332009355Y-30548864D01*
X332208231Y-30592418D01*
X332491246Y-30563010D01*
X332801601Y-30456850D01*
X333174784Y-30271302D01*
X333548526Y-30041105D01*
X333860562Y-29801000D01*
X333866258Y-29795873D01*
X334098275Y-29557937D01*
X334311973Y-29290914D01*
X334475404Y-29039854D01*
X334556620Y-28849806D01*
X334560333Y-28817185D01*
X334530463Y-28720791D01*
X334432731Y-28726105D01*
G36*
X319536459Y-24315701D02*
G01*
X319244108Y-24339567D01*
X319077064Y-24376337D01*
X319067041Y-24381770D01*
X318986225Y-24464423D01*
X319033143Y-24535640D01*
X319217663Y-24598490D01*
X319549654Y-24656040D01*
X320038984Y-24711357D01*
X320165539Y-24723241D01*
X320823012Y-24794743D01*
X321511161Y-24889905D01*
X322203305Y-25003203D01*
X322872759Y-25129114D01*
X323492840Y-25262116D01*
X324036863Y-25396686D01*
X324478146Y-25527300D01*
X324790004Y-25648437D01*
X324882887Y-25699612D01*
X325119995Y-25808535D01*
X325307790Y-25810945D01*
X325408581Y-25710151D01*
X325416333Y-25652755D01*
X325343139Y-25486181D01*
X325152896Y-25322000D01*
X325147365Y-25318608D01*
X324974322Y-25244464D01*
X324667285Y-25143590D01*
X324257965Y-25024134D01*
X323778069Y-24894242D01*
X323259308Y-24762062D01*
X322733390Y-24635740D01*
X322232025Y-24523424D01*
X321786922Y-24433262D01*
X321521667Y-24387041D01*
X321183990Y-24347628D01*
X320777883Y-24320704D01*
X320342094Y-24306353D01*
X319915370Y-24304658D01*
X319536459Y-24315701D01*
G37*
X319536459Y-24315701D02*
X319244108Y-24339567D01*
X319077064Y-24376337D01*
X319067041Y-24381770D01*
X318986225Y-24464423D01*
X319033143Y-24535640D01*
X319217663Y-24598490D01*
X319549654Y-24656040D01*
X320038984Y-24711357D01*
X320165539Y-24723241D01*
X320823012Y-24794743D01*
X321511161Y-24889905D01*
X322203305Y-25003203D01*
X322872759Y-25129114D01*
X323492840Y-25262116D01*
X324036863Y-25396686D01*
X324478146Y-25527300D01*
X324790004Y-25648437D01*
X324882887Y-25699612D01*
X325119995Y-25808535D01*
X325307790Y-25810945D01*
X325408581Y-25710151D01*
X325416333Y-25652755D01*
X325343139Y-25486181D01*
X325152896Y-25322000D01*
X325147365Y-25318608D01*
X324974322Y-25244464D01*
X324667285Y-25143590D01*
X324257965Y-25024134D01*
X323778069Y-24894242D01*
X323259308Y-24762062D01*
X322733390Y-24635740D01*
X322232025Y-24523424D01*
X321786922Y-24433262D01*
X321521667Y-24387041D01*
X321183990Y-24347628D01*
X320777883Y-24320704D01*
X320342094Y-24306353D01*
X319915370Y-24304658D01*
X319536459Y-24315701D01*
G36*
X314563615Y-21845948D02*
G01*
X314100910Y-21915472D01*
X313607096Y-22021805D01*
X313113989Y-22159165D01*
X312653404Y-22321770D01*
X312280204Y-22491594D01*
X311902192Y-22709553D01*
X311564772Y-22939533D01*
X311293057Y-23160403D01*
X311112160Y-23351034D01*
X311047194Y-23490297D01*
X311055743Y-23521815D01*
X311159792Y-23607159D01*
X311318853Y-23581652D01*
X311560586Y-23439290D01*
X311615667Y-23400321D01*
X312293992Y-22982685D01*
X313064601Y-22626664D01*
X313865766Y-22356425D01*
X314635757Y-22196137D01*
X314716931Y-22186138D01*
X315110703Y-22137576D01*
X315357970Y-22094214D01*
X315481028Y-22047803D01*
X315502170Y-21990095D01*
X315446926Y-21916058D01*
X315268438Y-21840459D01*
X314963396Y-21819017D01*
X314563615Y-21845948D01*
G37*
X314563615Y-21845948D02*
X314100910Y-21915472D01*
X313607096Y-22021805D01*
X313113989Y-22159165D01*
X312653404Y-22321770D01*
X312280204Y-22491594D01*
X311902192Y-22709553D01*
X311564772Y-22939533D01*
X311293057Y-23160403D01*
X311112160Y-23351034D01*
X311047194Y-23490297D01*
X311055743Y-23521815D01*
X311159792Y-23607159D01*
X311318853Y-23581652D01*
X311560586Y-23439290D01*
X311615667Y-23400321D01*
X312293992Y-22982685D01*
X313064601Y-22626664D01*
X313865766Y-22356425D01*
X314635757Y-22196137D01*
X314716931Y-22186138D01*
X315110703Y-22137576D01*
X315357970Y-22094214D01*
X315481028Y-22047803D01*
X315502170Y-21990095D01*
X315446926Y-21916058D01*
X315268438Y-21840459D01*
X314963396Y-21819017D01*
X314563615Y-21845948D01*
D11*
%TO.C,SW92*%
X295480000Y-68185000D02*
X295930000Y-67735000D01*
X298880000Y-68185000D02*
X298430000Y-67735000D01*
X298880000Y-72785000D02*
X298430000Y-73235000D01*
X295480000Y-72785000D02*
X295930000Y-73235000D01*
X299930000Y-71485000D02*
X299930000Y-69485000D01*
X295930000Y-67735000D02*
X298430000Y-67735000D01*
X294430000Y-71485000D02*
X294430000Y-69485000D01*
X295930000Y-73235000D02*
X298430000Y-73235000D01*
%TO.C,SW91*%
X342470000Y-68185000D02*
X342920000Y-67735000D01*
X345870000Y-68185000D02*
X345420000Y-67735000D01*
X345870000Y-72785000D02*
X345420000Y-73235000D01*
X342470000Y-72785000D02*
X342920000Y-73235000D01*
X346920000Y-71485000D02*
X346920000Y-69485000D01*
X342920000Y-67735000D02*
X345420000Y-67735000D01*
X341420000Y-71485000D02*
X341420000Y-69485000D01*
X342920000Y-73235000D02*
X345420000Y-73235000D01*
%TO.C,J701*%
X272990000Y-45780000D02*
X272990000Y-43120000D01*
X278130000Y-45780000D02*
X272990000Y-45780000D01*
X278130000Y-43120000D02*
X272990000Y-43120000D01*
X278130000Y-45780000D02*
X278130000Y-43120000D01*
X279400000Y-45780000D02*
X280730000Y-45780000D01*
X280730000Y-45780000D02*
X280730000Y-44450000D01*
%TO.C,J301*%
X272990000Y-54035000D02*
X272990000Y-51375000D01*
X278130000Y-54035000D02*
X272990000Y-54035000D01*
X278130000Y-51375000D02*
X272990000Y-51375000D01*
X278130000Y-54035000D02*
X278130000Y-51375000D01*
X279400000Y-54035000D02*
X280730000Y-54035000D01*
X280730000Y-54035000D02*
X280730000Y-52705000D01*
%TO.C,RV1*%
X283610000Y-88595000D02*
X288195000Y-88595000D01*
X291466000Y-88595000D02*
X350995000Y-88595000D01*
X354266000Y-88595000D02*
X358850000Y-88595000D01*
X283610000Y-79355000D02*
X286995000Y-79355000D01*
X290266000Y-79355000D02*
X352195000Y-79355000D01*
X355466000Y-79355000D02*
X358850000Y-79355000D01*
X283610000Y-88595000D02*
X283610000Y-86900000D01*
X283610000Y-84550000D02*
X283610000Y-83047000D01*
X283610000Y-81402000D02*
X283610000Y-79355000D01*
X358850000Y-88595000D02*
X358850000Y-86548000D01*
X358850000Y-84902000D02*
X358850000Y-79355000D01*
X283305000Y-85725000D02*
X282805000Y-86225000D01*
X282805000Y-86225000D02*
X282805000Y-85225000D01*
X282805000Y-85225000D02*
X283305000Y-85725000D01*
X291230000Y-83975000D02*
X351230000Y-83975000D01*
X291230000Y-85475000D02*
X291230000Y-82475000D01*
X291980000Y-84725000D02*
X291230000Y-83975000D01*
X291230000Y-83975000D02*
X291980000Y-83225000D01*
X351230000Y-85475000D02*
X351230000Y-82475000D01*
X350480000Y-84725000D02*
X351230000Y-83975000D01*
X351230000Y-83975000D02*
X350480000Y-83225000D01*
%TO.C,SW94*%
X300060000Y-54015000D02*
G75*
G03*
X300060000Y-54015000I-3000000J0D01*
G01*
X299060000Y-59915000D02*
X303160000Y-59915000D01*
X303160000Y-48115000D02*
X299060000Y-48115000D01*
X295060000Y-48115000D02*
X290960000Y-48115000D01*
X295060000Y-59915000D02*
X290960000Y-59915000D01*
X290960000Y-59915000D02*
X290960000Y-48115000D01*
X289560000Y-57815000D02*
X289260000Y-58115000D01*
X289260000Y-58115000D02*
X289860000Y-58115000D01*
X289860000Y-58115000D02*
X289560000Y-57815000D01*
X303160000Y-59915000D02*
X303160000Y-57515000D01*
X303160000Y-55315000D02*
X303160000Y-52715000D01*
X303160000Y-50515000D02*
X303160000Y-48115000D01*
X297060000Y-54515000D02*
X297060000Y-53515000D01*
X296560000Y-54015000D02*
X297560000Y-54015000D01*
D12*
%TO.C,U2*%
X287065000Y-16180855D02*
G75*
G03*
X287065000Y-16180855I-1500000J0D01*
G01*
X295965000Y-16080855D02*
X295965000Y-16280855D01*
X355065000Y22619145D02*
G75*
G03*
X355065000Y22619145I-1500000J0D01*
G01*
X336865000Y-16080855D02*
X336865000Y-16280855D01*
X343165000Y-16280855D02*
X343165000Y-16080855D01*
X342665000Y-15580855D02*
X337365000Y-15580855D01*
X287065000Y22619145D02*
G75*
G03*
X287065000Y22619145I-1500000J0D01*
G01*
X296465000Y-16780855D02*
X301765000Y-16780855D01*
X355065000Y-16180855D02*
G75*
G03*
X355065000Y-16180855I-1500000J0D01*
G01*
X337365000Y-16780855D02*
X342665000Y-16780855D01*
X301765000Y-15580855D02*
X296465000Y-15580855D01*
X302265000Y-16280855D02*
X302265000Y-16080855D01*
X336865000Y22719145D02*
X336865000Y22519145D01*
X337365000Y22019145D02*
X342665000Y22019145D01*
X355565000Y24619145D02*
X355565000Y-18180855D01*
X308565000Y-18180855D02*
X283565000Y-18180855D01*
X301765000Y23219145D02*
X296465000Y23219145D01*
X308565000Y-14970000D02*
X308565000Y-18180855D01*
X342665000Y23219145D02*
X337365000Y23219145D01*
X283565000Y24619145D02*
X355565000Y24619145D01*
X302265000Y22519145D02*
X302265000Y22719145D01*
X343165000Y22519145D02*
X343165000Y22719145D01*
X355565000Y-18180855D02*
X330565000Y-18180855D01*
X283565000Y-18180855D02*
X283565000Y24619145D01*
X295965000Y22719145D02*
X295965000Y22519145D01*
X296465000Y22019145D02*
X301765000Y22019145D01*
X330565000Y-18180855D02*
X330565000Y-14970000D01*
X329565000Y-13970000D02*
X309565000Y-13970000D01*
X302265000Y-16080855D02*
G75*
G03*
X301765000Y-15580855I-500000J0D01*
G01*
X336865000Y-16280855D02*
G75*
G03*
X337365000Y-16780855I500000J0D01*
G01*
X296465000Y-15580855D02*
G75*
G03*
X295965000Y-16080855I0J-500000D01*
G01*
X343165000Y-16080855D02*
G75*
G03*
X342665000Y-15580855I-500000J0D01*
G01*
X337365000Y-15580855D02*
G75*
G03*
X336865000Y-16080855I0J-500000D01*
G01*
X342665000Y-16780855D02*
G75*
G03*
X343165000Y-16280855I0J500000D01*
G01*
X295965000Y-16280855D02*
G75*
G03*
X296465000Y-16780855I500000J0D01*
G01*
X301765000Y-16780855D02*
G75*
G03*
X302265000Y-16280855I0J500000D01*
G01*
X296465000Y23219145D02*
G75*
G03*
X295965000Y22719145I0J-500000D01*
G01*
X342665000Y22019145D02*
G75*
G03*
X343165000Y22519145I0J500000D01*
G01*
X343165000Y22719145D02*
G75*
G03*
X342665000Y23219145I-500000J0D01*
G01*
X295965000Y22519145D02*
G75*
G03*
X296465000Y22019145I500000J0D01*
G01*
X337365000Y23219145D02*
G75*
G03*
X336865000Y22719145I0J-500000D01*
G01*
X336865000Y22519145D02*
G75*
G03*
X337365000Y22019145I500000J0D01*
G01*
X302265000Y22719145D02*
G75*
G03*
X301765000Y23219145I-500000J0D01*
G01*
X309565000Y-13970000D02*
G75*
G03*
X308565000Y-14970000I0J-1000000D01*
G01*
X301765000Y22019145D02*
G75*
G03*
X302265000Y22519145I0J500000D01*
G01*
X330565000Y-14970000D02*
G75*
G03*
X329565000Y-13970000I-1000000J0D01*
G01*
D11*
%TO.C,SW93*%
X343550000Y-54015000D02*
X344550000Y-54015000D01*
X344050000Y-54515000D02*
X344050000Y-53515000D01*
X350150000Y-50515000D02*
X350150000Y-48115000D01*
X350150000Y-55315000D02*
X350150000Y-52715000D01*
X350150000Y-59915000D02*
X350150000Y-57515000D01*
X336850000Y-58115000D02*
X336550000Y-57815000D01*
X336250000Y-58115000D02*
X336850000Y-58115000D01*
X336550000Y-57815000D02*
X336250000Y-58115000D01*
X337950000Y-59915000D02*
X337950000Y-48115000D01*
X342050000Y-59915000D02*
X337950000Y-59915000D01*
X342050000Y-48115000D02*
X337950000Y-48115000D01*
X350150000Y-48115000D02*
X346050000Y-48115000D01*
X346050000Y-59915000D02*
X350150000Y-59915000D01*
X347050000Y-54015000D02*
G75*
G03*
X347050000Y-54015000I-3000000J0D01*
G01*
%TO.C,R3*%
X274244000Y-24257000D02*
X275194000Y-24257000D01*
X279984000Y-24257000D02*
X279034000Y-24257000D01*
X275194000Y-23337000D02*
X279034000Y-23337000D01*
X275194000Y-25177000D02*
X275194000Y-23337000D01*
X279034000Y-25177000D02*
X275194000Y-25177000D01*
X279034000Y-23337000D02*
X279034000Y-25177000D01*
%TO.C,R2*%
X274244000Y-31877000D02*
X275194000Y-31877000D01*
X279984000Y-31877000D02*
X279034000Y-31877000D01*
X275194000Y-30957000D02*
X279034000Y-30957000D01*
X275194000Y-32797000D02*
X275194000Y-30957000D01*
X279034000Y-32797000D02*
X275194000Y-32797000D01*
X279034000Y-30957000D02*
X279034000Y-32797000D01*
%TO.C,R1*%
X274117000Y-38227000D02*
X275067000Y-38227000D01*
X279857000Y-38227000D02*
X278907000Y-38227000D01*
X275067000Y-37307000D02*
X278907000Y-37307000D01*
X275067000Y-39147000D02*
X275067000Y-37307000D01*
X278907000Y-39147000D02*
X275067000Y-39147000D01*
X278907000Y-37307000D02*
X278907000Y-39147000D01*
%TO.C,J1*%
X315340000Y32480000D02*
X315340000Y34380000D01*
X315340000Y28580000D02*
X315340000Y30580000D01*
X324740000Y32480000D02*
X324740000Y34380000D01*
X324740000Y28580000D02*
X324740000Y30580000D01*
X315340000Y34380000D02*
X324740000Y34380000D01*
%TO.C,SW92*%
D13*
X298989523Y-74639761D02*
X298846666Y-74687380D01*
X298608571Y-74687380D01*
X298513333Y-74639761D01*
X298465714Y-74592142D01*
X298418095Y-74496904D01*
X298418095Y-74401666D01*
X298465714Y-74306428D01*
X298513333Y-74258809D01*
X298608571Y-74211190D01*
X298799047Y-74163571D01*
X298894285Y-74115952D01*
X298941904Y-74068333D01*
X298989523Y-73973095D01*
X298989523Y-73877857D01*
X298941904Y-73782619D01*
X298894285Y-73735000D01*
X298799047Y-73687380D01*
X298560952Y-73687380D01*
X298418095Y-73735000D01*
X298084761Y-73687380D02*
X297846666Y-74687380D01*
X297656190Y-73973095D01*
X297465714Y-74687380D01*
X297227619Y-73687380D01*
X296799047Y-74687380D02*
X296608571Y-74687380D01*
X296513333Y-74639761D01*
X296465714Y-74592142D01*
X296370476Y-74449285D01*
X296322857Y-74258809D01*
X296322857Y-73877857D01*
X296370476Y-73782619D01*
X296418095Y-73735000D01*
X296513333Y-73687380D01*
X296703809Y-73687380D01*
X296799047Y-73735000D01*
X296846666Y-73782619D01*
X296894285Y-73877857D01*
X296894285Y-74115952D01*
X296846666Y-74211190D01*
X296799047Y-74258809D01*
X296703809Y-74306428D01*
X296513333Y-74306428D01*
X296418095Y-74258809D01*
X296370476Y-74211190D01*
X296322857Y-74115952D01*
X295941904Y-73782619D02*
X295894285Y-73735000D01*
X295799047Y-73687380D01*
X295560952Y-73687380D01*
X295465714Y-73735000D01*
X295418095Y-73782619D01*
X295370476Y-73877857D01*
X295370476Y-73973095D01*
X295418095Y-74115952D01*
X295989523Y-74687380D01*
X295370476Y-74687380D01*
%TO.C,SW91*%
X345979523Y-74639761D02*
X345836666Y-74687380D01*
X345598571Y-74687380D01*
X345503333Y-74639761D01*
X345455714Y-74592142D01*
X345408095Y-74496904D01*
X345408095Y-74401666D01*
X345455714Y-74306428D01*
X345503333Y-74258809D01*
X345598571Y-74211190D01*
X345789047Y-74163571D01*
X345884285Y-74115952D01*
X345931904Y-74068333D01*
X345979523Y-73973095D01*
X345979523Y-73877857D01*
X345931904Y-73782619D01*
X345884285Y-73735000D01*
X345789047Y-73687380D01*
X345550952Y-73687380D01*
X345408095Y-73735000D01*
X345074761Y-73687380D02*
X344836666Y-74687380D01*
X344646190Y-73973095D01*
X344455714Y-74687380D01*
X344217619Y-73687380D01*
X343789047Y-74687380D02*
X343598571Y-74687380D01*
X343503333Y-74639761D01*
X343455714Y-74592142D01*
X343360476Y-74449285D01*
X343312857Y-74258809D01*
X343312857Y-73877857D01*
X343360476Y-73782619D01*
X343408095Y-73735000D01*
X343503333Y-73687380D01*
X343693809Y-73687380D01*
X343789047Y-73735000D01*
X343836666Y-73782619D01*
X343884285Y-73877857D01*
X343884285Y-74115952D01*
X343836666Y-74211190D01*
X343789047Y-74258809D01*
X343693809Y-74306428D01*
X343503333Y-74306428D01*
X343408095Y-74258809D01*
X343360476Y-74211190D01*
X343312857Y-74115952D01*
X342360476Y-74687380D02*
X342931904Y-74687380D01*
X342646190Y-74687380D02*
X342646190Y-73687380D01*
X342741428Y-73830238D01*
X342836666Y-73925476D01*
X342931904Y-73973095D01*
%TO.C,J701*%
X281182380Y-43164285D02*
X281896666Y-43164285D01*
X282039523Y-43116666D01*
X282134761Y-43021428D01*
X282182380Y-42878571D01*
X282182380Y-42783333D01*
X281182380Y-43545238D02*
X281182380Y-44211904D01*
X282182380Y-43783333D01*
X281182380Y-44783333D02*
X281182380Y-44878571D01*
X281230000Y-44973809D01*
X281277619Y-45021428D01*
X281372857Y-45069047D01*
X281563333Y-45116666D01*
X281801428Y-45116666D01*
X281991904Y-45069047D01*
X282087142Y-45021428D01*
X282134761Y-44973809D01*
X282182380Y-44878571D01*
X282182380Y-44783333D01*
X282134761Y-44688095D01*
X282087142Y-44640476D01*
X281991904Y-44592857D01*
X281801428Y-44545238D01*
X281563333Y-44545238D01*
X281372857Y-44592857D01*
X281277619Y-44640476D01*
X281230000Y-44688095D01*
X281182380Y-44783333D01*
X282182380Y-46069047D02*
X282182380Y-45497619D01*
X282182380Y-45783333D02*
X281182380Y-45783333D01*
X281325238Y-45688095D01*
X281420476Y-45592857D01*
X281468095Y-45497619D01*
%TO.C,J301*%
X281182380Y-51419285D02*
X281896666Y-51419285D01*
X282039523Y-51371666D01*
X282134761Y-51276428D01*
X282182380Y-51133571D01*
X282182380Y-51038333D01*
X281182380Y-51800238D02*
X281182380Y-52419285D01*
X281563333Y-52085952D01*
X281563333Y-52228809D01*
X281610952Y-52324047D01*
X281658571Y-52371666D01*
X281753809Y-52419285D01*
X281991904Y-52419285D01*
X282087142Y-52371666D01*
X282134761Y-52324047D01*
X282182380Y-52228809D01*
X282182380Y-51943095D01*
X282134761Y-51847857D01*
X282087142Y-51800238D01*
X281182380Y-53038333D02*
X281182380Y-53133571D01*
X281230000Y-53228809D01*
X281277619Y-53276428D01*
X281372857Y-53324047D01*
X281563333Y-53371666D01*
X281801428Y-53371666D01*
X281991904Y-53324047D01*
X282087142Y-53276428D01*
X282134761Y-53228809D01*
X282182380Y-53133571D01*
X282182380Y-53038333D01*
X282134761Y-52943095D01*
X282087142Y-52895476D01*
X281991904Y-52847857D01*
X281801428Y-52800238D01*
X281563333Y-52800238D01*
X281372857Y-52847857D01*
X281277619Y-52895476D01*
X281230000Y-52943095D01*
X281182380Y-53038333D01*
X282182380Y-54324047D02*
X282182380Y-53752619D01*
X282182380Y-54038333D02*
X281182380Y-54038333D01*
X281325238Y-53943095D01*
X281420476Y-53847857D01*
X281468095Y-53752619D01*
%TO.C,RV1*%
X321825238Y-90177380D02*
X322158571Y-89701190D01*
X322396666Y-90177380D02*
X322396666Y-89177380D01*
X322015714Y-89177380D01*
X321920476Y-89225000D01*
X321872857Y-89272619D01*
X321825238Y-89367857D01*
X321825238Y-89510714D01*
X321872857Y-89605952D01*
X321920476Y-89653571D01*
X322015714Y-89701190D01*
X322396666Y-89701190D01*
X321539523Y-89177380D02*
X321206190Y-90177380D01*
X320872857Y-89177380D01*
X320015714Y-90177380D02*
X320587142Y-90177380D01*
X320301428Y-90177380D02*
X320301428Y-89177380D01*
X320396666Y-89320238D01*
X320491904Y-89415476D01*
X320587142Y-89463095D01*
%TO.C,SW94*%
X294169523Y-61619761D02*
X294026666Y-61667380D01*
X293788571Y-61667380D01*
X293693333Y-61619761D01*
X293645714Y-61572142D01*
X293598095Y-61476904D01*
X293598095Y-61381666D01*
X293645714Y-61286428D01*
X293693333Y-61238809D01*
X293788571Y-61191190D01*
X293979047Y-61143571D01*
X294074285Y-61095952D01*
X294121904Y-61048333D01*
X294169523Y-60953095D01*
X294169523Y-60857857D01*
X294121904Y-60762619D01*
X294074285Y-60715000D01*
X293979047Y-60667380D01*
X293740952Y-60667380D01*
X293598095Y-60715000D01*
X293264761Y-60667380D02*
X293026666Y-61667380D01*
X292836190Y-60953095D01*
X292645714Y-61667380D01*
X292407619Y-60667380D01*
X291979047Y-61667380D02*
X291788571Y-61667380D01*
X291693333Y-61619761D01*
X291645714Y-61572142D01*
X291550476Y-61429285D01*
X291502857Y-61238809D01*
X291502857Y-60857857D01*
X291550476Y-60762619D01*
X291598095Y-60715000D01*
X291693333Y-60667380D01*
X291883809Y-60667380D01*
X291979047Y-60715000D01*
X292026666Y-60762619D01*
X292074285Y-60857857D01*
X292074285Y-61095952D01*
X292026666Y-61191190D01*
X291979047Y-61238809D01*
X291883809Y-61286428D01*
X291693333Y-61286428D01*
X291598095Y-61238809D01*
X291550476Y-61191190D01*
X291502857Y-61095952D01*
X290645714Y-61000714D02*
X290645714Y-61667380D01*
X290883809Y-60619761D02*
X291121904Y-61334047D01*
X290502857Y-61334047D01*
%TO.C,U2*%
X349376904Y-10882380D02*
X349376904Y-11691904D01*
X349329285Y-11787142D01*
X349281666Y-11834761D01*
X349186428Y-11882380D01*
X348995952Y-11882380D01*
X348900714Y-11834761D01*
X348853095Y-11787142D01*
X348805476Y-11691904D01*
X348805476Y-10882380D01*
X348376904Y-10977619D02*
X348329285Y-10930000D01*
X348234047Y-10882380D01*
X347995952Y-10882380D01*
X347900714Y-10930000D01*
X347853095Y-10977619D01*
X347805476Y-11072857D01*
X347805476Y-11168095D01*
X347853095Y-11310952D01*
X348424523Y-11882380D01*
X347805476Y-11882380D01*
D14*
X351255000Y11215714D02*
X351283571Y11187142D01*
X351369285Y11158571D01*
X351426428Y11158571D01*
X351512142Y11187142D01*
X351569285Y11244285D01*
X351597857Y11301428D01*
X351626428Y11415714D01*
X351626428Y11501428D01*
X351597857Y11615714D01*
X351569285Y11672857D01*
X351512142Y11730000D01*
X351426428Y11758571D01*
X351369285Y11758571D01*
X351283571Y11730000D01*
X351255000Y11701428D01*
X351026428Y11187142D02*
X350940714Y11158571D01*
X350797857Y11158571D01*
X350740714Y11187142D01*
X350712142Y11215714D01*
X350683571Y11272857D01*
X350683571Y11330000D01*
X350712142Y11387142D01*
X350740714Y11415714D01*
X350797857Y11444285D01*
X350912142Y11472857D01*
X350969285Y11501428D01*
X350997857Y11530000D01*
X351026428Y11587142D01*
X351026428Y11644285D01*
X350997857Y11701428D01*
X350969285Y11730000D01*
X350912142Y11758571D01*
X350769285Y11758571D01*
X350683571Y11730000D01*
X351612142Y8618571D02*
X351612142Y9218571D01*
X351469285Y9218571D01*
X351383571Y9190000D01*
X351326428Y9132857D01*
X351297857Y9075714D01*
X351269285Y8961428D01*
X351269285Y8875714D01*
X351297857Y8761428D01*
X351326428Y8704285D01*
X351383571Y8647142D01*
X351469285Y8618571D01*
X351612142Y8618571D01*
X350669285Y8675714D02*
X350697857Y8647142D01*
X350783571Y8618571D01*
X350840714Y8618571D01*
X350926428Y8647142D01*
X350983571Y8704285D01*
X351012142Y8761428D01*
X351040714Y8875714D01*
X351040714Y8961428D01*
X351012142Y9075714D01*
X350983571Y9132857D01*
X350926428Y9190000D01*
X350840714Y9218571D01*
X350783571Y9218571D01*
X350697857Y9190000D01*
X350669285Y9161428D01*
X351483571Y6078571D02*
X351683571Y6364285D01*
X351826428Y6078571D02*
X351826428Y6678571D01*
X351597857Y6678571D01*
X351540714Y6650000D01*
X351512142Y6621428D01*
X351483571Y6564285D01*
X351483571Y6478571D01*
X351512142Y6421428D01*
X351540714Y6392857D01*
X351597857Y6364285D01*
X351826428Y6364285D01*
X351255000Y6107142D02*
X351169285Y6078571D01*
X351026428Y6078571D01*
X350969285Y6107142D01*
X350940714Y6135714D01*
X350912142Y6192857D01*
X350912142Y6250000D01*
X350940714Y6307142D01*
X350969285Y6335714D01*
X351026428Y6364285D01*
X351140714Y6392857D01*
X351197857Y6421428D01*
X351226428Y6450000D01*
X351255000Y6507142D01*
X351255000Y6564285D01*
X351226428Y6621428D01*
X351197857Y6650000D01*
X351140714Y6678571D01*
X350997857Y6678571D01*
X350912142Y6650000D01*
X350740714Y6678571D02*
X350397857Y6678571D01*
X350569285Y6078571D02*
X350569285Y6678571D01*
X351883571Y3567142D02*
X351797857Y3538571D01*
X351655000Y3538571D01*
X351597857Y3567142D01*
X351569285Y3595714D01*
X351540714Y3652857D01*
X351540714Y3710000D01*
X351569285Y3767142D01*
X351597857Y3795714D01*
X351655000Y3824285D01*
X351769285Y3852857D01*
X351826428Y3881428D01*
X351855000Y3910000D01*
X351883571Y3967142D01*
X351883571Y4024285D01*
X351855000Y4081428D01*
X351826428Y4110000D01*
X351769285Y4138571D01*
X351626428Y4138571D01*
X351540714Y4110000D01*
X351283571Y3538571D02*
X351283571Y4138571D01*
X351140714Y4138571D01*
X351055000Y4110000D01*
X350997857Y4052857D01*
X350969285Y3995714D01*
X350940714Y3881428D01*
X350940714Y3795714D01*
X350969285Y3681428D01*
X350997857Y3624285D01*
X351055000Y3567142D01*
X351140714Y3538571D01*
X351283571Y3538571D01*
X350712142Y3710000D02*
X350426428Y3710000D01*
X350769285Y3538571D02*
X350569285Y4138571D01*
X350369285Y3538571D01*
X351869285Y1027142D02*
X351783571Y998571D01*
X351640714Y998571D01*
X351583571Y1027142D01*
X351555000Y1055714D01*
X351526428Y1112857D01*
X351526428Y1170000D01*
X351555000Y1227142D01*
X351583571Y1255714D01*
X351640714Y1284285D01*
X351755000Y1312857D01*
X351812142Y1341428D01*
X351840714Y1370000D01*
X351869285Y1427142D01*
X351869285Y1484285D01*
X351840714Y1541428D01*
X351812142Y1570000D01*
X351755000Y1598571D01*
X351612142Y1598571D01*
X351526428Y1570000D01*
X350926428Y1055714D02*
X350955000Y1027142D01*
X351040714Y998571D01*
X351097857Y998571D01*
X351183571Y1027142D01*
X351240714Y1084285D01*
X351269285Y1141428D01*
X351297857Y1255714D01*
X351297857Y1341428D01*
X351269285Y1455714D01*
X351240714Y1512857D01*
X351183571Y1570000D01*
X351097857Y1598571D01*
X351040714Y1598571D01*
X350955000Y1570000D01*
X350926428Y1541428D01*
X350383571Y998571D02*
X350669285Y998571D01*
X350669285Y1598571D01*
X351955000Y-941428D02*
X351755000Y-1541428D01*
X351555000Y-941428D01*
X351012142Y-1484285D02*
X351040714Y-1512857D01*
X351126428Y-1541428D01*
X351183571Y-1541428D01*
X351269285Y-1512857D01*
X351326428Y-1455714D01*
X351355000Y-1398571D01*
X351383571Y-1284285D01*
X351383571Y-1198571D01*
X351355000Y-1084285D01*
X351326428Y-1027142D01*
X351269285Y-970000D01*
X351183571Y-941428D01*
X351126428Y-941428D01*
X351040714Y-970000D01*
X351012142Y-998571D01*
X350412142Y-1484285D02*
X350440714Y-1512857D01*
X350526428Y-1541428D01*
X350583571Y-1541428D01*
X350669285Y-1512857D01*
X350726428Y-1455714D01*
X350755000Y-1398571D01*
X350783571Y-1284285D01*
X350783571Y-1198571D01*
X350755000Y-1084285D01*
X350726428Y-1027142D01*
X350669285Y-970000D01*
X350583571Y-941428D01*
X350526428Y-941428D01*
X350440714Y-970000D01*
X350412142Y-998571D01*
X351612142Y-3510000D02*
X351669285Y-3481428D01*
X351755000Y-3481428D01*
X351840714Y-3510000D01*
X351897857Y-3567142D01*
X351926428Y-3624285D01*
X351955000Y-3738571D01*
X351955000Y-3824285D01*
X351926428Y-3938571D01*
X351897857Y-3995714D01*
X351840714Y-4052857D01*
X351755000Y-4081428D01*
X351697857Y-4081428D01*
X351612142Y-4052857D01*
X351583571Y-4024285D01*
X351583571Y-3824285D01*
X351697857Y-3824285D01*
X351326428Y-4081428D02*
X351326428Y-3481428D01*
X350983571Y-4081428D01*
X350983571Y-3481428D01*
X350697857Y-4081428D02*
X350697857Y-3481428D01*
X350555000Y-3481428D01*
X350469285Y-3510000D01*
X350412142Y-3567142D01*
X350383571Y-3624285D01*
X350355000Y-3738571D01*
X350355000Y-3824285D01*
X350383571Y-3938571D01*
X350412142Y-3995714D01*
X350469285Y-4052857D01*
X350555000Y-4081428D01*
X350697857Y-4081428D01*
%TO.C,SW93*%
D13*
X341159523Y-61619761D02*
X341016666Y-61667380D01*
X340778571Y-61667380D01*
X340683333Y-61619761D01*
X340635714Y-61572142D01*
X340588095Y-61476904D01*
X340588095Y-61381666D01*
X340635714Y-61286428D01*
X340683333Y-61238809D01*
X340778571Y-61191190D01*
X340969047Y-61143571D01*
X341064285Y-61095952D01*
X341111904Y-61048333D01*
X341159523Y-60953095D01*
X341159523Y-60857857D01*
X341111904Y-60762619D01*
X341064285Y-60715000D01*
X340969047Y-60667380D01*
X340730952Y-60667380D01*
X340588095Y-60715000D01*
X340254761Y-60667380D02*
X340016666Y-61667380D01*
X339826190Y-60953095D01*
X339635714Y-61667380D01*
X339397619Y-60667380D01*
X338969047Y-61667380D02*
X338778571Y-61667380D01*
X338683333Y-61619761D01*
X338635714Y-61572142D01*
X338540476Y-61429285D01*
X338492857Y-61238809D01*
X338492857Y-60857857D01*
X338540476Y-60762619D01*
X338588095Y-60715000D01*
X338683333Y-60667380D01*
X338873809Y-60667380D01*
X338969047Y-60715000D01*
X339016666Y-60762619D01*
X339064285Y-60857857D01*
X339064285Y-61095952D01*
X339016666Y-61191190D01*
X338969047Y-61238809D01*
X338873809Y-61286428D01*
X338683333Y-61286428D01*
X338588095Y-61238809D01*
X338540476Y-61191190D01*
X338492857Y-61095952D01*
X338159523Y-60667380D02*
X337540476Y-60667380D01*
X337873809Y-61048333D01*
X337730952Y-61048333D01*
X337635714Y-61095952D01*
X337588095Y-61143571D01*
X337540476Y-61238809D01*
X337540476Y-61476904D01*
X337588095Y-61572142D01*
X337635714Y-61619761D01*
X337730952Y-61667380D01*
X338016666Y-61667380D01*
X338111904Y-61619761D01*
X338159523Y-61572142D01*
%TO.C,R3*%
X277280666Y-22789380D02*
X277614000Y-22313190D01*
X277852095Y-22789380D02*
X277852095Y-21789380D01*
X277471142Y-21789380D01*
X277375904Y-21837000D01*
X277328285Y-21884619D01*
X277280666Y-21979857D01*
X277280666Y-22122714D01*
X277328285Y-22217952D01*
X277375904Y-22265571D01*
X277471142Y-22313190D01*
X277852095Y-22313190D01*
X276947333Y-21789380D02*
X276328285Y-21789380D01*
X276661619Y-22170333D01*
X276518761Y-22170333D01*
X276423523Y-22217952D01*
X276375904Y-22265571D01*
X276328285Y-22360809D01*
X276328285Y-22598904D01*
X276375904Y-22694142D01*
X276423523Y-22741761D01*
X276518761Y-22789380D01*
X276804476Y-22789380D01*
X276899714Y-22741761D01*
X276947333Y-22694142D01*
%TO.C,R2*%
X277280666Y-30409380D02*
X277614000Y-29933190D01*
X277852095Y-30409380D02*
X277852095Y-29409380D01*
X277471142Y-29409380D01*
X277375904Y-29457000D01*
X277328285Y-29504619D01*
X277280666Y-29599857D01*
X277280666Y-29742714D01*
X277328285Y-29837952D01*
X277375904Y-29885571D01*
X277471142Y-29933190D01*
X277852095Y-29933190D01*
X276899714Y-29504619D02*
X276852095Y-29457000D01*
X276756857Y-29409380D01*
X276518761Y-29409380D01*
X276423523Y-29457000D01*
X276375904Y-29504619D01*
X276328285Y-29599857D01*
X276328285Y-29695095D01*
X276375904Y-29837952D01*
X276947333Y-30409380D01*
X276328285Y-30409380D01*
%TO.C,R1*%
X277153666Y-36759380D02*
X277487000Y-36283190D01*
X277725095Y-36759380D02*
X277725095Y-35759380D01*
X277344142Y-35759380D01*
X277248904Y-35807000D01*
X277201285Y-35854619D01*
X277153666Y-35949857D01*
X277153666Y-36092714D01*
X277201285Y-36187952D01*
X277248904Y-36235571D01*
X277344142Y-36283190D01*
X277725095Y-36283190D01*
X276201285Y-36759380D02*
X276772714Y-36759380D01*
X276487000Y-36759380D02*
X276487000Y-35759380D01*
X276582238Y-35902238D01*
X276677476Y-35997476D01*
X276772714Y-36045095D01*
%TO.C,J1*%
X320373333Y25382619D02*
X320373333Y24668333D01*
X320420952Y24525476D01*
X320516190Y24430238D01*
X320659047Y24382619D01*
X320754285Y24382619D01*
X319373333Y24382619D02*
X319944761Y24382619D01*
X319659047Y24382619D02*
X319659047Y25382619D01*
X319754285Y25239761D01*
X319849523Y25144523D01*
X319944761Y25096904D01*
%TD*%
%LPC*%
D15*
%TO.C,SW54*%
X72390000Y-85090000D03*
X66040000Y-82550000D03*
D16*
X69850000Y-80010000D03*
D17*
X74930000Y-80010000D03*
X64770000Y-80010000D03*
%TD*%
D15*
%TO.C,SW90*%
X-22860000Y-85090000D03*
X-29210000Y-82550000D03*
D16*
X-25400000Y-80010000D03*
D17*
X-20320000Y-80010000D03*
X-30480000Y-80010000D03*
%TD*%
D15*
%TO.C,SW89*%
X-22860000Y-66040000D03*
X-29210000Y-63500000D03*
D16*
X-25400000Y-60960000D03*
D17*
X-20320000Y-60960000D03*
X-30480000Y-60960000D03*
%TD*%
D15*
%TO.C,SW88*%
X-22860000Y-46990000D03*
X-29210000Y-44450000D03*
D16*
X-25400000Y-41910000D03*
D17*
X-20320000Y-41910000D03*
X-30480000Y-41910000D03*
%TD*%
D15*
%TO.C,SW87*%
X-22860000Y-27940000D03*
X-29210000Y-25400000D03*
D16*
X-25400000Y-22860000D03*
D17*
X-20320000Y-22860000D03*
X-30480000Y-22860000D03*
%TD*%
D15*
%TO.C,SW86*%
X-22860000Y-8890000D03*
X-29210000Y-6350000D03*
D16*
X-25400000Y-3810000D03*
D17*
X-20320000Y-3810000D03*
X-30480000Y-3810000D03*
%TD*%
D15*
%TO.C,SW85*%
X-22860000Y10160000D03*
X-29210000Y12700000D03*
D16*
X-25400000Y15240000D03*
D17*
X-20320000Y15240000D03*
X-30480000Y15240000D03*
%TD*%
D15*
%TO.C,SW84*%
X-3810000Y-85090000D03*
X-10160000Y-82550000D03*
D16*
X-6350000Y-80010000D03*
D17*
X-1270000Y-80010000D03*
X-11430000Y-80010000D03*
%TD*%
D15*
%TO.C,SW83*%
X-3783997Y-66022703D03*
X-10133997Y-63482703D03*
D16*
X-6323997Y-60942703D03*
D17*
X-1243997Y-60942703D03*
X-11403997Y-60942703D03*
%TD*%
D15*
%TO.C,SW82*%
X8199928Y-46996635D03*
X1849928Y-44456635D03*
D18*
X-6240072Y-48916635D03*
X17559928Y-48916635D03*
D16*
X17559928Y-33676635D03*
X-6240072Y-33676635D03*
D17*
X579928Y-41916635D03*
X10739928Y-41916635D03*
D16*
X5659928Y-41916635D03*
X5659928Y-41916635D03*
D17*
X10739928Y-41916635D03*
X579928Y-41916635D03*
%TD*%
D15*
%TO.C,SW81*%
X1010000Y-27940000D03*
X-5340000Y-25400000D03*
D16*
X-1530000Y-22860000D03*
D17*
X3550000Y-22860000D03*
X-6610000Y-22860000D03*
%TD*%
D15*
%TO.C,SW80*%
X5684062Y-8882196D03*
X-665938Y-6342196D03*
D18*
X-8755938Y-10802196D03*
X15044062Y-10802196D03*
D16*
X15044062Y4437804D03*
X-8755938Y4437804D03*
D17*
X-1935938Y-3802196D03*
X8224062Y-3802196D03*
D16*
X3144062Y-3802196D03*
X3144062Y-3802196D03*
D17*
X8224062Y-3802196D03*
X-1935938Y-3802196D03*
%TD*%
D15*
%TO.C,SW79*%
X-3810000Y10160000D03*
X-10160000Y12700000D03*
D16*
X-6350000Y15240000D03*
D17*
X-1270000Y15240000D03*
X-11430000Y15240000D03*
%TD*%
D15*
%TO.C,SW76*%
X24759000Y-27940000D03*
X18409000Y-25400000D03*
D16*
X22219000Y-22860000D03*
D17*
X27299000Y-22860000D03*
X17139000Y-22860000D03*
%TD*%
D15*
%TO.C,SW75*%
X34290000Y-8890000D03*
X27940000Y-6350000D03*
D16*
X31750000Y-3810000D03*
D17*
X36830000Y-3810000D03*
X26670000Y-3810000D03*
%TD*%
D15*
%TO.C,SW74*%
X15240000Y10160000D03*
X8890000Y12700000D03*
D16*
X12700000Y15240000D03*
D17*
X17780000Y15240000D03*
X7620000Y15240000D03*
%TD*%
D15*
%TO.C,SW73*%
X34290000Y10160000D03*
X27940000Y12700000D03*
D16*
X31750000Y15240000D03*
D17*
X36830000Y15240000D03*
X26670000Y15240000D03*
%TD*%
D15*
%TO.C,SW72*%
X15240000Y-85090000D03*
X8890000Y-82550000D03*
D16*
X12700000Y-80010000D03*
D17*
X17780000Y-80010000D03*
X7620000Y-80010000D03*
%TD*%
D15*
%TO.C,SW71*%
X22423076Y-66059657D03*
X16073076Y-63519657D03*
D16*
X19883076Y-60979657D03*
D17*
X24963076Y-60979657D03*
X14803076Y-60979657D03*
%TD*%
D15*
%TO.C,SW70*%
X39139778Y-46982095D03*
X32789778Y-44442095D03*
D16*
X36599778Y-41902095D03*
D17*
X41679778Y-41902095D03*
X31519778Y-41902095D03*
%TD*%
D15*
%TO.C,SW69*%
X43802656Y-27922703D03*
X37452656Y-25382703D03*
D16*
X41262656Y-22842703D03*
D17*
X46342656Y-22842703D03*
X36182656Y-22842703D03*
%TD*%
D15*
%TO.C,SW68*%
X53340000Y-8890000D03*
X46990000Y-6350000D03*
D16*
X50800000Y-3810000D03*
D17*
X55880000Y-3810000D03*
X45720000Y-3810000D03*
%TD*%
D15*
%TO.C,SW67*%
X53340000Y10160000D03*
X46990000Y12700000D03*
D16*
X50800000Y15240000D03*
D17*
X55880000Y15240000D03*
X45720000Y15240000D03*
%TD*%
D15*
%TO.C,SW66*%
X34290000Y-85090000D03*
X27940000Y-82550000D03*
D16*
X31750000Y-80010000D03*
D17*
X36830000Y-80010000D03*
X26670000Y-80010000D03*
%TD*%
D15*
%TO.C,SW65*%
X48649767Y-65997188D03*
X42299767Y-63457188D03*
D16*
X46109767Y-60917188D03*
D17*
X51189767Y-60917188D03*
X41029767Y-60917188D03*
%TD*%
D15*
%TO.C,SW64*%
X58189778Y-46955013D03*
X51839778Y-44415013D03*
D16*
X55649778Y-41875013D03*
D17*
X60729778Y-41875013D03*
X50569778Y-41875013D03*
%TD*%
D15*
%TO.C,SW63*%
X62852656Y-27922703D03*
X56502656Y-25382703D03*
D16*
X60312656Y-22842703D03*
D17*
X65392656Y-22842703D03*
X55232656Y-22842703D03*
%TD*%
D15*
%TO.C,SW62*%
X72390000Y-8890000D03*
X66040000Y-6350000D03*
D16*
X69850000Y-3810000D03*
D17*
X74930000Y-3810000D03*
X64770000Y-3810000D03*
%TD*%
D15*
%TO.C,SW61*%
X72390000Y10160000D03*
X66040000Y12700000D03*
D16*
X69850000Y15240000D03*
D17*
X74930000Y15240000D03*
X64770000Y15240000D03*
%TD*%
D15*
%TO.C,SW60*%
X53340000Y-85090000D03*
X46990000Y-82550000D03*
D16*
X50800000Y-80010000D03*
D17*
X55880000Y-80010000D03*
X45720000Y-80010000D03*
%TD*%
D15*
%TO.C,SW59*%
X67711978Y-65951154D03*
X61361978Y-63411154D03*
D16*
X65171978Y-60871154D03*
D17*
X70251978Y-60871154D03*
X60091978Y-60871154D03*
%TD*%
D15*
%TO.C,SW58*%
X77239778Y-46955013D03*
X70889778Y-44415013D03*
D16*
X74699778Y-41875013D03*
D17*
X79779778Y-41875013D03*
X69619778Y-41875013D03*
%TD*%
D15*
%TO.C,SW57*%
X81902656Y-27922703D03*
X75552656Y-25382703D03*
D16*
X79362656Y-22842703D03*
D17*
X84442656Y-22842703D03*
X74282656Y-22842703D03*
%TD*%
D15*
%TO.C,SW56*%
X91440000Y-8890000D03*
X85090000Y-6350000D03*
D16*
X88900000Y-3810000D03*
D17*
X93980000Y-3810000D03*
X83820000Y-3810000D03*
%TD*%
D15*
%TO.C,SW55*%
X91440000Y10160000D03*
X85090000Y12700000D03*
D16*
X88900000Y15240000D03*
D17*
X93980000Y15240000D03*
X83820000Y15240000D03*
%TD*%
D15*
%TO.C,SW53*%
X86761978Y-65951154D03*
X80411978Y-63411154D03*
D16*
X84221978Y-60871154D03*
D17*
X89301978Y-60871154D03*
X79141978Y-60871154D03*
%TD*%
D15*
%TO.C,SW52*%
X96289778Y-46955013D03*
X89939778Y-44415013D03*
D16*
X93749778Y-41875013D03*
D17*
X98829778Y-41875013D03*
X88669778Y-41875013D03*
%TD*%
D15*
%TO.C,SW51*%
X100952656Y-27922703D03*
X94602656Y-25382703D03*
D16*
X98412656Y-22842703D03*
D17*
X103492656Y-22842703D03*
X93332656Y-22842703D03*
%TD*%
D15*
%TO.C,SW50*%
X110490000Y-8890000D03*
X104140000Y-6350000D03*
D16*
X107950000Y-3810000D03*
D17*
X113030000Y-3810000D03*
X102870000Y-3810000D03*
%TD*%
D15*
%TO.C,SW49*%
X110490000Y10160000D03*
X104140000Y12700000D03*
D16*
X107950000Y15240000D03*
D17*
X113030000Y15240000D03*
X102870000Y15240000D03*
%TD*%
D15*
%TO.C,SW47*%
X105811978Y-65951154D03*
X99461978Y-63411154D03*
D16*
X103271978Y-60871154D03*
D17*
X108351978Y-60871154D03*
X98191978Y-60871154D03*
%TD*%
D15*
%TO.C,SW46*%
X115361449Y-46947108D03*
X109011449Y-44407108D03*
D16*
X112821449Y-41867108D03*
D17*
X117901449Y-41867108D03*
X107741449Y-41867108D03*
%TD*%
D15*
%TO.C,SW45*%
X120002656Y-27922703D03*
X113652656Y-25382703D03*
D16*
X117462656Y-22842703D03*
D17*
X122542656Y-22842703D03*
X112382656Y-22842703D03*
%TD*%
D15*
%TO.C,SW44*%
X129540000Y-8890000D03*
X123190000Y-6350000D03*
D16*
X127000000Y-3810000D03*
D17*
X132080000Y-3810000D03*
X121920000Y-3810000D03*
%TD*%
D15*
%TO.C,SW43*%
X129540000Y10160000D03*
X123190000Y12700000D03*
D16*
X127000000Y15240000D03*
D17*
X132080000Y15240000D03*
X121920000Y15240000D03*
%TD*%
D15*
%TO.C,SW41*%
X124808277Y-65933857D03*
X118458277Y-63393857D03*
D16*
X122268277Y-60853857D03*
D17*
X127348277Y-60853857D03*
X117188277Y-60853857D03*
%TD*%
D15*
%TO.C,SW40*%
X134411449Y-46920026D03*
X128061449Y-44380026D03*
D16*
X131871449Y-41840026D03*
D17*
X136951449Y-41840026D03*
X126791449Y-41840026D03*
%TD*%
D15*
%TO.C,SW39*%
X139052656Y-27922703D03*
X132702656Y-25382703D03*
D16*
X136512656Y-22842703D03*
D17*
X141592656Y-22842703D03*
X131432656Y-22842703D03*
%TD*%
D15*
%TO.C,SW38*%
X148590000Y-8890000D03*
X142240000Y-6350000D03*
D16*
X146050000Y-3810000D03*
D17*
X151130000Y-3810000D03*
X140970000Y-3810000D03*
%TD*%
D15*
%TO.C,SW37*%
X148590000Y10160000D03*
X142240000Y12700000D03*
D16*
X146050000Y15240000D03*
D17*
X151130000Y15240000D03*
X140970000Y15240000D03*
%TD*%
D15*
%TO.C,SW36*%
X141420678Y-85145706D03*
X135070678Y-82605706D03*
D18*
X88880678Y-87065706D03*
X188880678Y-87065706D03*
D16*
X188880678Y-71825706D03*
X88880678Y-71825706D03*
D17*
X133800678Y-80065706D03*
X143960678Y-80065706D03*
D16*
X138880678Y-80065706D03*
X138880678Y-80065706D03*
D17*
X143960678Y-80065706D03*
X133800678Y-80065706D03*
%TD*%
D15*
%TO.C,SW35*%
X143898090Y-66000303D03*
X137548090Y-63460303D03*
D16*
X141358090Y-60920303D03*
D17*
X146438090Y-60920303D03*
X136278090Y-60920303D03*
%TD*%
D15*
%TO.C,SW34*%
X153670000Y-46990000D03*
X147320000Y-44450000D03*
D16*
X151130000Y-41910000D03*
D17*
X156210000Y-41910000D03*
X146050000Y-41910000D03*
%TD*%
D15*
%TO.C,SW33*%
X158091893Y-27969487D03*
X151741893Y-25429487D03*
D16*
X155551893Y-22889487D03*
D17*
X160631893Y-22889487D03*
X150471893Y-22889487D03*
%TD*%
D15*
%TO.C,SW32*%
X167640000Y-8890000D03*
X161290000Y-6350000D03*
D16*
X165100000Y-3810000D03*
D17*
X170180000Y-3810000D03*
X160020000Y-3810000D03*
%TD*%
D15*
%TO.C,SW31*%
X167640000Y10160000D03*
X161290000Y12700000D03*
D16*
X165100000Y15240000D03*
D17*
X170180000Y15240000D03*
X160020000Y15240000D03*
%TD*%
D15*
%TO.C,SW29*%
X162952023Y-65994518D03*
X156602023Y-63454518D03*
D16*
X160412023Y-60914518D03*
D17*
X165492023Y-60914518D03*
X155332023Y-60914518D03*
%TD*%
D15*
%TO.C,SW28*%
X172474802Y-46922969D03*
X166124802Y-44382969D03*
D16*
X169934802Y-41842969D03*
D17*
X175014802Y-41842969D03*
X164854802Y-41842969D03*
%TD*%
D15*
%TO.C,SW27*%
X177038852Y-27933867D03*
X170688852Y-25393867D03*
D16*
X174498852Y-22853867D03*
D17*
X179578852Y-22853867D03*
X169418852Y-22853867D03*
%TD*%
D15*
%TO.C,SW26*%
X186690000Y-8890000D03*
X180340000Y-6350000D03*
D16*
X184150000Y-3810000D03*
D17*
X189230000Y-3810000D03*
X179070000Y-3810000D03*
%TD*%
D15*
%TO.C,SW25*%
X186690000Y10160000D03*
X180340000Y12700000D03*
D16*
X184150000Y15240000D03*
D17*
X189230000Y15240000D03*
X179070000Y15240000D03*
%TD*%
D15*
%TO.C,SW23*%
X181991000Y-66040000D03*
X175641000Y-63500000D03*
D16*
X179451000Y-60960000D03*
D17*
X184531000Y-60960000D03*
X174371000Y-60960000D03*
%TD*%
D15*
%TO.C,SW22*%
X191490945Y-46961077D03*
X185140945Y-44421077D03*
D16*
X188950945Y-41881077D03*
D17*
X194030945Y-41881077D03*
X183870945Y-41881077D03*
%TD*%
D15*
%TO.C,SW21*%
X196089236Y-27933867D03*
X189739236Y-25393867D03*
D16*
X193549236Y-22853867D03*
D17*
X198629236Y-22853867D03*
X188469236Y-22853867D03*
%TD*%
D15*
%TO.C,SW20*%
X205740000Y-8890000D03*
X199390000Y-6350000D03*
D16*
X203200000Y-3810000D03*
D17*
X208280000Y-3810000D03*
X198120000Y-3810000D03*
%TD*%
D15*
%TO.C,SW19*%
X205740000Y10160000D03*
X199390000Y12700000D03*
D16*
X203200000Y15240000D03*
D17*
X208280000Y15240000D03*
X198120000Y15240000D03*
%TD*%
D15*
%TO.C,SW18*%
X212846000Y-85090000D03*
X206496000Y-82550000D03*
D16*
X210306000Y-80010000D03*
D17*
X215386000Y-80010000D03*
X205226000Y-80010000D03*
%TD*%
D15*
%TO.C,SW17*%
X201041000Y-66040000D03*
X194691000Y-63500000D03*
D16*
X198501000Y-60960000D03*
D17*
X203581000Y-60960000D03*
X193421000Y-60960000D03*
%TD*%
D15*
%TO.C,SW16*%
X210560000Y-46990000D03*
X204210000Y-44450000D03*
D16*
X208020000Y-41910000D03*
D17*
X213100000Y-41910000D03*
X202940000Y-41910000D03*
%TD*%
D15*
%TO.C,SW15*%
X215139621Y-27933867D03*
X208789621Y-25393867D03*
D16*
X212599621Y-22853867D03*
D17*
X217679621Y-22853867D03*
X207519621Y-22853867D03*
%TD*%
D15*
%TO.C,SW14*%
X224790000Y-8890000D03*
X218440000Y-6350000D03*
D16*
X222250000Y-3810000D03*
D17*
X227330000Y-3810000D03*
X217170000Y-3810000D03*
%TD*%
D15*
%TO.C,SW13*%
X224790000Y10160000D03*
X218440000Y12700000D03*
D16*
X222250000Y15240000D03*
D17*
X227330000Y15240000D03*
X217170000Y15240000D03*
%TD*%
D15*
%TO.C,SW12*%
X236728000Y-85090000D03*
X230378000Y-82550000D03*
D16*
X234188000Y-80010000D03*
D17*
X239268000Y-80010000D03*
X229108000Y-80010000D03*
%TD*%
D15*
%TO.C,SW11*%
X220091000Y-66040000D03*
X213741000Y-63500000D03*
D16*
X217551000Y-60960000D03*
D17*
X222631000Y-60960000D03*
X212471000Y-60960000D03*
%TD*%
D15*
%TO.C,SW10*%
X229627769Y-47072314D03*
X223277769Y-44532314D03*
D16*
X227087769Y-41992314D03*
D17*
X232167769Y-41992314D03*
X222007769Y-41992314D03*
%TD*%
D15*
%TO.C,SW9*%
X234190005Y-27933867D03*
X227840005Y-25393867D03*
D16*
X231650005Y-22853867D03*
D17*
X236730005Y-22853867D03*
X226570005Y-22853867D03*
%TD*%
D15*
%TO.C,SW8*%
X243840000Y-8890000D03*
X237490000Y-6350000D03*
D16*
X241300000Y-3810000D03*
D17*
X246380000Y-3810000D03*
X236220000Y-3810000D03*
%TD*%
D15*
%TO.C,SW7*%
X243840000Y10160000D03*
X237490000Y12700000D03*
D16*
X241300000Y15240000D03*
D17*
X246380000Y15240000D03*
X236220000Y15240000D03*
%TD*%
D15*
%TO.C,SW6*%
X260559662Y-85115668D03*
X254209662Y-82575668D03*
D16*
X258019662Y-80035668D03*
D17*
X263099662Y-80035668D03*
X252939662Y-80035668D03*
%TD*%
D15*
%TO.C,SW5*%
X251050714Y-66077426D03*
X244700714Y-63537426D03*
D18*
X236610714Y-67997426D03*
X260410714Y-67997426D03*
D16*
X260410714Y-52757426D03*
X236610714Y-52757426D03*
D17*
X243430714Y-60997426D03*
X253590714Y-60997426D03*
D16*
X248510714Y-60997426D03*
X248510714Y-60997426D03*
D17*
X253590714Y-60997426D03*
X243430714Y-60997426D03*
%TD*%
D15*
%TO.C,SW4*%
X255792489Y-47037919D03*
X249442489Y-44497919D03*
D16*
X253252489Y-41957919D03*
D17*
X258332489Y-41957919D03*
X248172489Y-41957919D03*
%TD*%
D15*
%TO.C,SW3*%
X258064000Y-27940000D03*
X251714000Y-25400000D03*
D16*
X255524000Y-22860000D03*
D17*
X260604000Y-22860000D03*
X250444000Y-22860000D03*
%TD*%
D15*
%TO.C,SW2*%
X262890000Y-8890000D03*
X256540000Y-6350000D03*
D16*
X260350000Y-3810000D03*
D17*
X265430000Y-3810000D03*
X255270000Y-3810000D03*
%TD*%
D15*
%TO.C,SW1*%
X262890000Y10160000D03*
X256540000Y12700000D03*
D16*
X260350000Y15240000D03*
D17*
X265430000Y15240000D03*
X255270000Y15240000D03*
%TD*%
D19*
%TO.C,SW92*%
X300330000Y-68585000D03*
X294030000Y-68585000D03*
X300330000Y-72385000D03*
X294030000Y-72385000D03*
%TD*%
%TO.C,SW91*%
X347320000Y-68585000D03*
X341020000Y-68585000D03*
X347320000Y-72385000D03*
X341020000Y-72385000D03*
%TD*%
D20*
%TO.C,J701*%
X274320000Y-44450000D03*
X276860000Y-44450000D03*
D21*
X279400000Y-44450000D03*
%TD*%
D20*
%TO.C,J301*%
X274320000Y-52705000D03*
X276860000Y-52705000D03*
D21*
X279400000Y-52705000D03*
%TD*%
D22*
%TO.C,RV1*%
X284480000Y-85725000D03*
D23*
X284480000Y-82225000D03*
X357980000Y-85725000D03*
D24*
X289830000Y-88175000D03*
X352630000Y-88175000D03*
X288630000Y-79775000D03*
X353830000Y-79775000D03*
%TD*%
D25*
%TO.C,SW94*%
X304060000Y-51515000D03*
X304060000Y-56515000D03*
D26*
X297060000Y-48415000D03*
X297060000Y-59615000D03*
D25*
X289560000Y-51515000D03*
X289560000Y-54015000D03*
D27*
X289560000Y-56515000D03*
%TD*%
D28*
%TO.C,U2*%
X353573080Y-16179800D03*
X285562040Y-16179800D03*
X285567120Y22606000D03*
X353562920Y22616160D03*
D29*
X353085400Y10896600D03*
X353085400Y8356600D03*
X353085400Y5816600D03*
X353085400Y3276600D03*
X353085400Y736600D03*
X353085400Y-1803400D03*
X353085400Y-4343400D03*
%TD*%
D25*
%TO.C,SW93*%
X351050000Y-51515000D03*
X351050000Y-56515000D03*
D26*
X344050000Y-48415000D03*
X344050000Y-59615000D03*
D25*
X336550000Y-51515000D03*
X336550000Y-54015000D03*
D27*
X336550000Y-56515000D03*
%TD*%
D30*
%TO.C,R3*%
X273304000Y-24257000D03*
D31*
X280924000Y-24257000D03*
%TD*%
D30*
%TO.C,R2*%
X273304000Y-31877000D03*
D31*
X280924000Y-31877000D03*
%TD*%
D30*
%TO.C,R1*%
X273177000Y-38227000D03*
D31*
X280797000Y-38227000D03*
%TD*%
D32*
%TO.C,J1*%
X324360000Y31530000D03*
D33*
X322930000Y27880000D03*
D32*
X315720000Y31530000D03*
D33*
X317150000Y27880000D03*
D34*
X315720000Y27350000D03*
X324360000Y27350000D03*
D35*
X319790000Y26435000D03*
X321790000Y26435000D03*
X321290000Y26435000D03*
X320790000Y26435000D03*
X320290000Y26435000D03*
X319290000Y26435000D03*
X318790000Y26435000D03*
X318290000Y26435000D03*
D36*
X323290000Y26435000D03*
X322490000Y26435000D03*
X317590000Y26435000D03*
X316790000Y26435000D03*
X316790000Y26435000D03*
X317590000Y26435000D03*
X322490000Y26435000D03*
X323290000Y26435000D03*
%TD*%
M02*
